<svg width="360" height="479" viewBox="0 0 360 479" fill="none" xmlns="http://www.w3.org/2000/svg">
<mask id="mask0_1_215" style="mask-type:alpha" maskUnits="userSpaceOnUse" x="0" y="0" width="360" height="479">
<g style="mix-blend-mode:overlay">
<rect width="360" height="479" transform="matrix(-1 0 0 1 360 0)" fill="#0C4CE4"/>
</g>
</mask>
<g mask="url(#mask0_1_215)">
<path opacity="0.55" d="M206.653 255.994C120.975 266.637 -5.70082 114.54 -28.5604 104.77C-51.4199 94.9996 -75.9599 100.078 -92.5529 124.428C-110.118 150.205 -128.051 240.285 -121.431 303.044C-112.878 384.129 -107.17 322.072 -93.9671 496.522C-80.7642 670.972 -46.1508 553.555 26.5089 636.42C99.1686 719.284 75.9036 668.177 188.806 740.764C301.708 813.352 249.961 780.083 332.374 865.931C414.786 951.779 521.517 1000.68 560.529 1012.62C599.541 1024.55 636.335 1011.28 724.002 1117.72C801.681 1212.03 793.934 1146.25 865.042 1175.53C936.151 1204.82 927.596 1056.36 934.305 996.589C941.014 936.818 875.67 889.878 890.872 866.788C906.073 843.697 877.904 802.582 904.978 741.115C932.052 679.649 857.473 625.122 801.566 572.749C745.658 520.376 677.079 558.441 554.768 479.805C432.457 401.168 482.741 413.778 394.648 311.133C306.556 208.487 292.33 245.35 206.653 255.994Z" fill="#27307D"/>
</g>
</svg>
