<svg width="68" height="68" viewBox="0 0 68 68" fill="none" xmlns="http://www.w3.org/2000/svg">
<circle cx="34.0001" cy="33.7762" r="33.6864" fill="#27307D" fill-opacity="0.12"/>
<g clip-path="url(#clip0_1_533)">
<path d="M23.1618 45.3457H23.1074C24.0324 44.7486 24.6853 43.7171 24.6853 42.5228C24.6853 40.6771 23.1618 39.1571 21.3118 39.1571C19.4618 39.1571 17.9382 40.6771 17.9382 42.5228C17.9382 43.7171 18.5912 44.7486 19.5162 45.3457H19.3529C17.2309 45.3457 15.5441 47.0829 15.5441 49.1457V50.8286C15.5441 51.1543 15.7618 51.3714 16.0882 51.3714H26.4265C26.7529 51.3714 26.9706 51.1543 26.9706 50.8286V49.1457C26.9706 47.0829 25.2838 45.3457 23.1618 45.3457ZM21.3118 40.2971C22.5632 40.2971 23.5971 41.3286 23.5971 42.5771C23.5971 43.8257 22.5632 44.8571 21.3118 44.8571C20.0603 44.8571 19.0265 43.8257 19.0265 42.5771C19.0265 41.2743 20.0603 40.2971 21.3118 40.2971ZM25.8824 50.2857H16.6324V49.1457C16.6324 47.6257 17.8838 46.4314 19.3529 46.4314H23.1618C24.6853 46.4314 25.8824 47.68 25.8824 49.1457V50.2857Z" fill="#010101"/>
<path d="M20.9309 37.8545C21.0397 37.9631 21.1485 38.0173 21.3118 38.0173C21.475 38.0173 21.5838 37.9631 21.6926 37.8545L23.7603 35.7916C23.9779 35.5745 23.9779 35.2488 23.7603 35.0316C23.5426 34.8145 23.2162 34.8145 22.9985 35.0316L21.8559 36.1716V27.4859H25.1206V29.7659C25.1206 30.0916 25.3382 30.3088 25.6647 30.3088H38.4515C38.7779 30.3088 38.9956 30.0916 38.9956 29.7659V26.9431C38.9956 24.8259 37.2544 23.1431 35.1868 23.1431H33.8265C35.1868 22.4916 36.1118 21.1345 36.1118 19.5059C36.1118 17.2802 34.3162 15.4888 32.0853 15.4888C29.8544 15.5431 28.0588 17.3345 28.0588 19.5602C28.0588 21.1345 28.9838 22.5459 30.3441 23.1973H28.875C26.9706 23.1973 25.3382 24.6088 25.0662 26.4545H21.2029C20.8765 26.4545 20.6588 26.6716 20.6588 26.9973V36.2259L19.5162 35.0859C19.2985 34.8688 18.9721 34.8688 18.7544 35.0859C18.5368 35.3031 18.5368 35.6288 18.7544 35.8459L20.9309 37.8545ZM29.1471 19.5602C29.1471 17.9316 30.4529 16.6288 32.0853 16.6288C33.7177 16.6288 35.0235 17.9316 35.0235 19.5602C35.0235 21.1888 33.7177 22.4916 32.0853 22.4916C30.4529 22.4373 29.1471 21.1345 29.1471 19.5602ZM28.9294 24.2288H35.1324C36.6559 24.2288 37.8529 25.4773 37.8529 26.9431V29.2231H26.2088V26.9431C26.2088 25.4773 27.4059 24.2288 28.9294 24.2288Z" fill="#010101"/>
<path d="M33.9897 39.4826C33.6632 39.4826 33.4455 39.6998 33.4455 40.0255V48.0598C33.4455 48.3855 33.6632 48.6026 33.9897 48.6026H36.9279C37.2544 48.6026 37.472 48.3855 37.472 48.0598V40.0255C37.472 39.6998 37.2544 39.4826 36.9279 39.4826H33.9897ZM36.3294 47.5169H34.4794V40.5683H36.3294V47.5169Z" fill="#010101"/>
<path d="M42.7501 35.1398H39.5398C39.2133 35.1398 38.9956 35.3569 38.9956 35.6826V48.0598C38.9956 48.3855 39.2133 48.6026 39.5398 48.6026H42.7501C43.0765 48.6026 43.2942 48.3855 43.2942 48.0598V35.6826C43.2942 35.4112 43.0765 35.1398 42.7501 35.1398ZM42.2059 47.5169H40.0839V36.2255H42.2059V47.5169Z" fill="#010101"/>
<path d="M45.4706 48.6026H48.6809C49.0074 48.6026 49.225 48.3855 49.225 48.0598V31.0683C49.225 30.7426 49.0074 30.5255 48.6809 30.5255H45.4706C45.1441 30.5255 44.9265 30.7426 44.9265 31.0683V48.0598C44.9265 48.3855 45.1441 48.6026 45.4706 48.6026ZM46.0147 31.6112H48.1368V47.5169H46.0147V31.6112Z" fill="#010101"/>
<path d="M50.9117 50.2855H30.6162V39.2112C30.6162 38.8855 30.3985 38.6683 30.072 38.6683C29.7456 38.6683 29.5279 38.8855 29.5279 39.2112V50.8283C29.5279 51.1541 29.7456 51.3712 30.072 51.3712H50.9117C51.2382 51.3712 51.4559 51.1541 51.4559 50.8283C51.4559 50.5026 51.2382 50.2855 50.9117 50.2855Z" fill="#010101"/>
<path d="M40.0838 30.7973L41.2809 31.0688L33.9353 35.8459C33.6632 36.0088 33.6088 36.3345 33.7721 36.6059C33.9353 36.8773 34.2618 36.9316 34.5338 36.7688L41.8794 31.9916L41.6074 33.1859C41.5529 33.4573 41.7162 33.7831 42.0426 33.8373C42.3147 33.8916 42.6412 33.7288 42.6956 33.4031L43.2397 30.9602C43.2941 30.7973 43.2397 30.6888 43.1853 30.5802C43.1309 30.4716 42.9676 30.3631 42.8588 30.3631L40.4103 29.8202C40.1382 29.7659 39.8118 29.9288 39.7574 30.2545C39.5941 30.4716 39.8118 30.7431 40.0838 30.7973Z" fill="#010101"/>
</g>
<defs>
<clipPath id="clip0_1_533">
<rect width="37" height="38" fill="white" transform="translate(15 15)"/>
</clipPath>
</defs>
</svg>
