<svg width="24" height="30" viewBox="0 0 24 30" fill="none" xmlns="http://www.w3.org/2000/svg">
<path d="M4.91063 20.0612C4.38808 19.1902 3.34297 16.4033 3.34297 12.2229C3.34297 6.99734 4.38808 1.51054 8.82977 1.24927C13.2715 0.987992 18.7583 -0.318389 20.0647 7.25862C20.5872 15.0967 20.8485 19.2771 19.2808 21.106" stroke="#696969"/>
<path d="M7.78463 13.5287C6.53051 10.8114 7.5245 7.95479 8.04706 6.7355C8.04706 6.7355 11.4432 7.25806 15.3623 5.16785C18.4976 12.7449 15.3623 16.1415 13.2721 16.664C11.4424 17.1214 9.35229 16.9253 7.78463 13.5287Z" stroke="#696969"/>
<path d="M0.730225 29.9889C0.730225 28.8567 0.730225 26.3833 0.730225 25.5472C0.730225 24.5021 1.25278 22.8477 2.82043 21.6281C4.70141 20.1646 7.78437 19.1024 9.09059 18.754V15.3574" stroke="#696969"/>
<path d="M22.9386 29.9902C22.9386 28.858 22.9386 26.3846 22.9386 25.5485C22.9386 24.5034 22.416 22.849 20.8483 21.6294C18.9674 20.166 15.8844 19.1037 14.5782 18.7553V16.1426" stroke="#696969"/>
<path d="M8.56845 19.0155L11.7038 26.8538L15.1004 19.0155M14.8391 27.8989H19.0195" stroke="#696969"/>
</svg>
