<svg width="30" height="32" viewBox="0 0 30 32" fill="none" xmlns="http://www.w3.org/2000/svg">
<path d="M14.6315 28.74V15.9375" stroke="#27307D"/>
<path d="M6.77063 20.2443C6.77063 18.8636 7.88992 17.7443 9.27063 17.7443H19.9923C21.373 17.7443 22.4923 18.8636 22.4923 20.2443V20.9247H6.77063V20.2443Z" fill="white" stroke="#27307D"/>
<path d="M0 12.2803H2.18042C3.28499 12.2803 4.18042 13.1757 4.18042 14.2803V18.9024C4.18042 20.007 5.07585 20.9024 6.18042 20.9024H6.53191" stroke="#27307D"/>
<path d="M29.5244 12.2803H27.344C26.2394 12.2803 25.344 13.1757 25.344 14.2803V18.9024C25.344 20.007 24.4486 20.9024 23.344 20.9024H22.9925" stroke="#27307D"/>
<path d="M7.31567 28.48C7.92532 27.4349 10.242 25.3447 14.6314 25.3447" stroke="#27307D"/>
<path d="M21.9473 28.48C21.3376 27.4349 19.021 25.3447 14.6315 25.3447" stroke="#27307D"/>
<circle cx="7.31595" cy="29.7854" r="1.06766" stroke="#27307D"/>
<circle cx="14.6314" cy="29.7854" r="1.06766" stroke="#27307D"/>
<circle cx="21.9471" cy="29.7854" r="1.06766" stroke="#27307D"/>
<path d="M7.68643 4.02555C8.1433 1.9658 9.96985 0.5 12.0797 0.5H16.8997C18.9552 0.5 20.7495 1.8929 21.2592 3.88427L22.3552 8.16673L22.3883 10.1053C22.4407 13.1791 19.9633 15.6991 16.8891 15.6991H12.3073C9.30633 15.6991 6.85932 13.2935 6.80813 10.293L6.77157 8.15013L7.68643 4.02555Z" stroke="#27307D"/>
</svg>
