<svg width="310" height="277" viewBox="0 0 310 277" fill="none" xmlns="http://www.w3.org/2000/svg">
<path opacity="0.36" d="M89.7792 87.6431C94.9793 98.9908 97.8998 109.728 94.0708 114.516C93.848 114.797 93.6008 115.058 93.3323 115.296C90.3812 117.893 84.5819 117.952 74.7893 114.084C48.7276 103.79 47.4792 86.0213 42.2178 68.6598C37.0233 51.5269 18.8704 54.4251 18.4078 54.5003C60.7023 39.7779 80.9564 68.4062 89.7792 87.6431Z" fill="url(#paint0_linear_1_34)"/>
<path d="M94.0702 114.516C93.8473 114.798 93.6002 115.059 93.3317 115.297C88.4354 112.348 79.0607 106.1 74.641 99.075C72.5565 95.7615 70.8036 92.0356 68.9448 88.0952C65.4391 80.6406 61.8052 72.9352 55.4653 67.0246L56.1732 66.261C62.6579 72.3138 66.3309 80.1111 69.8812 87.6549C71.7232 91.5563 73.4622 95.2655 75.5188 98.5232C79.8271 105.37 89.2993 111.646 94.0702 114.516Z" fill="white"/>
<path opacity="0.36" d="M85.2603 92.2766C84.9538 93.0346 84.7559 93.461 84.7336 93.5083C84.6528 93.0931 84.5748 92.6723 84.4967 92.2766C81.0105 74.4637 76.3622 72.6021 62.409 57.0186C48.1547 41.0812 56.3534 26.2334 56.3534 26.2334C104.127 40.0334 88.4985 84.3148 85.2603 92.2766Z" fill="url(#paint1_linear_1_34)"/>
<path d="M85.2594 92.2778C84.9528 93.0358 84.755 93.4622 84.7327 93.5096C84.6519 93.0944 84.5738 92.6736 84.4958 92.2778C86.0425 76.8783 76.7514 58.8062 73.8309 55.5652C70.8129 52.2072 68.9513 47.5895 68.2574 45.8478C68.1404 45.5691 68.0289 45.2905 67.9927 45.2208L68.6671 44.8418C68.7256 44.9449 68.8036 45.1372 68.9764 45.5608C69.6619 47.2635 71.4845 51.7919 74.4189 55.0357C78.1002 59.1573 86.6723 77.3158 85.2594 92.2778Z" fill="white"/>
<g style="mix-blend-mode:hard-light">
<path d="M91.2283 1.37917e-05H294.94C296.753 -0.00255026 298.55 0.352428 300.226 1.04465C301.902 1.73688 303.425 2.75277 304.708 4.03421C305.992 5.31565 307.01 6.83751 307.704 8.51274C308.399 10.188 308.756 11.9837 308.756 13.7972V72.0876C308.757 73.9006 308.4 75.6958 307.706 77.3708C307.013 79.0458 305.996 80.5677 304.714 81.8495C303.431 83.1313 301.909 84.1479 300.234 84.8413C298.559 85.5346 296.764 85.8911 294.951 85.8904H91.2395C87.5803 85.8904 84.0709 84.4368 81.4834 81.8493C78.8959 79.2618 77.4423 75.7525 77.4423 72.0932V13.7972C77.4423 10.1399 78.8944 6.63221 81.4795 4.04505C84.0645 1.4579 87.571 0.0029686 91.2283 1.37917e-05Z" fill="#F4F4F4"/>
</g>
<path d="M176.274 186.283H89.5452V189.184H176.274V186.283Z" fill="white"/>
<path d="M153.955 172.745H89.5452V175.646H153.955V172.745Z" fill="url(#paint2_linear_1_34)"/>
<path d="M159.142 179.514H89.5453V182.415H159.142V179.514Z" fill="url(#paint3_linear_1_34)"/>
<path d="M134.702 186.283H89.5452V189.184H134.702V186.283Z" fill="url(#paint4_linear_1_34)"/>
<g style="mix-blend-mode:hard-light">
<path d="M46.7135 90.5381H171.605C174.32 90.5381 176.924 91.6168 178.844 93.5369C180.764 95.457 181.843 98.0612 181.843 100.777V213.411C181.843 216.126 180.765 218.73 178.845 220.649C176.925 222.569 174.322 223.647 171.607 223.647H46.7135C43.9988 223.647 41.3953 222.569 39.4758 220.649C37.5562 218.73 36.4778 216.126 36.4778 213.411V100.777C36.4774 99.4322 36.7419 98.1009 37.2561 96.8587C37.7704 95.6165 38.5243 94.4878 39.4748 93.5371C40.4253 92.5863 41.5538 91.8321 42.7958 91.3175C44.0379 90.8029 45.3691 90.5381 46.7135 90.5381Z" fill="#F4F4F4"/>
</g>
<path d="M90.3512 130.857C92.1023 125.974 91.9303 120.607 89.87 115.846C87.8098 111.085 84.0156 107.286 79.2572 105.219C78.8419 105.041 78.4211 104.874 77.9836 104.718C74.1753 103.355 70.0484 103.153 66.125 104.136C62.2016 105.119 58.6578 107.243 55.9419 110.24C53.2259 113.238 51.4598 116.973 50.8669 120.974C50.274 124.975 50.8809 129.062 52.6109 132.718C54.3409 136.374 57.1163 139.435 60.586 141.514C64.0557 143.592 68.0639 144.595 72.1037 144.396C76.1435 144.196 80.0334 142.803 83.2815 140.393C86.5295 137.983 88.9898 134.663 90.3512 130.855V130.857ZM65.9337 138.407C64.0382 137.729 62.2948 136.684 60.803 135.332C59.3113 133.981 58.1003 132.348 57.2394 130.529C56.3785 128.709 55.8844 126.737 55.7853 124.727C55.6863 122.716 55.9842 120.706 56.6622 118.81C57.3401 116.915 58.3848 115.171 59.7365 113.68C61.0882 112.188 62.7205 110.977 64.5402 110.116C66.3599 109.255 68.3314 108.761 70.342 108.662C72.3526 108.563 74.3631 108.861 76.2586 109.539C76.5847 109.656 76.9023 109.781 77.2145 109.918C78.5983 110.514 79.8851 111.315 81.0323 112.292C83.7726 114.614 85.6101 117.826 86.224 121.365C86.8379 124.904 86.1893 128.546 84.3914 131.656C82.5934 134.766 79.7604 137.145 76.3869 138.379C73.0134 139.613 69.3137 139.623 65.9337 138.407Z" fill="#C9CBDE"/>
<path d="M66.5268 109.337L65.0025 104.452C60.9427 105.723 57.3795 108.227 54.8081 111.616C52.2366 115.005 50.7845 119.111 50.6535 123.363L55.77 123.513C55.8681 120.326 56.9567 117.248 58.8844 114.707C60.8121 112.167 63.4833 110.29 66.5268 109.337Z" fill="#27307D"/>
<path d="M77.2145 109.918L79.2572 105.222C78.842 105.044 78.4212 104.876 77.9837 104.72C73.8034 103.212 69.2442 103.114 65.003 104.442L66.5273 109.327C69.7062 108.331 73.1235 108.401 76.2587 109.527C76.5847 109.656 76.8996 109.781 77.2145 109.918Z" fill="#464E90"/>
<path d="M84.3492 108.393C82.8181 107.09 81.1023 106.021 79.2578 105.222L77.2151 109.917C78.5989 110.514 79.8857 111.314 81.0329 112.292L84.3492 108.393Z" fill="#636F9F"/>
<path d="M155.435 172.368H148.34V196.674H155.435V172.368Z" fill="#9397BE"/>
<path d="M144.882 179.188H137.787V196.674H144.882V179.188Z" fill="#7D82B1"/>
<path d="M165.664 161.104H158.569V196.675H165.664V161.104Z" fill="#A8ACCB"/>
<path d="M164.523 143.333L164.397 142.567L145.67 145.632L139.598 158.574L119.408 159.945L112.868 169.593L97.4318 169.208L97.4122 169.985L113.272 170.378L119.84 160.692L140.108 159.318L146.2 146.334L164.523 143.333Z" fill="#636F9F"/>
<path d="M141.635 110.943H161.816C162.428 110.943 163.014 110.7 163.447 110.268C163.88 109.836 164.123 109.25 164.124 108.638C164.124 108.027 163.881 107.44 163.448 107.007C163.015 106.574 162.428 106.331 161.816 106.331H141.635C141.332 106.331 141.032 106.391 140.752 106.507C140.472 106.623 140.218 106.793 140.004 107.007C139.79 107.221 139.62 107.476 139.505 107.756C139.389 108.036 139.33 108.336 139.33 108.638C139.33 109.25 139.573 109.836 140.005 110.268C140.437 110.7 141.024 110.943 141.635 110.943Z" fill="#525997"/>
<path d="M141.635 118.994H161.816C162.428 118.994 163.015 118.751 163.448 118.318C163.881 117.885 164.124 117.298 164.124 116.686C164.124 116.074 163.881 115.487 163.448 115.055C163.015 114.622 162.428 114.379 161.816 114.379H141.635C141.023 114.38 140.437 114.623 140.005 115.056C139.573 115.488 139.33 116.075 139.33 116.686C139.33 117.298 139.573 117.884 140.005 118.317C140.437 118.75 141.023 118.993 141.635 118.994Z" fill="#636F9F"/>
<path d="M141.635 127.043H161.816C162.428 127.043 163.015 126.799 163.448 126.367C163.881 125.934 164.124 125.347 164.124 124.735C164.124 124.123 163.881 123.536 163.448 123.104C163.015 122.671 162.428 122.428 161.816 122.428H141.635C141.023 122.428 140.437 122.672 140.005 123.105C139.573 123.537 139.33 124.124 139.33 124.735C139.33 125.347 139.573 125.933 140.005 126.366C140.437 126.798 141.023 127.042 141.635 127.043Z" fill="#636F9F"/>
<path d="M105.106 114.934H93.5633V114.491H104.922L111 108.416H118.443V108.859H111.184L105.106 114.934Z" fill="#636F9F"/>
<path d="M116.047 135.096H101.191L96.3783 130.284L96.6932 129.969L101.375 134.653H116.047V135.096Z" fill="#636F9F"/>
<path d="M127.494 111.348H112.097V113.237H127.494V111.348Z" fill="#FADD93"/>
<path d="M119.8 130.611H107.404V132.501H119.8V130.611Z" fill="#FADD93"/>
<path opacity="0.42" d="M3.93132 139.674C7.81048 137.818 11.6701 150.167 11.6701 150.167C18.2636 158.878 27.4766 147.288 26.5765 160.313C24.9992 183.1 52.8053 167.478 39.9779 191.268C27.1505 215.059 51.3061 204.72 43.322 223.904C35.338 243.088 45.6824 265.984 33.6882 256.565C33.6882 256.565 23.1265 233.404 12.2303 226.239C1.33407 219.074 18.7568 210.572 15.3486 200.838C10.3966 186.701 -1.52792 187.255 7.07199 172.065C15.6719 156.874 -9.25279 145.97 3.93132 139.674Z" fill="url(#paint5_linear_1_34)"/>
<path d="M37.4995 247.839C32.2994 244.183 26.2131 218.698 25.8509 203.53C25.6642 195.755 23.3679 192.517 21.3391 189.661C19.4023 186.927 17.7163 184.569 18.7029 179.152C20.5672 168.799 15.6653 164.329 15.6179 164.287L16.1753 163.641C16.3926 163.83 21.4952 168.442 19.5417 179.302C18.6276 184.366 20.1297 186.481 22.0302 189.162C24.0255 191.974 26.5085 195.474 26.7008 203.511C27.091 219.799 33.3138 243.857 37.9844 247.143L37.4995 247.839Z" fill="white"/>
<path d="M39.4416 249.728C38.7025 249.722 37.966 249.642 37.2429 249.489C35.2392 249.082 33.9239 248.028 33.3414 246.345C31.948 242.338 35.189 235.825 37.8253 232.69C37.8671 232.637 42.2841 227.245 41.8103 219.771C41.7295 218.519 41.6013 217.36 41.4871 216.337C41.1555 213.381 40.9158 211.243 42.1838 209.816C43.2985 208.557 45.4666 208.011 49.4126 207.994C56.3293 207.96 59.0687 205.098 61.2646 202.794C62.1982 201.818 63.0816 200.893 64.1517 200.311C67.6017 198.427 71.2524 198.148 72.838 199.65C73.5904 200.364 74.2314 201.76 72.9774 204.366C71.8404 206.748 70.3634 208.267 69.1762 209.465C67.5794 211.096 66.5232 212.171 67.0722 214.317C67.2004 214.821 67.3509 215.329 67.4986 215.841C68.5659 219.489 69.7754 223.625 63.5303 226.431C62.2066 227.027 60.9999 227.501 59.9326 227.919C55.5741 229.63 52.9434 230.661 49.9727 236.932C49.3987 238.147 48.8915 239.295 48.401 240.407C46.0518 245.715 44.2933 249.725 39.4416 249.728ZM64.5586 201.06C63.6055 201.582 62.8057 202.418 61.8805 203.387C59.5703 205.806 56.6944 208.816 49.4098 208.852C45.787 208.869 43.7499 209.343 42.8219 210.385C41.8076 211.525 42.0277 213.503 42.3343 216.237C42.4513 217.271 42.5823 218.441 42.6631 219.715C43.1563 227.543 38.6697 233.011 38.483 233.239C35.8746 236.346 32.9095 242.53 34.1551 246.058C34.6345 247.435 35.7324 248.288 37.4184 248.644C43.2985 249.831 44.9232 246.153 47.6124 240.055C48.1056 238.941 48.6156 237.781 49.1952 236.558C52.3108 229.981 55.2202 228.839 59.6205 227.111C60.6766 226.699 61.8722 226.228 63.1791 225.642C68.7387 223.134 67.7383 219.709 66.6737 216.075C66.5232 215.557 66.37 215.039 66.239 214.526C65.5702 211.912 66.8911 210.563 68.5604 208.858C69.7642 207.632 71.127 206.241 72.2026 203.989C72.76 202.808 73.2337 201.203 72.2444 200.269C70.9458 199.037 67.6435 199.377 64.5642 201.058L64.5586 201.06Z" fill="#FDFDFE"/>
<path d="M37.3306 254.691L36.4723 254.647C36.5141 253.839 37.587 234.822 45.2338 229.257C53.6108 223.151 56.2526 216.588 57.5094 212.185C58.992 206.993 66.5357 205.608 66.8562 205.553L67.0067 206.389C66.9314 206.403 59.6692 207.74 58.3371 212.411C57.0441 216.939 54.3325 223.681 45.741 229.942C38.4453 235.279 37.3501 254.488 37.3306 254.691Z" fill="url(#paint6_linear_1_34)"/>
<path opacity="0.42" d="M54.7953 158.853C49.3667 156.994 50.4953 167.453 48.2019 175.192C45.9084 182.931 22.692 178.569 32.4372 197.948C42.1825 217.327 20.1114 204.43 26.7049 221.343C33.2983 238.256 27.2762 256.342 34.4437 251.741C41.6112 247.14 38.4677 225.844 45.9223 223.316C53.3768 220.789 54.5919 217.832 47.2098 210.954C39.8277 204.076 66.547 197.246 59.9536 183.365C53.3601 169.485 61.0655 161.004 54.7953 158.853Z" fill="url(#paint7_linear_1_34)"/>
<path d="M37.7668 250.927C37.084 248.034 31.2569 222.555 36.6939 219.476C41.4871 216.761 41.37 206.205 40.6232 196.234C39.9599 187.409 51.2936 183.284 51.7702 183.114L52.0489 183.922C51.9374 183.964 40.8517 188.002 41.4592 196.184C42.2283 206.423 42.3092 217.285 37.0979 220.239C32.968 222.577 36.7719 243.054 38.5833 250.746L37.7668 250.927Z" fill="white"/>
<path d="M50.1055 241.859L42.3555 271.254H25.0415L17.2943 241.859H50.1055Z" fill="#FADD93"/>
<path d="M98.5634 203.669H74.1515V205.118H98.5634V203.669Z" fill="#DCD0C8"/>
<path d="M77.4251 274.793H79.5625L79.5625 208.892H77.4251L77.4251 274.793Z" fill="#6D6865"/>
<path d="M111.711 203.257H94.7422V205.327H111.711V203.257Z" fill="#C6BBB5"/>
<path d="M106.438 185.603H100.011V205.118H106.438V185.603Z" fill="#948C87"/>
<path d="M159.41 205.143H65.3965V208.888H159.41V205.143Z" fill="#A98E75"/>
<path d="M47.3603 182.463C47.3603 182.463 46.332 196.884 49.1494 198.609C50.9134 199.691 57.9528 203.347 57.741 204.021C57.5292 204.696 53.7698 210.105 53.7698 210.105C53.7698 210.105 40.2513 201.204 39.8166 198.4C39.3902 195.661 40.4826 177.288 42.3386 176.441C43.732 175.808 44.4649 176.332 46.2205 177.633C48.6729 179.459 47.3603 182.463 47.3603 182.463Z" fill="#42466C"/>
<path d="M63.9831 265.792C63.9831 265.792 63.5623 268.712 63.5094 269.136C63.4564 269.559 58.8332 268.877 58.8332 268.877L58.4598 265.404C58.4598 265.404 63.4035 265.382 63.9831 265.792Z" fill="#454971"/>
<path d="M63.5593 268.779C63.5593 268.779 65.0224 270.537 66.4408 271.287C67.8593 272.036 70.0831 272.36 70.9219 273.151C71.5266 273.708 73.1234 276.189 67.2406 276.138C61.3578 276.088 58.5181 276.49 57.8883 275.542C57.2585 274.595 58.7995 268.575 58.7995 268.575C58.7995 268.575 60.1929 269.082 63.5593 268.779Z" fill="#2E3048"/>
<path d="M93.6017 265.822C93.6017 265.822 93.1837 268.74 93.1308 269.166C93.0778 269.593 88.4546 268.907 88.4546 268.907L88.0784 265.435C88.0784 265.435 93.0249 265.41 93.6017 265.822Z" fill="#454971"/>
<path d="M93.178 268.806C93.178 268.806 94.6438 270.564 96.0623 271.314C97.4807 272.064 102.692 272.707 103.531 273.504C104.135 274.062 105.142 276.383 96.8593 276.166C90.9765 276.013 88.1395 276.514 87.5097 275.569C86.8799 274.625 88.421 268.603 88.421 268.603C88.421 268.603 89.7336 269.143 93.178 268.806Z" fill="#2E3048"/>
<path d="M49.0698 215.396C49.0698 215.396 65.8767 218.239 69.675 218.835C73.4734 219.432 94.0563 224.554 96.6313 226.114C98.6795 227.357 95.5556 257.198 94.8255 268.582H86.7188L86.1308 234.424C76.4023 234.667 69.4577 232.15 62.371 233.226C55.2843 234.302 49.3791 235.832 44.8785 229.79C44.8785 229.796 44.7113 216.715 49.0698 215.396Z" fill="#2E3048"/>
<path d="M65.6386 268.609L57.7382 268.118L56.9663 234.424C52.7861 234.53 51.3426 234.265 47.9539 233.866L41.5723 219.038C47.1625 220.153 65.0785 224.673 67.4667 226.122C69.515 227.357 66.3688 257.222 65.6386 268.609Z" fill="#2E3048"/>
<path d="M56.8064 152.388C56.8064 152.388 62.9679 150.685 65.32 155.47C67.672 160.255 66.6047 169.32 63.5002 170.173C60.3958 171.026 55.9286 170.045 54.6383 167.066C53.3481 164.087 52.3226 159.859 52.6291 157.12C52.9356 154.381 55.1623 153.051 56.8064 152.388Z" fill="#DBA585"/>
<path d="M61.891 169.213C61.891 169.213 61.8241 172.853 62.2226 173.628C62.6211 174.402 53.645 174.21 53.645 174.21C53.645 174.21 55.0579 169.84 54.2581 166.128C53.4583 162.416 61.891 169.213 61.891 169.213Z" fill="#DBA585"/>
<path d="M53.7675 164.755C53.7675 164.755 54.2468 165.734 56.571 165.575C58.8951 165.416 61.9634 162.612 62.9499 162.362C63.9364 162.111 63.9949 161.551 63.9949 161.551L64.516 162.479L65.5276 162.632C65.5276 162.632 64.8421 159.82 66.3385 158.831C67.835 157.841 65.6642 149.869 58.0842 151.791C58.0842 151.791 52.2989 152.853 52.232 156.083C52.1651 159.313 52.6528 163.033 53.7675 164.755Z" fill="#3E4148"/>
<path d="M62.688 173.539C62.688 173.539 62.6629 172.056 61.9913 171.914C61.3197 171.772 54.9325 170.894 54.1076 171.217L53.7537 173.168C53.7537 173.168 55.3505 174.152 62.688 173.539Z" fill="#DCD0C8"/>
<path d="M64.542 160.876C64.3693 159.661 62.9898 158.265 62.1984 160.157C61.4069 162.05 62.7334 164.806 63.6196 164.658C64.5058 164.51 64.7761 162.526 64.542 160.876Z" fill="#DBA585"/>
<path d="M89.4545 191.045C89.4927 191.066 89.4986 191.068 89.4545 191.045V191.045Z" fill="#363957"/>
<path d="M55.0111 153.254C55.0111 153.254 47.4869 152.903 53.7014 164.63L55.0111 153.254Z" fill="#3E4148"/>
<path d="M38.271 272.605L38.8312 274.176L62.4461 266.858L61.3146 263.676L38.271 272.605Z" fill="#8C8581"/>
<path d="M63.2525 240.064H60.5688V265.739H63.2525V240.064Z" fill="#8C8581"/>
<path d="M69.8291 238.702H53.9975V240.215H69.8291V238.702Z" fill="#5D5955"/>
<path d="M85.762 272.606L85.2019 274.177L61.5897 266.859L62.6264 263.476L85.762 272.606Z" fill="#8C8581"/>
<path d="M69.1251 274.01V275.838L61.5897 266.859L62.6264 263.476L69.1251 274.01Z" fill="#8C8581"/>
<path d="M87.9696 274.793C87.9696 275.23 87.8402 275.656 87.5977 276.019C87.3552 276.382 87.0105 276.665 86.6072 276.832C86.2039 276.999 85.7601 277.043 85.3319 276.958C84.9038 276.873 84.5105 276.662 84.2019 276.354C83.8932 276.045 83.683 275.652 83.5978 275.224C83.5127 274.796 83.5564 274.352 83.7234 273.948C83.8905 273.545 84.1734 273.2 84.5363 272.958C84.8993 272.715 85.326 272.586 85.7625 272.586C86.3479 272.586 86.9093 272.819 87.3232 273.232C87.7371 273.646 87.9696 274.208 87.9696 274.793Z" fill="#B9AFAA"/>
<path d="M69.3124 274.793C69.3124 275.23 69.183 275.656 68.9404 276.019C68.6979 276.382 68.3532 276.665 67.9499 276.832C67.5466 276.999 67.1028 277.043 66.6747 276.958C66.2466 276.873 65.8533 276.662 65.5446 276.354C65.236 276.045 65.0258 275.652 64.9406 275.224C64.8554 274.796 64.8991 274.352 65.0662 273.948C65.2332 273.545 65.5161 273.2 65.8791 272.958C66.2421 272.715 66.6688 272.586 67.1053 272.586C67.6907 272.586 68.252 272.819 68.666 273.232C69.0799 273.646 69.3124 274.208 69.3124 274.793Z" fill="#B9AFAA"/>
<path d="M40.4772 274.793C40.4772 275.23 40.3478 275.656 40.1052 276.019C39.8627 276.382 39.518 276.665 39.1147 276.832C38.7114 276.999 38.2677 277.043 37.8395 276.958C37.4114 276.873 37.0181 276.662 36.7094 276.354C36.4008 276.045 36.1906 275.652 36.1054 275.224C36.0202 274.796 36.0639 274.352 36.231 273.948C36.398 273.545 36.6809 273.2 37.0439 272.958C37.4069 272.715 37.8336 272.586 38.2701 272.586C38.8555 272.586 39.4168 272.819 39.8308 273.232C40.2447 273.646 40.4772 274.208 40.4772 274.793Z" fill="#B9AFAA"/>
<path d="M77.9018 238.701H46.1328C45.3731 238.701 44.6444 238.399 44.1071 237.862C43.5699 237.325 43.2681 236.596 43.2681 235.836C43.2681 235.077 43.5699 234.348 44.1071 233.811C44.6444 233.273 45.3731 232.972 46.1328 232.972H77.9018C78.6616 232.972 79.3903 233.273 79.9275 233.811C80.4648 234.348 80.7666 235.077 80.7666 235.836C80.7666 236.596 80.4648 237.325 79.9275 237.862C79.3903 238.399 78.6616 238.701 77.9018 238.701Z" fill="#DCD0C8"/>
<path d="M147.38 208.889H145.242V274.79H147.38V208.889Z" fill="#6D6865"/>
<path d="M127.705 155.863H78.7472C76.9449 155.863 75.4839 157.324 75.4839 159.127V191.74C75.4839 193.542 76.9449 195.003 78.7472 195.003H127.705C129.507 195.003 130.968 193.542 130.968 191.74V159.127C130.968 157.324 129.507 155.863 127.705 155.863Z" fill="#B2A8A3"/>
<path d="M128.793 157.978H77.6564V188.869H128.793V157.978Z" fill="#F4F6FF"/>
<path d="M126.524 191.787C126.524 192.664 125.602 193.378 124.462 193.378C123.322 193.378 122.402 192.664 122.402 191.787C122.402 190.909 123.325 190.195 124.462 190.195C125.599 190.195 126.524 190.906 126.524 191.787Z" fill="#8C8480"/>
<path d="M114.714 205.193V204.496C114.714 204.496 113.735 200.163 106.808 200.163C99.8797 200.163 100.03 205.193 100.03 205.193H114.714Z" fill="#948C87"/>
<path d="M99.9376 200.808C99.9376 200.808 101.442 200.691 101.991 200.36C102.54 200.028 105.843 197.807 106.617 198.164C107.392 198.52 112.548 200.098 112.369 200.85C112.191 201.603 111.712 201.533 111.349 201.407C110.987 201.282 107.242 200.488 106.91 200.622C106.91 200.622 110.589 201.962 110.603 202.94C110.616 203.918 109.833 204.161 109.488 204.529C109.142 204.896 108.719 205.819 107.774 205.889C106.829 205.958 102.2 204.35 101.25 204.278C100.3 204.205 98.5359 204.336 98.4161 204.18C98.2962 204.024 99.9376 200.808 99.9376 200.808Z" fill="#DBA585"/>
<path d="M72.5435 175.593C67.7447 174.757 62.6951 173.539 62.6951 173.539L53.7691 173.174C53.7691 173.174 45.5677 174.98 42.3435 176.437C42.0369 176.576 42.0369 183.752 41.1953 185.633L43.8734 191.282C43.8734 191.282 45.42 202.471 45.7405 207.445C45.8882 209.73 45.3253 229.525 45.3253 229.525C45.3253 229.525 46.1279 229.918 52.2253 230.592C58.3227 231.266 73.5578 230.35 73.6554 229.631C73.7529 228.912 70.7042 202.808 70.5704 201.457C70.3642 199.383 71.1696 189.797 71.1696 189.797C72.3177 191.341 75.2466 198.31 78.3009 201.629C80.0956 203.58 88.9881 204.776 90.6657 204.829C94.3136 204.951 100.977 205.665 101.166 205.325C101.319 205.11 101.743 199.414 101.328 199.275C100.963 199.155 88.6007 198.438 85.4433 196.766C84.284 196.151 80.8229 188.601 80.8229 188.601C80.8229 188.601 75.1881 176.78 72.5435 175.593Z" fill="#42466C"/>
<path d="M40.7848 193.136H54.0859C55.7518 193.136 57.3495 193.798 58.5275 194.976C59.7055 196.153 60.3672 197.751 60.3672 199.417V222.678C60.3672 224.343 59.7058 225.94 58.5283 227.118C57.3508 228.295 55.7539 228.957 54.0887 228.957H40.782C39.1168 228.957 37.5198 228.295 36.3424 227.118C35.1649 225.94 34.5034 224.343 34.5034 222.678V199.417C34.5034 197.751 35.1652 196.153 36.3432 194.976C37.5212 193.798 39.1188 193.136 40.7848 193.136Z" fill="#DCD0C8"/>
<path d="M55.7855 237.275C51.9705 237.275 48.8772 235.996 46.5893 233.468C41.4198 227.761 42.3478 217.726 42.3896 217.305C42.4428 216.939 42.6351 216.607 42.9266 216.378C43.218 216.15 43.5863 216.042 43.9549 216.078C44.3236 216.114 44.6642 216.29 44.9062 216.571C45.1482 216.851 45.2729 217.214 45.2544 217.584C45.2405 217.695 44.4184 226.794 48.7267 231.54C50.4712 233.46 52.7786 234.396 55.7827 234.396C56.1641 234.396 56.5299 234.548 56.7995 234.817C57.0692 235.087 57.2207 235.453 57.2207 235.834C57.2207 236.216 57.0692 236.581 56.7995 236.851C56.5299 237.121 56.1641 237.272 55.7827 237.272L55.7855 237.275Z" fill="#DCD0C8"/>
<path d="M95.7943 160.439H81.7519C81.4933 160.439 81.2837 160.649 81.2837 160.908V161.604C81.2837 161.863 81.4933 162.072 81.7519 162.072H95.7943C96.0529 162.072 96.2625 161.863 96.2625 161.604V160.908C96.2625 160.649 96.0529 160.439 95.7943 160.439Z" fill="#DEDFE6"/>
<path d="M81.749 163.938H95.7943C95.9184 163.938 96.0375 163.988 96.1253 164.076C96.2131 164.163 96.2624 164.282 96.2624 164.407V165.103C96.2624 165.228 96.2131 165.347 96.1253 165.434C96.0375 165.522 95.9184 165.572 95.7943 165.572H81.749C81.6249 165.572 81.5058 165.522 81.418 165.434C81.3302 165.347 81.2809 165.228 81.2809 165.103V164.404C81.2809 164.343 81.293 164.282 81.3166 164.225C81.3401 164.168 81.3746 164.117 81.4182 164.074C81.4617 164.031 81.5133 163.996 81.5701 163.973C81.6269 163.95 81.6877 163.938 81.749 163.938Z" fill="#DEDFE6"/>
<path d="M82.8555 167.954H94.6908C95.1084 167.954 95.5089 168.12 95.8042 168.415C96.0995 168.71 96.2653 169.111 96.2653 169.528V184.839C96.2653 185.256 96.0998 185.655 95.805 185.95C95.5102 186.245 95.1105 186.411 94.6936 186.411H82.8583C82.4407 186.411 82.0402 186.245 81.7449 185.949C81.4497 185.654 81.2838 185.254 81.2838 184.836V169.526C81.2838 169.109 81.4494 168.709 81.7441 168.414C82.0389 168.119 82.4387 167.954 82.8555 167.954Z" fill="#DEDFE6"/>
<path d="M123.472 160.439H101.774C100.4 160.439 99.2856 161.554 99.2856 162.928V183.923C99.2856 185.298 100.4 186.412 101.774 186.412H123.472C124.846 186.412 125.96 185.298 125.96 183.923V162.928C125.96 161.554 124.846 160.439 123.472 160.439Z" fill="#DEDFE6"/>
<path d="M146.477 34.8926C145.195 31.1178 143.175 27.6356 140.535 24.6492C137.894 21.6627 134.686 19.2315 131.096 17.4974C127.507 15.7633 123.608 14.7609 119.627 14.5485C115.647 14.3362 111.663 14.9182 107.91 16.2606C104.156 17.603 100.707 19.679 97.7641 22.3676C94.8208 25.0563 92.442 28.3037 90.7663 31.9209C89.0906 35.538 88.1515 39.4525 88.0038 43.4361C87.856 47.4198 88.5025 51.3931 89.9056 55.1244C90.1313 55.7626 90.3794 56.3868 90.6441 56.9971C93.7668 64.124 99.5327 69.7614 106.728 72.7227C113.924 75.684 121.987 75.7383 129.222 72.8741C136.456 70.0098 142.298 64.4505 145.516 57.3663C148.734 50.2821 149.079 42.2256 146.477 34.8926ZM125.771 66.2185C120.39 68.1518 114.476 67.964 109.228 65.6931C103.981 63.4223 99.7955 59.2389 97.5218 53.993C97.3239 53.536 97.1372 53.065 96.9644 52.5996C95.464 48.4047 95.2413 43.859 96.3244 39.5375C97.4075 35.2159 99.7478 31.3126 103.049 28.3212C106.351 25.3297 110.465 23.3845 114.872 22.7315C119.28 22.0786 123.781 22.7472 127.808 24.6527C131.836 26.5583 135.207 29.6153 137.497 33.4372C139.786 37.259 140.891 41.6739 140.672 46.1237C140.452 50.5735 138.918 54.8583 136.263 58.4361C133.608 62.014 129.952 64.7242 125.757 66.2241L125.771 66.2185Z" fill="#636F9F"/>
<path d="M96.6818 38.2895L89.5032 36.0601C91.3716 30.0963 95.0502 24.862 100.028 21.0837C105.007 17.3055 111.038 15.1706 117.284 14.9756L117.51 22.4998C112.829 22.646 108.31 24.2444 104.578 27.0735C100.846 29.9026 98.0868 33.8223 96.6818 38.2895Z" fill="#20157D"/>
<path d="M97.5214 53.9927L90.6381 56.9912C90.3733 56.3809 90.1253 55.7567 89.8996 55.1186C87.6904 48.9753 87.5524 42.2779 89.5067 36.0488L96.6853 38.2782C95.2154 42.9472 95.3132 47.9689 96.964 52.577C97.1479 53.0647 97.3347 53.5357 97.5214 53.9927Z" fill="#C9CBDE"/>
<path d="M95.2921 64.4713C93.3792 62.2222 91.8108 59.7015 90.6382 56.9917L97.5215 53.9932C98.4032 56.0246 99.5798 57.9148 101.013 59.6029L95.2921 64.4713Z" fill="#777DAD"/>
<path d="M163.674 36.7234H158.354V74.6148H163.674V36.7234Z" fill="#DEDEDE"/>
<path d="M176.88 44.4238H171.56V74.6155H176.88V44.4238Z" fill="#DEDEDE"/>
<path d="M190.092 38.7568H184.772V74.6139H190.092V38.7568Z" fill="#DEDEDE"/>
<path d="M203.302 49.9441H197.982V74.6152H203.302V49.9441Z" fill="#DEDEDE"/>
<path d="M216.509 39.9202H211.19V74.6152H216.509V39.9202Z" fill="#DEDEDE"/>
<path d="M229.72 34.6895H224.4V74.6152H229.72V34.6895Z" fill="#DEDEDE"/>
<path d="M242.928 32.5098H237.608V74.6148H242.928V32.5098Z" fill="#DEDEDE"/>
<path d="M163.674 50.8408H158.354V74.6146H163.674V50.8408Z" fill="#FADD93"/>
<path d="M176.88 55.6738H171.56V74.6154H176.88V55.6738Z" fill="#FADD93"/>
<path d="M190.092 52.1182H184.773V74.6156H190.092V52.1182Z" fill="#FADD93"/>
<path d="M203.302 59.1379H197.982V74.6155H203.302V59.1379Z" fill="#FADD93"/>
<path d="M216.509 52.8467H211.189V74.614H216.509V52.8467Z" fill="#FADD93"/>
<path d="M229.72 49.5664H224.4V74.6137H229.72V49.5664Z" fill="#FADD93"/>
<path d="M242.928 48.2002H237.608V74.6158H242.928V48.2002Z" fill="#FADD93"/>
<path d="M257.504 36.7234H252.184V74.6148H257.504V36.7234Z" fill="#DEDEDE"/>
<path d="M270.712 44.4238H265.393V74.6155H270.712V44.4238Z" fill="#DEDEDE"/>
<path d="M283.92 38.7568H278.601V74.6139H283.92V38.7568Z" fill="#DEDEDE"/>
<path d="M297.133 49.9441H291.813V74.6152H297.133V49.9441Z" fill="#DEDEDE"/>
<path d="M257.504 50.8408H252.184V74.6146H257.504V50.8408Z" fill="#FADD93"/>
<path d="M270.712 55.6738H265.393V74.6154H270.712V55.6738Z" fill="#FADD93"/>
<path d="M283.92 52.1182H278.601V74.6156H283.92V52.1182Z" fill="#FADD93"/>
<path d="M297.133 59.1379H291.813V74.6155H297.133V59.1379Z" fill="#FADD93"/>
<path d="M295.095 18.0059L157.43 18.0059C156.892 18.0059 156.377 17.7924 155.997 17.4125C155.617 17.0325 155.404 16.5172 155.404 15.9799V14.6172C155.404 14.0799 155.617 13.5645 155.997 13.1846C156.377 12.8047 156.892 12.5912 157.43 12.5912L295.095 12.5912C295.632 12.5912 296.146 12.8044 296.526 13.1838C296.905 13.5632 297.118 14.0778 297.118 14.6144V15.9771C297.119 16.2432 297.067 16.5067 296.965 16.7526C296.864 16.9986 296.715 17.2221 296.527 17.4105C296.339 17.5989 296.116 17.7484 295.87 17.8506C295.625 17.9527 295.361 18.0055 295.095 18.0059Z" fill="#7D82B1"/>
<path d="M295.098 27.4502L157.433 27.4502C156.895 27.4502 156.38 27.2367 156 26.8568C155.62 26.4768 155.407 25.9615 155.407 25.4242V24.0698C155.407 23.5325 155.62 23.0172 156 22.6373C156.38 22.2573 156.895 22.0439 157.433 22.0439L295.098 22.0439C295.365 22.0424 295.63 22.0938 295.877 22.1949C296.123 22.2961 296.348 22.4452 296.537 22.6335C296.726 22.8218 296.876 23.0457 296.978 23.2922C297.081 23.5387 297.133 23.803 297.133 24.0698V25.4326C297.131 25.6986 297.078 25.9619 296.975 26.2072C296.872 26.4526 296.722 26.6754 296.533 26.8627C296.344 27.0501 296.12 27.1984 295.874 27.2992C295.628 27.4 295.364 27.4513 295.098 27.4502Z" fill="#D3D5E5"/>
<g style="mix-blend-mode:hard-light">
<path d="M191.216 90.6279H242.865C244.575 90.6279 246.214 91.307 247.423 92.5158C248.632 93.7247 249.311 95.3642 249.311 97.0737V193.718C249.311 195.428 248.632 197.067 247.423 198.276C246.214 199.485 244.575 200.164 242.865 200.164H191.218C189.509 200.164 187.869 199.485 186.661 198.276C185.452 197.067 184.773 195.428 184.773 193.718V97.0793C184.772 96.2325 184.937 95.3937 185.261 94.6111C185.584 93.8284 186.058 93.1172 186.657 92.518C187.255 91.9188 187.966 91.4435 188.748 91.1192C189.53 90.7949 190.369 90.6279 191.216 90.6279Z" fill="#F4F4F4"/>
</g>
<path d="M189.548 155.966H189.267V192.171H189.548V155.966Z" fill="#636F9F"/>
<path d="M203.275 155.966H202.993V192.171H203.275V155.966Z" fill="#636F9F"/>
<path d="M217.001 155.966H216.719V192.171H217.001V155.966Z" fill="#636F9F"/>
<path d="M230.728 155.966H230.446V192.171H230.728V155.966Z" fill="#636F9F"/>
<path d="M244.451 155.966H244.17V192.171H244.451V155.966Z" fill="#636F9F"/>
<path d="M189.409 177.493C189.409 177.493 195.002 182.203 200.405 176.624C205.809 171.045 212.048 169.181 217.56 173.879C223.073 178.577 225.216 172.129 230.728 166.845C236.24 161.562 236.151 158.555 244.313 158.555V192.174H189.414L189.409 177.493Z" fill="#9397BE"/>
<path d="M206.545 152.95H203.134V154.268H206.545V152.95Z" fill="#636F9F"/>
<path d="M193.909 152.95H189.267V154.268H193.909V152.95Z" fill="#636F9F"/>
<path d="M221.064 152.95H216.861V154.268H221.064V152.95Z" fill="#636F9F"/>
<path d="M234.649 152.95H230.446V154.268H234.649V152.95Z" fill="#636F9F"/>
<path d="M244.311 152.95H240.109V154.268H244.311V152.95Z" fill="#636F9F"/>
<path d="M241.912 129.144H223.559V131.465H241.912V129.144Z" fill="url(#paint8_linear_1_34)"/>
<path d="M240.408 138.875H223.559V141.196H240.408V138.875Z" fill="url(#paint9_linear_1_34)"/>
<path d="M238.136 134.012H223.559V136.333H238.136V134.012Z" fill="url(#paint10_linear_1_34)"/>
<path d="M207.103 125.831C207.104 126.466 206.916 127.087 206.563 127.615C206.211 128.143 205.71 128.555 205.123 128.799C204.537 129.042 203.891 129.106 203.268 128.982C202.645 128.859 202.073 128.553 201.624 128.104C201.174 127.656 200.868 127.084 200.744 126.461C200.62 125.838 200.684 125.192 200.926 124.605C201.169 124.019 201.581 123.517 202.109 123.164C202.637 122.811 203.258 122.623 203.893 122.623C204.744 122.623 205.56 122.961 206.162 123.562C206.764 124.164 207.102 124.98 207.103 125.831Z" fill="#636F9F"/>
<path d="M209.682 136.294V142.397C207.854 143.223 205.871 143.651 203.865 143.651C201.859 143.651 199.876 143.223 198.048 142.397V136.294C198.031 135.519 198.169 134.749 198.453 134.028C198.738 133.308 199.164 132.651 199.706 132.097C200.248 131.543 200.895 131.103 201.609 130.803C202.323 130.502 203.09 130.348 203.865 130.348C204.64 130.348 205.407 130.502 206.121 130.803C206.835 131.103 207.482 131.543 208.024 132.097C208.566 132.651 208.992 133.308 209.277 134.028C209.561 134.749 209.699 135.519 209.682 136.294Z" fill="#636F9F"/>
<path d="M203.868 144.033C201.806 144.037 199.767 143.596 197.891 142.74C194.882 141.375 192.432 139.021 190.949 136.069C189.465 133.118 189.036 129.747 189.735 126.518C190.433 123.29 192.216 120.397 194.787 118.323C197.358 116.249 200.562 115.117 203.865 115.117C207.169 115.117 210.373 116.249 212.944 118.323C215.515 120.397 217.298 123.29 217.996 126.518C218.695 129.747 218.266 133.118 216.782 136.069C215.298 139.021 212.848 141.375 209.84 142.74C207.966 143.596 205.929 144.037 203.868 144.033ZM203.868 115.887C200.739 115.888 197.705 116.96 195.27 118.925C192.835 120.891 191.147 123.63 190.485 126.688C189.824 129.746 190.229 132.939 191.635 135.735C193.04 138.53 195.36 140.761 198.208 142.055C199.986 142.859 201.915 143.275 203.867 143.275C205.818 143.275 207.747 142.859 209.525 142.055C212.374 140.761 214.694 138.531 216.099 135.735C217.504 132.94 217.91 129.748 217.248 126.69C216.587 123.632 214.899 120.892 212.465 118.927C210.031 116.961 206.997 115.889 203.868 115.887Z" fill="url(#paint11_linear_1_34)"/>
<path d="M232.546 123.466C230.819 123.466 229.13 122.954 227.694 121.994C226.258 121.035 225.138 119.671 224.477 118.075C223.816 116.479 223.643 114.723 223.98 113.029C224.317 111.335 225.149 109.778 226.37 108.557C227.592 107.336 229.148 106.504 230.842 106.167C232.536 105.83 234.292 106.003 235.888 106.664C237.484 107.325 238.848 108.444 239.808 109.881C240.767 111.317 241.28 113.005 241.28 114.733C241.277 117.048 240.356 119.268 238.718 120.905C237.081 122.542 234.861 123.463 232.546 123.466ZM232.546 107.746C231.164 107.746 229.813 108.155 228.664 108.922C227.514 109.69 226.619 110.781 226.089 112.057C225.56 113.334 225.421 114.739 225.691 116.094C225.96 117.449 226.625 118.694 227.602 119.672C228.579 120.649 229.824 121.315 231.179 121.585C232.534 121.854 233.939 121.716 235.216 121.188C236.493 120.659 237.584 119.763 238.352 118.614C239.12 117.465 239.53 116.115 239.53 114.733C239.527 112.881 238.791 111.106 237.482 109.796C236.173 108.486 234.398 107.749 232.546 107.746Z" fill="#636F9F"/>
<path d="M216.374 97.3245H203.212V99.4229H216.374V97.3245Z" fill="#636F9F"/>
<path d="M216.371 102.73H205.151V104.832H216.371V102.73Z" fill="#636F9F"/>
<path d="M216.371 108.14H198.329V110.238H216.371V108.14Z" fill="#636F9F"/>
<g style="mix-blend-mode:hard-light">
<path d="M295.504 90.4062H255.018C254.121 90.4062 253.393 91.1336 253.393 92.0309V119.963C253.393 120.86 254.121 121.587 255.018 121.587H295.504C296.401 121.587 297.129 120.86 297.129 119.963V92.0309C297.129 91.1336 296.401 90.4062 295.504 90.4062Z" fill="#F4F4F4"/>
</g>
<path d="M271.283 98.6309H257.837C257.335 98.6309 256.928 99.0376 256.928 99.5393V99.9462C256.928 100.448 257.335 100.855 257.837 100.855H271.283C271.785 100.855 272.191 100.448 272.191 99.9462V99.5393C272.191 99.0376 271.785 98.6309 271.283 98.6309Z" fill="url(#paint12_linear_1_34)"/>
<path d="M257.731 93.6016H268.084C268.189 93.6016 268.294 93.6224 268.392 93.6629C268.49 93.7034 268.578 93.7627 268.653 93.8375C268.728 93.9122 268.787 94.001 268.828 94.0987C268.868 94.1964 268.889 94.3012 268.889 94.4069V95.02C268.889 95.1258 268.868 95.2305 268.828 95.3282C268.787 95.4259 268.728 95.5147 268.653 95.5895C268.578 95.6643 268.49 95.7236 268.392 95.7641C268.294 95.8046 268.189 95.8254 268.084 95.8254H257.731C257.518 95.8254 257.314 95.7408 257.163 95.5903C257.013 95.4398 256.928 95.2357 256.928 95.0228V94.4069C256.928 94.3013 256.948 94.1966 256.989 94.0989C257.029 94.0012 257.088 93.9125 257.162 93.8376C257.237 93.7628 257.325 93.7034 257.423 93.6629C257.521 93.6224 257.625 93.6016 257.731 93.6016Z" fill="url(#paint13_linear_1_34)"/>
<path d="M256.928 117.283L265.773 108.438L268.418 111.08L278.124 101.373L282.43 105.682L293.702 94.4121V117.283H256.928Z" fill="#636F9F"/>
<path d="M293.599 117.284V99.7441L281.976 111.37L277.812 107.204L270.87 114.146L265.612 112.056L256.928 117.284H293.599Z" fill="#27307D"/>
<path d="M267.202 269.95C267.202 269.95 263.941 274.529 264.39 275.245C264.838 275.961 268.263 276.081 270.351 275.245C272.438 274.409 272.488 269.05 273.416 266.743C273.812 265.778 272.967 262.928 271.777 262.721C270.588 262.515 269.294 263.123 269.294 263.123C269.294 263.123 270.543 266.38 267.202 269.95Z" fill="#3A3D5D"/>
<path d="M269.286 263.095C268.863 264.335 268.549 265.609 268.35 266.904C268.14 268.451 266.028 271.728 266.12 272.143C266.212 272.558 268.907 272.935 269.994 271.864C271.081 270.794 271.791 267.684 272.031 265.826C272.125 264.951 272.295 264.085 272.538 263.24C272.538 263.24 270.331 261.955 269.286 263.095Z" fill="#DBA585"/>
<path d="M295.573 270.024C295.573 270.024 292.429 274.528 292.878 275.252C293.327 275.977 296.752 276.088 298.839 275.252C300.926 274.416 300.976 269.057 301.904 266.75C302.3 265.786 301.456 262.935 300.266 262.729C299.076 262.522 297.682 263.174 297.682 263.174C297.682 263.174 298.914 266.454 295.573 270.024Z" fill="#3A3D5D"/>
<path d="M297.696 263.174C297.551 264.393 297.336 265.603 297.052 266.797C296.654 268.299 294.516 271.721 294.617 272.136C294.717 272.552 297.403 272.928 298.49 271.858C299.577 270.788 300.441 267.692 300.527 265.819C300.601 264.78 300.517 263.736 300.279 262.723C300.279 262.723 298.741 262.032 297.696 263.174Z" fill="#DBA585"/>
<path d="M282.005 188.622C282.005 188.622 279.218 202.202 278.566 205.621C277.914 209.041 276.125 225.597 275.93 228.414C275.735 231.232 273.012 241.838 273.143 242.841C273.274 243.844 269.102 264.048 269.102 264.048C269.102 264.048 270.526 265.244 272.028 264.157C272.8 263.6 281.177 245.246 281.177 240.219C281.177 233.269 286.101 224.195 286.751 222.64C292.653 208.196 291.488 203.782 292.263 202.854C293.038 201.926 293.099 203.434 293.55 205.513C294.002 207.592 294.963 225.558 295.54 227.834C296.117 230.111 295.671 237.822 295.992 241.71C296.312 245.597 297.722 263.187 297.722 263.187C297.722 263.187 298.815 264.971 300.347 263.232C300.676 262.858 302.992 243.641 303.056 239.015C303.12 234.389 303.19 228.01 303.315 226.012C304.505 206.842 307.428 204.105 302.822 190.539C294.172 165.127 282.005 188.622 282.005 188.622Z" fill="#DBA585"/>
<path d="M300.782 184.82C300.782 184.82 308.75 196.457 305.319 221.215C305.319 221.215 286.416 223.898 276.292 218.11C276.292 218.11 280.472 192.586 281.997 188.612C283.521 184.638 300.782 184.82 300.782 184.82Z" fill="#42466C"/>
<path d="M273.521 266.349V271.142H272.922V267.438L273.521 266.349Z" fill="#3A3D5D"/>
<path d="M302.009 266.349V271.142H301.412V267.438L302.009 266.349Z" fill="#3A3D5D"/>
<path d="M291.333 133.224C291.333 133.224 285.996 138.597 287.813 145.519C289.63 152.441 292.551 152.486 295.772 149.504C298.994 146.522 300.886 143.393 301.312 139.912C301.739 136.431 296.218 128.425 291.333 133.224Z" fill="#DBA585"/>
<path d="M290.287 156.309C290.819 155.057 291.27 153.771 291.635 152.46C291.733 152.101 291.822 151.733 291.914 151.368C292.193 150.086 292.296 148.821 292.003 147.957C291.167 145.449 297.34 147.182 297.34 147.182C297.34 147.182 296.142 153.834 297.34 156.077C298.538 158.321 290.287 156.309 290.287 156.309Z" fill="#DBA585"/>
<path d="M305.972 159.478C304.999 157.527 304.269 156.908 302.388 156.315C301.335 155.983 296.628 154.757 296.628 154.757L290.976 154.548C288.637 154.948 286.33 155.514 284.071 156.24C281.055 157.285 277.104 162.998 277.104 162.998C277.104 162.998 282.555 175.803 283.6 179.473C284.645 183.143 283.956 188.833 283.956 188.833C290.491 192.392 300.972 188.485 300.972 188.485C300.243 185.678 300.103 182.749 300.563 179.885C300.61 179.607 300.666 179.328 300.727 179.088C300.788 178.849 300.861 178.531 300.95 178.166C300.951 178.149 300.951 178.132 300.95 178.116C305.108 178.542 309.007 178.715 309.11 177.882C309.569 174.125 307.312 162.15 305.972 159.478ZM303.09 174.075C302.926 174.05 302.569 174.047 302.19 174.014C302.653 172.726 303.168 171.583 303.168 171.583C303.464 172.406 304.578 174.298 303.09 174.075Z" fill="#E6D8D1"/>
<path d="M293.073 137.089C293.073 137.089 295.625 141.729 297.211 143.393C298.797 145.056 298.605 146.377 298.605 146.377C298.605 146.377 304.786 138.75 300.374 134.149C295.963 129.548 290.28 131.404 288.62 135.425C286.959 139.447 287.566 144.36 287.566 144.36C287.566 144.36 287.619 139.642 293.073 137.089Z" fill="#CD7250"/>
<path d="M294.756 132.228C294.756 132.228 294.14 128.83 299.466 127.49C304.791 126.15 307.188 132.278 306.533 136.023C305.878 139.768 301.319 149.263 303.791 150.5C306.263 151.738 307.227 149.071 307.227 149.071C307.227 149.071 306.455 153.744 303.019 152.663C299.583 151.581 300.046 143.99 300.564 140.958C301.082 137.926 294.756 132.228 294.756 132.228Z" fill="#CD7250"/>
<path d="M296.473 148.829C296.454 148.876 295.105 151.978 291.635 152.452C291.733 152.092 291.822 151.725 291.914 151.359C291.9 151.379 293.804 151.752 296.473 148.829Z" fill="#997761"/>
<path d="M303.09 171.63C303.09 171.63 302.836 172.165 302.14 174.278C301.429 168.345 301.802 165.257 301.802 165.257C301.878 168.428 303.09 171.63 303.09 171.63Z" fill="#C8BCB6"/>
<path d="M295.587 131.518C295.587 131.518 299.369 132.242 301.256 135.321C301.256 135.321 300.871 132.535 298.99 131.729C297.919 131.247 296.71 131.172 295.587 131.518Z" fill="#E6D8D1"/>
<path d="M300.955 178.165C300.866 178.53 300.788 178.859 300.732 179.088C300.676 179.316 300.615 179.606 300.568 179.885C298.224 178.611 296.544 177.616 296.544 177.616C297.16 177.758 300.955 178.165 300.955 178.165Z" fill="#C8BCB6"/>
<path d="M296.944 154.837L290.287 160.263L290.975 154.548C290.975 154.548 294.854 153.712 296.944 154.837Z" fill="#DBA585"/>
<path d="M292.212 159.34L290.287 160.262L296.824 153.783L292.212 159.34Z" fill="#CFC3BC"/>
<path d="M301.333 177.697C300.416 181.493 303.805 190.034 303.805 190.034L297.089 192.133C296.861 192.204 296.62 192.227 296.382 192.201C296.144 192.174 295.915 192.098 295.708 191.977C295.501 191.856 295.322 191.694 295.182 191.5C295.041 191.306 294.943 191.085 294.893 190.851C293.993 186.671 291.886 176.385 291.633 170.664C291.312 163.368 296.626 154.757 296.626 154.757C306.071 156.376 303.482 170.664 303.482 170.664C303.482 170.664 303.139 171.564 302.682 172.971C302.565 173.322 302.442 173.707 302.317 174.119C301.994 175.178 301.645 176.404 301.333 177.697Z" fill="#4C507D"/>
<path d="M290.305 154.86L290.419 154.548C290.419 154.548 285.584 155.284 283.126 156.499C280.668 157.714 275.962 164.068 275.962 164.068L282.118 172.194C282.118 178.439 281.111 189.541 281.111 189.541L283.923 191.163C284.096 191.263 284.292 191.316 284.492 191.317C284.692 191.318 284.888 191.267 285.062 191.169C285.236 191.071 285.381 190.929 285.484 190.757C285.586 190.586 285.642 190.39 285.646 190.191C285.724 185.969 285.924 175.945 286.013 171.087C286.142 164.842 290.598 154.743 290.598 154.743C290.497 154.788 290.4 154.827 290.305 154.86Z" fill="#4C507D"/>
<path d="M281.535 184.14C281.535 184.14 286.175 184.322 286.897 184.14C287.619 183.959 292.434 181.872 292.724 179.81C293.014 177.748 281.535 181.657 281.535 181.657V184.14Z" fill="#DBA585"/>
<path d="M295.936 177.698L277.1 175.49L285.608 182.416L295.936 177.698Z" fill="#6D76BA"/>
<path d="M285.606 182.414L295.934 178.892V177.696L285.258 181.118L285.606 182.414Z" fill="#363957"/>
<path d="M290.461 174.231C289.648 174.233 288.836 174.174 288.031 174.055C287.357 173.916 285.679 174.106 285.244 174.485C284.81 174.864 283.455 177.505 283.199 177.664C282.942 177.823 283.33 178.199 283.781 178.013C283.781 178.013 284.197 179.166 285.219 178.734C286.242 178.302 286.939 177.358 287.474 177.191C288.009 177.023 291.13 176.187 291.13 176.187C291.13 176.187 291.266 173.952 290.461 174.231Z" fill="#DBA585"/>
<path d="M291.328 153.494L287.745 159.171L286.014 160.263L290.047 154.609L291.328 153.494Z" fill="#F3E4DC"/>
<path d="M287.746 159.171L290.287 160.263L290.975 154.548L291.329 153.494L287.746 159.171Z" fill="#CFC3BC"/>
<path d="M282.104 181.476C282.104 181.476 281.912 183.875 282.104 184.377C282.104 184.377 270.489 183.215 269.408 181.59C268.739 180.508 268.378 179.264 268.363 177.992L282.104 181.476Z" fill="#4C507D"/>
<path d="M285.607 182.415L280.118 161.994L259.234 159.789L264.958 178.586L285.607 182.415Z" fill="#2A2B41"/>
<path d="M296.825 153.783L292.212 159.34L294.734 161.592L297.457 154.94L296.825 153.783Z" fill="#F3E4DC"/>
<path d="M302.838 172.503L302.684 172.974C302.567 173.325 302.445 173.71 302.319 174.122C301.428 174.401 293.714 173.844 293.714 173.844C293.714 173.844 300.171 172.322 302.838 172.503Z" fill="#414469"/>
<path d="M302.388 173.97C301.146 173.876 299.111 173.742 297.445 173.736C294.853 173.736 290.419 174.015 290.419 174.015L290.949 176.785C290.949 176.785 298.799 178.059 303.088 178.36C303.088 178.36 308.751 179.009 309.169 178.164C309.587 177.32 309.029 171.9 308.11 167.017C307.19 162.135 306.243 159.318 305.117 157.821C303.991 156.325 298.047 155.135 298.047 155.135L303.091 171.643C303.091 171.643 303.812 173.115 303.776 173.75C303.776 173.945 303.631 174.029 303.45 174.068L302.659 174.004L302.388 173.97Z" fill="#4C507D"/>
<defs>
<linearGradient id="paint0_linear_1_34" x1="18.4112" y1="83.78" x2="95.8313" y2="83.78" gradientUnits="userSpaceOnUse">
<stop stop-color="#636F9F"/>
<stop offset="1" stop-color="#27307D"/>
</linearGradient>
<linearGradient id="paint1_linear_1_34" x1="54.0087" y1="59.8633" x2="90.2902" y2="59.8633" gradientUnits="userSpaceOnUse">
<stop stop-color="#636F9F"/>
<stop offset="1" stop-color="#27307D"/>
</linearGradient>
<linearGradient id="paint2_linear_1_34" x1="185.61" y1="174.194" x2="61.7891" y2="174.194" gradientUnits="userSpaceOnUse">
<stop stop-color="#EEBE63"/>
<stop offset="1" stop-color="#DC3B57"/>
</linearGradient>
<linearGradient id="paint3_linear_1_34" x1="185.61" y1="180.963" x2="61.7892" y2="180.963" gradientUnits="userSpaceOnUse">
<stop stop-color="#EEBE63"/>
<stop offset="1" stop-color="#DC3B57"/>
</linearGradient>
<linearGradient id="paint4_linear_1_34" x1="185.607" y1="187.732" x2="61.7891" y2="187.732" gradientUnits="userSpaceOnUse">
<stop stop-color="#EEBE63"/>
<stop offset="1" stop-color="#DC3B57"/>
</linearGradient>
<linearGradient id="paint5_linear_1_34" x1="0.00200755" y1="199.105" x2="44.9857" y2="199.105" gradientUnits="userSpaceOnUse">
<stop stop-color="#636F9F"/>
<stop offset="1" stop-color="#27307D"/>
</linearGradient>
<linearGradient id="paint6_linear_1_34" x1="36.4806" y1="230.121" x2="67.015" y2="230.121" gradientUnits="userSpaceOnUse">
<stop stop-color="#81D3E4"/>
<stop offset="1" stop-color="#6076FA"/>
</linearGradient>
<linearGradient id="paint7_linear_1_34" x1="25.4545" y1="205.541" x2="61.0153" y2="205.541" gradientUnits="userSpaceOnUse">
<stop stop-color="#636F9F"/>
<stop offset="1" stop-color="#27307D"/>
</linearGradient>
<linearGradient id="paint8_linear_1_34" x1="223.559" y1="130.303" x2="241.916" y2="130.303" gradientUnits="userSpaceOnUse">
<stop stop-color="#525997"/>
<stop offset="1" stop-color="#BEC0D8"/>
</linearGradient>
<linearGradient id="paint9_linear_1_34" x1="223.559" y1="140.034" x2="240.411" y2="140.034" gradientUnits="userSpaceOnUse">
<stop stop-color="#525997"/>
<stop offset="1" stop-color="#BEC0D8"/>
</linearGradient>
<linearGradient id="paint10_linear_1_34" x1="223.559" y1="135.171" x2="238.139" y2="135.171" gradientUnits="userSpaceOnUse">
<stop stop-color="#525997"/>
<stop offset="1" stop-color="#BEC0D8"/>
</linearGradient>
<linearGradient id="paint11_linear_1_34" x1="189.411" y1="129.576" x2="218.323" y2="129.576" gradientUnits="userSpaceOnUse">
<stop stop-color="#D3D8DE"/>
<stop offset="1" stop-color="white"/>
</linearGradient>
<linearGradient id="paint12_linear_1_34" x1="256.928" y1="99.7414" x2="272.194" y2="99.7414" gradientUnits="userSpaceOnUse">
<stop stop-color="#525997"/>
<stop offset="1" stop-color="#BEC0D8"/>
</linearGradient>
<linearGradient id="paint13_linear_1_34" x1="256.928" y1="94.7121" x2="268.891" y2="94.7121" gradientUnits="userSpaceOnUse">
<stop stop-color="#525997"/>
<stop offset="1" stop-color="#BEC0D8"/>
</linearGradient>
</defs>
</svg>
