<svg width="1624" height="355" viewBox="0 0 1624 355" fill="none" xmlns="http://www.w3.org/2000/svg">
<path opacity="0.55" d="M1292.71 108.68C1448.77 126.706 1672.61 2.1313 1713.73 -4.42123C1754.85 -10.9738 1799.63 -3.98209 1830.77 19.592C1863.74 44.5477 1900.02 127.479 1890.58 183.375C1878.38 255.595 1865.46 199.116 1848.65 355.003C1831.85 510.89 1764.14 401.685 1635.57 469.196C1507 536.706 1547.16 492.947 1345.07 547.236C1142.98 601.524 1235.61 576.642 1089.45 645.881C943.285 715.12 751.431 748.675 681.061 755.589C610.692 762.503 543.313 746.923 388.454 834.194C251.239 911.521 262.603 853.015 134.648 872.401C6.69219 891.787 16.1239 758.863 1.47874 704.347C-13.1665 649.83 103.592 613.969 75.0308 591.666C46.4695 569.364 95.9446 535.091 44.2383 477.042C-7.46799 418.993 125.755 377.205 225.149 335.518C324.544 293.832 450.677 334.883 669.606 276.07C888.535 217.257 797.72 223.669 953.508 139.854C1109.3 56.0386 1136.65 90.6547 1292.71 108.68Z" fill="#27307D"/>
</svg>
