<svg width="28" height="38" viewBox="0 0 28 38" fill="none" xmlns="http://www.w3.org/2000/svg">
<path d="M1.07983 13.7803H20.9819V33.3177C20.9819 35.2507 19.4149 36.8177 17.4819 36.8177H4.57983C2.64684 36.8177 1.07983 35.2507 1.07983 33.3177V13.7803Z" stroke="#696969"/>
<path d="M20.9365 17.9609H21.2297C24.2673 17.9609 26.7297 20.4234 26.7297 23.4609V27.1375C26.7297 30.1751 24.2673 32.6375 21.2297 32.6375H20.9365V17.9609Z" stroke="#696969"/>
<path d="M10.4859 28.4564V21.4271L13.6438 19.8482L16.8016 21.4271V28.4564H10.4859Z" stroke="#696969"/>
<path d="M13.6436 19.8121V13.8027" stroke="#696969"/>
<path d="M10.5086 1C11.0311 1.43546 12.0762 2.67217 12.0762 4.13531C12.0762 5.96425 10.5086 5.96425 10.5086 8.31573C10.5086 10.1969 11.5537 10.8414 12.0762 10.9285" stroke="#696969"/>
<path d="M15.2114 1.78418C15.734 2.21964 16.7791 3.45635 16.7791 4.91949C16.7791 6.74843 15.2114 6.74843 15.2114 9.09991C15.2114 10.9811 16.2565 11.6256 16.7791 11.7127" stroke="#696969"/>
<path d="M5.80542 1.78418C6.32797 2.21964 7.37308 3.45635 7.37308 4.91949C7.37308 6.74843 5.80542 6.74843 5.80542 9.09991C5.80542 10.9811 6.85052 11.6256 7.37308 11.7127" stroke="#696969"/>
</svg>
