<svg width="316" height="178" viewBox="0 0 316 178" fill="none" xmlns="http://www.w3.org/2000/svg">
<path d="M223.748 82.8174C223.748 82.8174 201.495 71.8066 171.009 79.132L219.671 82.8174H223.748Z" fill="#878381"/>
<path d="M208.848 150.011L219.671 82.8177C219.671 82.8177 185.578 70.7479 159.126 82.8177L144.074 149.305L208.848 150.011Z" fill="#DCD0C8"/>
<path d="M219.673 82.8167H223.748L218.772 149.977H208.834L219.673 82.8167Z" fill="#878381"/>
<path d="M152.643 44.8882C152.643 44.8882 163.347 50.657 155.546 63.0478C155.546 63.0478 164.743 64.1684 167.054 61.3816C166.873 62.0173 166.618 62.6265 166.293 63.1948C166.293 63.1948 175.2 61.9646 178.392 58.4049C181.584 54.8452 171.631 7.50182 147.904 17.1914C147.904 17.1914 126.805 19.2186 132.793 44.2864C138.781 69.3542 130.916 70.7449 130.916 70.7449C130.916 70.7449 133.283 71.4937 134.341 71.3065C134.341 71.3065 135.784 70.4132 135.947 69.4585C135.947 69.4585 135.865 70.9267 135.541 71.4456C135.541 71.4456 144.167 70.7903 147.868 66.6636C151.57 62.5369 154.688 49.9161 152.643 44.8882Z" fill="#414141"/>
<path d="M137.365 57.2726L138.222 57.3956C140.061 57.6588 141.924 57.1441 143.405 55.964C144.885 54.7839 145.862 53.0343 146.123 51.0973L146.744 46.3769C146.993 44.4379 146.504 42.474 145.384 40.9136C144.264 39.3533 142.605 38.3233 140.767 38.0486L139.912 37.9229C138.073 37.659 136.209 38.1734 134.729 39.3536C133.248 40.5339 132.271 42.2839 132.011 44.2212L131.38 48.9417C131.129 50.8823 131.619 52.8485 132.74 54.4098C133.862 55.9711 135.525 57.0005 137.365 57.2726Z" fill="#DEDFE6"/>
<path d="M134.931 95.1189C138.123 97.7185 140.145 107.101 145.293 108.649C164.598 114.455 174.959 90.2942 178.349 78.4998C176.365 77.1977 174.146 76.346 171.833 75.9992C170.43 75.7478 168.951 75.5525 167.726 75.4215C165.618 73.5333 162.7 66.109 162.522 54.8281L161.591 55.0367L145.98 58.6499C145.98 58.6499 146.437 63.8464 146.546 68.7407C146.627 72.5705 146.747 73.4878 146.465 73.9425C145.252 74.1538 143.821 77.4193 143.821 77.4193V77.4354C140.327 83.016 137.35 88.9377 134.931 95.1189Z" fill="#F3AD7C"/>
<path d="M145.97 58.6483C145.97 58.6483 146.427 63.8395 146.533 68.7364C155.302 68.2871 159.772 59.7502 161.581 55.0352L145.97 58.6483Z" fill="#D38B5A"/>
<path d="M66.5775 143.979C66.5775 143.979 75.7567 144.335 85.7249 144.372C86.9046 144.372 88.0971 144.372 89.2768 144.372C97.3955 144.335 105.372 144.035 108.767 143.113C112.083 142.211 124.839 133.097 135.048 122.054C135.84 124.044 136.436 125.563 136.451 125.683C136.765 128.162 137.235 130.617 137.859 133.03C139.405 138.909 141.819 145.134 144.466 150.56H150.092L192.888 150.454C192.888 150.454 184.248 136.862 186.414 103.343C186.47 102.493 178.983 75.4353 178.983 75.4353C178.983 75.4353 173.168 74.3655 166.445 73.7932C165.81 74.403 164.504 92.2015 156.096 93.2312C154.729 93.3997 145.948 107.526 145.948 107.526L143.291 93.0841L146.435 73.9376C142.401 75.1839 140.188 75.6306 136.834 77.0427C134.553 78.0085 132.66 79.7802 131.481 82.0546C125.608 93.373 106.542 129.874 104.588 130.73C102.766 131.532 95.8986 132.974 88.6298 134.372C78.9052 136.245 68.4676 138.023 68.4676 138.023L66.5775 143.979Z" fill="#F9F9FB"/>
<path d="M143.367 63.589C143.367 63.589 164.123 63.161 163.664 49.5373C163.205 35.9136 165.585 26.6867 152.316 26.3872C139.047 26.0876 136.644 31.3777 135.746 35.9617C134.848 40.5458 137.958 63.3483 143.367 63.589Z" fill="#F3AD7C"/>
<path d="M85.7119 144.375C86.8916 144.375 88.0841 144.375 89.2638 144.375C97.3825 144.338 105.359 144.038 108.754 143.116C112.07 142.214 124.826 133.1 135.035 122.057C135.035 122.057 132.881 113.365 131.953 111.913C131.024 110.46 127.363 124.595 118.806 130.348C110.248 136.101 96.8548 140.131 90.3522 138.499C86.0011 137.395 85.5521 141.546 85.7119 144.375Z" fill="#E0E0EB"/>
<path d="M146.321 61.5102C158.115 57.5815 161.008 45.8138 161.036 45.6961L159.767 45.3672L160.396 45.533L159.767 45.3672C159.742 45.4795 157.004 56.517 145.92 60.2078L145.696 60.28L146.074 61.5878L146.321 61.5102Z" fill="#DEDFE6"/>
<path d="M144.986 62.4356L146.097 62.0666C146.37 61.9744 146.597 61.7727 146.729 61.5053C146.861 61.2379 146.887 60.9264 146.803 60.6384C146.715 60.3514 146.524 60.1123 146.27 59.9731C146.017 59.8339 145.721 59.8058 145.448 59.8949L144.334 60.2666C144.062 60.3582 143.835 60.5599 143.703 60.8276C143.571 61.0953 143.545 61.4072 143.631 61.6948C143.718 61.9822 143.91 62.2215 144.164 62.3604C144.418 62.4993 144.713 62.5263 144.986 62.4356Z" fill="#B2A8A3"/>
<path d="M142.19 24.5808C142.19 24.5808 147.503 41.1625 155.474 43.9894C163.446 46.8163 166.089 43.4706 166.089 43.4706C166.089 43.4706 160.213 37.7847 159.541 28.5819C159.541 28.5819 146.663 17.7957 142.19 24.5808Z" fill="#414141"/>
<path d="M152.113 29.4657C152.113 29.4657 141.292 28.8265 138.058 32.0733C135.726 34.4162 135.774 35.6384 135.599 38.7595C135.599 38.7595 130.867 31.0651 135.736 25.6787C140.899 19.9687 152.113 29.4657 152.113 29.4657Z" fill="#414141"/>
<path d="M142.649 26.3316C142.649 26.3316 145.359 42.2072 155.266 47.976C155.266 47.976 145.671 37.6232 145.501 27.265C145.331 16.9068 142.649 26.3316 142.649 26.3316Z" fill="#414141"/>
<path d="M178.399 58.4042C175.21 61.9639 166.3 63.1995 166.3 63.1995C166.708 62.6057 167.061 61.3835 167.061 61.3835C162.494 65.2963 151.24 62.4533 151.24 62.4533C160.208 60.3645 157.304 46.7194 154.254 46.1391C152.478 35.8477 148.949 23.037 147.297 17.2816C147.696 17.2147 147.919 17.1907 147.919 17.1907C171.638 7.50376 181.591 54.8498 178.399 58.4042Z" fill="#414141"/>
<path d="M158.917 55.8707L159.772 55.9964C161.609 56.2565 163.47 55.7403 164.947 54.5604C166.425 53.3806 167.4 51.6327 167.66 49.6981L168.282 44.9776C168.535 43.0392 168.05 41.0738 166.933 39.5112C165.816 37.9486 164.157 36.9158 162.319 36.6386L161.462 36.5129C159.623 36.2491 157.76 36.7636 156.28 37.9439C154.8 39.1241 153.823 40.8742 153.564 42.8113L152.942 47.5317C152.689 49.4722 153.176 51.4393 154.296 53.0023C155.416 54.5653 157.077 55.5967 158.917 55.8707Z" fill="#DEDFE6"/>
<path d="M164.522 38.6459C165.03 37.6403 163.254 29.8202 160.618 23.7545C159.349 20.8126 156.145 16.8971 153.859 15.8862C153.032 15.5198 151.933 15.6696 151.04 15.8862C150.388 16.0413 148.564 16.9373 148.564 16.9373C156.081 19.4058 162.614 36.0116 162.14 37.7312C162.152 37.6891 162.169 37.6486 162.191 37.6109L164.522 38.6459Z" fill="#DEDFE6"/>
<path d="M160.64 51.175L161.067 51.2365C161.983 51.3677 162.911 51.1115 163.649 50.5237C164.387 49.936 164.874 49.0644 165.004 48.0993L165.314 45.7458C165.438 44.7791 165.194 43.7998 164.636 43.022C164.077 42.2441 163.249 41.7311 162.333 41.595L161.906 41.5335C160.99 41.4024 160.062 41.6591 159.324 42.2474C158.587 42.8358 158.1 43.708 157.971 44.6734L157.662 47.0242C157.537 47.9905 157.781 48.9695 158.339 49.7472C158.897 50.525 159.724 51.0383 160.64 51.175Z" fill="#B2A8A3"/>
<path d="M110.276 136.093C110.276 136.093 101.376 135.558 100.511 136.044C99.1051 136.847 94.3252 140.088 93.5768 141.03C92.8284 141.971 90.8647 145.758 90.8647 145.758C90.8647 145.758 91.7146 146.007 92.0977 145.643C92.4808 145.279 95.3959 142.027 95.3959 142.027L92.4123 146.804C92.4123 146.804 93.4423 146.756 93.8533 146.269C94.2643 145.782 97.05 142.792 97.05 142.792L97.9989 142.594C97.4526 143.059 96.9528 143.581 96.5071 144.153C96.1713 144.635 95.8791 145.149 95.6344 145.688C96.0132 145.625 96.3866 145.53 96.7507 145.402C97.0044 145.269 99.5136 142.963 99.5136 142.963L98.1892 144.87C98.1892 144.87 99.0823 144.822 99.3766 144.603C99.6709 144.383 101.617 142.503 101.962 142.509C102.307 142.514 104.793 142.402 105.859 141.805C106.924 141.209 110.278 139.842 110.278 139.842L110.276 136.093Z" fill="#F3AD7C"/>
<path d="M165.234 71.1638C165.234 71.1638 171.186 72.9905 172.544 74.432C172.544 74.432 166.32 91.2009 157.349 99.0371L154.951 97.2425V101.318L145.97 107.515C145.97 107.515 165.693 76.2346 165.234 71.1638Z" fill="#E0E0EB"/>
<path d="M137.875 133.028C139.42 138.907 141.754 145.443 144.401 150.868H169.709C169.709 150.868 169.246 150.03 169.261 150.006C169.261 150.006 164.463 135.78 172.544 130.073C180.625 124.366 183.57 110.298 183.57 110.298L157.819 103.668C157.819 103.668 147.209 119.982 144.189 123.101C141.871 125.489 136.467 125.668 136.467 125.668L137.875 133.028Z" fill="#E0E0EB"/>
<path d="M146.455 73.9292C146.455 73.9292 143.718 96.7451 145.971 107.507C145.971 107.507 142.294 100.388 141.777 99.0825L142.396 95.1698L140.024 96.039C140.024 96.039 142.117 77.8527 144.01 74.6593C145.902 71.466 146.602 71.1638 146.602 71.1638L146.455 73.9292Z" fill="#E0E0EB"/>
<path d="M66.5779 143.977C66.5779 143.977 78.0633 144.423 89.2874 144.37C92.0782 139.823 88.6607 134.359 88.6607 134.359C78.9361 136.232 68.4985 138.01 68.4985 138.01L66.5779 143.977Z" fill="#F3AD7C"/>
<path d="M65.49 150.029H107.93C107.931 149.561 107.843 149.097 107.674 148.664C107.504 148.231 107.255 147.838 106.941 147.506C106.627 147.175 106.254 146.912 105.843 146.733C105.433 146.553 104.993 146.461 104.548 146.461H65.4773L65.49 150.029Z" fill="#DFC070"/>
<path d="M0.000282288 101.317L15.7353 150.04H81.7782L65.6119 101.317H0.000282288Z" fill="#DFC070"/>
<path d="M0.000144958 101.317L15.5931 149.591L15.7352 150.04H80.8114L64.6477 101.317H0.000144958Z" fill="#FADD93"/>
<path d="M34.4083 125.226C34.8143 127.098 36.5776 128.598 38.3434 128.598C40.1092 128.598 41.2103 127.087 40.8018 125.226C40.3933 123.364 38.6326 121.856 36.8668 121.856C35.101 121.856 33.9999 123.364 34.4083 125.226Z" fill="white"/>
<path d="M0.000278473 101.317L15.5932 149.591H45.4902L9.03484 101.317H0.000278473Z" fill="#FADD93"/>
<path d="M110.267 139.874C110.267 139.874 132.116 141.888 144.19 141.321V128.812C136.279 131.115 110.277 136.087 110.277 136.087L110.267 139.874Z" fill="#F3AD7C"/>
<path d="M172.544 74.4373C172.544 74.4373 185.037 74.7368 188.906 79.1416C192.775 83.5465 185.067 108.427 185.067 108.427C185.067 108.427 161.779 138.493 150.129 140.614C150.129 140.614 145.037 141.347 142.66 141.387C142.66 141.387 144.991 134.236 140.655 129.748C140.655 129.748 145.646 128.274 145.851 127.608C146.057 126.942 172.544 74.4373 172.544 74.4373Z" fill="#F9F9FB"/>
<path d="M30.3975 25.0352H96.2848C100.531 25.0352 103.937 28.665 103.937 33.0797V65.9446C103.937 70.4083 100.484 73.9891 96.2848 73.9891H90.3587C90.1721 76.9813 90.592 81.396 92.9718 87.086C85.3658 83.4071 80.9796 77.8642 78.6931 73.9891H30.3975C26.1513 73.9891 22.7449 70.3593 22.7449 65.9446V33.0797C22.7449 28.665 26.1513 25.0352 30.3975 25.0352Z" fill="white"/>
<path d="M240.653 34.8961H192.587C190.334 34.8961 188.531 33.0013 188.531 30.6328V4.26332C188.531 1.89481 190.334 0 192.587 0H240.653C242.907 0 244.709 1.89481 244.709 4.26332V30.6328C244.709 33.0013 242.907 34.8961 240.653 34.8961Z" fill="white"/>
<path d="M190.217 42.627L195.729 28.6641L202.577 34.8979L190.217 42.627Z" fill="white"/>
<path d="M205.732 20.7686C207.474 20.7686 208.886 19.284 208.886 17.4526C208.886 15.6213 207.474 14.1367 205.732 14.1367C203.99 14.1367 202.577 15.6213 202.577 17.4526C202.577 19.284 203.99 20.7686 205.732 20.7686Z" fill="#27307D"/>
<path d="M216.622 20.7686C218.364 20.7686 219.776 19.284 219.776 17.4526C219.776 15.6213 218.364 14.1367 216.622 14.1367C214.88 14.1367 213.467 15.6213 213.467 17.4526C213.467 19.284 214.88 20.7686 216.622 20.7686Z" fill="#27307D"/>
<path d="M227.512 20.7686C229.254 20.7686 230.666 19.284 230.666 17.4526C230.666 15.6213 229.254 14.1367 227.512 14.1367C225.77 14.1367 224.357 15.6213 224.357 17.4526C224.357 19.284 225.77 20.7686 227.512 20.7686Z" fill="#27307D"/>
<path d="M81.7222 40.9375V60.619C81.7222 62.0673 80.5147 63.2412 79.0252 63.2412H47.6557C46.1662 63.2412 44.9587 62.0673 44.9587 60.619V40.9375H81.7222Z" fill="#FADD93"/>
<path d="M54.1313 35.0708L62.1047 29.988C62.8804 29.4936 63.8016 29.4936 64.5773 29.988L72.5511 35.0686L81.761 40.94L72.5511 46.7934L63.3412 52.6482L54.1313 46.787L44.9214 40.94L54.1313 35.0708Z" fill="#DFC070"/>
<path d="M81.0025 62.387C81.015 62.387 81.0272 62.3832 81.0376 62.3761C81.048 62.3689 81.0563 62.3588 81.0614 62.3468C81.0665 62.3348 81.0682 62.3216 81.0663 62.3086C81.0644 62.2957 81.0589 62.2836 81.0507 62.2738L69.5637 48.6582C69.5582 48.651 69.5514 48.6452 69.5437 48.6409C69.536 48.6366 69.5275 48.634 69.5189 48.6333C69.5102 48.6325 69.5015 48.6336 69.4932 48.6366C69.4849 48.6395 69.4773 48.6441 69.4708 48.6502C69.4643 48.6563 69.459 48.6637 69.4553 48.672C69.4515 48.6803 69.4494 48.6893 69.4491 48.6984C69.4488 48.7076 69.4502 48.7168 69.4533 48.7253C69.4564 48.7339 69.4611 48.7417 69.4672 48.7483L80.9541 62.3643C80.9602 62.3715 80.9677 62.3772 80.976 62.3812C80.9844 62.3851 80.9934 62.3871 81.0025 62.387Z" fill="#E9A525"/>
<path d="M45.6792 62.3867C45.6883 62.3867 45.6972 62.3847 45.7055 62.3808C45.7138 62.3768 45.7212 62.3711 45.7273 62.3639L57.2145 48.7483C57.2206 48.7417 57.2253 48.7339 57.2284 48.7253C57.2315 48.7168 57.2329 48.7076 57.2326 48.6984C57.2323 48.6893 57.2302 48.6803 57.2264 48.672C57.2227 48.6637 57.2174 48.6563 57.2109 48.6502C57.2044 48.6441 57.1968 48.6395 57.1885 48.6366C57.1803 48.6336 57.1715 48.6325 57.1628 48.6333C57.1542 48.634 57.1457 48.6366 57.138 48.6409C57.1303 48.6452 57.1235 48.651 57.118 48.6582L45.6316 62.2738C45.6235 62.2835 45.6182 62.2956 45.6163 62.3084C45.6144 62.3212 45.6161 62.3344 45.6211 62.3463C45.6261 62.3581 45.6342 62.3683 45.6445 62.3754C45.6548 62.3826 45.6668 62.3865 45.6792 62.3867Z" fill="#E9A525"/>
<path d="M55.0439 36.3674H72.5732C72.8823 36.3674 73.1383 36.6182 73.1383 36.9072V50.208H52.5296V38.7555L55.0439 36.3674Z" fill="white"/>
<path d="M52.4976 38.7699L54.7839 39.0802C54.8124 39.081 54.8409 39.0754 54.8673 39.0638C54.8937 39.0522 54.9175 39.0348 54.9372 39.0128C54.9813 38.9678 54.9867 38.9057 54.9878 38.8411L55.03 36.3674L52.4976 38.7699Z" fill="#E0D7D7"/>
<path d="M67.3857 43.4871C67.3857 44.0553 67.3003 44.5751 67.1294 45.0466C66.9586 45.5181 66.7171 45.888 66.4049 46.1563C66.0928 46.4244 65.7303 46.5585 65.3174 46.5585C65.0425 46.5585 64.7991 46.4885 64.5873 46.3485C64.3845 46.2191 64.2248 46.0256 64.1307 45.7951H64.0414C63.6402 46.304 63.1293 46.5585 62.5088 46.5585C61.8511 46.5585 61.3328 46.3484 60.9539 45.9282C60.5749 45.508 60.3854 44.9329 60.3854 44.203C60.3854 43.3705 60.6345 42.6998 61.1326 42.1908C61.6307 41.6818 62.2809 41.4274 63.0834 41.4274C63.4374 41.4305 63.7905 41.4631 64.1396 41.525C64.5236 41.5902 64.8401 41.668 65.0891 41.7584L64.9608 44.6523C64.9608 45.2008 65.102 45.4751 65.3844 45.4751C65.6223 45.4751 65.8118 45.2906 65.9529 44.9217C66.094 44.5527 66.1646 44.0704 66.1646 43.4746C66.1646 42.8394 66.0401 42.2781 65.791 41.7908C65.5537 41.3158 65.1877 40.9272 64.7404 40.6752C64.289 40.4188 63.7734 40.2906 63.1938 40.2906C62.4434 40.2906 61.7914 40.4543 61.2378 40.7818C60.6842 41.1093 60.26 41.5818 59.9651 42.1992C59.6697 42.8163 59.522 43.5294 59.522 44.3385C59.522 45.4274 59.7961 46.2628 60.3441 46.8448C60.8922 47.4268 61.6863 47.7178 62.7267 47.7178C63.1204 47.7178 63.5533 47.6714 64.0253 47.5787C64.4995 47.4853 64.9656 47.3497 65.4185 47.1734V48.3097C64.6233 48.6688 63.7409 48.8484 62.7713 48.8484C61.36 48.8484 60.2593 48.4538 59.4691 47.6647C58.6789 46.8755 58.2842 45.7787 58.2849 44.3742C58.2849 43.3996 58.4865 42.5148 58.8897 41.7198C59.2929 40.9248 59.867 40.3014 60.6123 39.8496C61.3572 39.3978 62.2145 39.1719 63.1843 39.1719C64.0017 39.1719 64.7318 39.3494 65.3745 39.7046C66.0172 40.0597 66.5132 40.5647 66.8625 41.2195C67.2113 41.875 67.3857 42.6308 67.3857 43.4871ZM61.6784 44.227C61.6784 45.0595 61.9979 45.4757 62.637 45.4757C62.9714 45.4757 63.2259 45.3505 63.4006 45.1C63.5752 44.8494 63.6814 44.442 63.7193 43.8777L63.7918 42.5696C63.5809 42.5237 63.3661 42.5015 63.1509 42.5035C62.6864 42.5035 62.3251 42.6574 62.0669 42.9652C61.8087 43.2731 61.6794 43.6936 61.6788 44.2268L61.6784 44.227Z" fill="#A8ACCB"/>
<path opacity="0.8" d="M236.848 120.896C236.814 121.262 237.481 120.909 238.239 119.151C238.727 117.991 239.117 116.787 239.406 115.552C240.458 111.048 242.358 108.621 243.41 104.118C245.405 95.5163 246.469 83.9793 242.684 75.9085C241.394 73.1202 238.419 70.3426 235.783 71.6223C233.792 72.5738 233.248 75.22 232.952 77.4938C232.481 81.0708 232 84.657 231.507 88.2525C230.769 93.8908 230.014 99.6136 230.544 105.289C231.073 110.964 232.975 116.774 236.848 120.896Z" fill="#A7ABC5"/>
<path d="M234.11 135.964C235.247 131.894 236.013 127.712 236.397 123.474C236.674 120.759 236.852 118.037 236.931 115.307C237.02 112.251 236.892 109.19 236.993 106.131C237.181 100.72 237.993 95.4118 238.508 90.0606C238.756 87.9318 238.891 85.7873 238.912 83.6371C238.869 82.2612 238.747 80.8873 238.546 79.5227C238.214 76.7848 237.95 74.0396 237.653 71.3037C237.614 70.904 237.008 70.9263 237.055 71.3115L237.914 78.8042C238.031 79.8621 238.249 80.8847 238.305 81.9726C238.411 84.2258 238.338 86.4797 238.085 88.7109C237.621 93.7714 236.859 98.7894 236.541 103.869C236.171 109.681 236.494 115.514 236.025 121.324C235.691 126.248 234.865 131.11 233.559 135.83C233.445 136.206 234.032 136.361 234.138 135.98L234.11 135.964Z" fill="white"/>
<path opacity="0.8" d="M245.554 136.407C248.139 126.655 254.008 118.285 262.094 112.817C270.18 107.349 279.946 105.147 289.617 106.611C291.543 106.903 293.625 107.437 294.853 109.04C296.169 110.752 296.123 113.263 295.219 115.196C294.203 117.069 292.776 118.657 291.053 119.834C286.106 123.657 280.472 126.4 274.87 129.153L258.422 137.122C256.717 138.082 254.851 138.703 252.915 138.953C251.013 139.107 246.568 138.12 245.519 136.386" fill="#A7ABC5"/>
<path d="M249.856 108.647C249.055 105.293 251.582 96.1746 252.332 94.8217C255.291 89.5007 253.756 90.7806 256.715 85.4596C262.368 75.2939 272.535 64.1577 283.207 60.322C286.907 58.9981 292.138 59.3425 293.545 63.2201C294.604 66.1303 292.8 69.1763 291.087 71.6436L282.981 83.269C278.736 89.3556 274.439 95.5062 268.946 100.382C263.454 105.259 256.578 108.817 249.277 108.827" fill="#A7ABC5"/>
<path d="M227.956 152.311C229.019 146.188 234.228 142.306 239.358 140.015C242.063 138.777 244.857 137.892 247.584 136.752C250.098 135.72 252.485 134.392 254.702 132.794C259.307 129.423 263.058 125.082 267.225 121.202C270.5 118.145 274.355 115.837 278.554 114.422C283.983 112.407 289.849 111.893 295.594 112.927C295.965 113.003 296.105 112.399 295.727 112.318C286.15 110.753 276.46 113.158 268.733 119.018C264.24 122.717 260.559 127.4 256.028 131.03C253.552 133.047 250.825 134.708 247.917 135.969C245.171 137.183 242.348 138.069 239.617 139.254C234.161 141.627 228.54 145.654 227.43 152.181C227.363 152.575 227.944 152.737 228.012 152.343L227.956 152.311Z" fill="white"/>
<path d="M222.892 151.763C227.217 144.932 231.991 138.439 236.52 131.764C238.877 128.283 241.168 124.753 243.308 121.126C245.638 117.204 247.661 113.112 249.857 109.111C254.247 101.121 259.372 93.6062 265.163 86.6703C268.035 83.2434 271.058 79.9678 274.232 76.8432C277.237 73.7566 280.448 70.894 283.841 68.2756C286.808 66.1135 289.868 64.0721 292.879 61.9832C293.197 61.7622 292.882 61.2195 292.564 61.4405L283.887 67.4993C281.283 69.4322 278.81 71.5469 276.484 73.8295C273.148 76.9227 269.963 80.2044 266.927 83.6744C261.101 90.3163 255.897 97.5267 251.385 105.211C249.001 109.254 246.949 113.49 244.657 117.586C242.546 121.352 240.276 125.017 237.898 128.609C232.83 136.301 227.298 143.647 222.377 151.444C222.192 151.799 222.697 152.084 222.906 151.753L222.892 151.763Z" fill="white"/>
<path opacity="0.8" d="M268.283 146.178C268.047 146.268 268.176 145.718 269.221 144.853C269.911 144.291 270.646 143.793 271.418 143.364C274.23 141.8 275.539 139.982 278.352 138.417C283.726 135.44 291.185 132.627 297.105 133.973C299.147 134.425 301.444 136.111 301.007 138.266C300.687 139.891 299.023 140.756 297.567 141.374C295.276 142.349 292.981 143.334 290.682 144.329C287.07 145.863 283.406 147.425 279.574 148.039C275.742 148.652 271.608 148.285 268.283 146.178Z" fill="#A7ABC5"/>
<path d="M258.773 150.758C261.283 149.21 263.924 147.913 266.663 146.886C268.411 146.205 270.18 145.595 271.97 145.057C273.974 144.453 276.014 144.007 278.017 143.394C281.559 142.303 284.937 140.774 288.389 139.455C289.756 138.899 291.15 138.422 292.566 138.028C293.481 137.817 294.407 137.664 295.339 137.57C297.197 137.33 299.05 137.039 300.902 136.774C301.172 136.732 301.251 137.178 300.989 137.212L295.911 137.905C295.194 138.006 294.486 138.027 293.759 138.178C292.255 138.497 290.779 138.948 289.346 139.526C286.077 140.757 282.883 142.198 279.58 143.326C275.801 144.62 271.902 145.412 268.139 146.779C264.941 147.89 261.86 149.351 258.947 151.137C258.716 151.286 258.523 150.885 258.758 150.74L258.773 150.758Z" fill="white"/>
</svg>
