<svg width="68" height="68" viewBox="0 0 68 68" fill="none" xmlns="http://www.w3.org/2000/svg">
<circle cx="33.6864" cy="33.6864" r="33.6864" fill="#27307D" fill-opacity="0.12"/>
<g clip-path="url(#clip0_1_493)">
<path d="M39.6643 25.4722C39.5455 25.2656 39.6115 24.9922 39.8227 24.8722C40.0339 24.7522 40.2979 24.8189 40.4167 25.0322L40.9249 25.9256L43.0105 23.8189C43.1821 23.6456 43.4593 23.6456 43.6309 23.8189C43.8025 23.9922 43.8025 24.2722 43.6309 24.4456L41.1427 26.9589C40.9381 27.1656 40.6015 27.1189 40.4563 26.8656L39.6643 25.4722ZM44.5483 45.7256L44.8981 45.3722L44.3833 44.8522C42.8587 46.0789 40.6477 45.9722 39.2485 44.5589C37.7437 43.0389 37.7437 40.5656 39.2485 39.0389C40.7533 37.5189 43.2019 37.5189 44.7133 39.0389C46.1059 40.4522 46.2181 42.6856 45.0037 44.2256L45.5185 44.7456L45.8551 44.4056C46.0267 44.2322 46.3039 44.2322 46.4755 44.4056L49.4191 47.3789C49.5907 47.5522 49.5907 47.8322 49.4191 48.0056L48.1189 49.3189C47.9473 49.4922 47.6701 49.4922 47.4985 49.3189L44.5549 46.3456C44.3767 46.1789 44.3767 45.8989 44.5483 45.7256ZM46.1587 45.3456L45.4789 46.0389L47.8021 48.3856L48.4819 47.6922L46.1587 45.3456ZM41.9743 38.7789C40.3243 38.7789 38.9845 40.1322 38.9845 41.7989C38.9845 43.4656 40.3243 44.8189 41.9743 44.8189C43.6243 44.8189 44.9641 43.4656 44.9641 41.7989C44.9641 40.1322 43.6243 38.7789 41.9743 38.7789ZM42.0733 34.8789C42.0733 34.6322 42.2647 34.4389 42.5089 34.4389C42.7531 34.4389 42.9445 34.6389 42.9445 34.8789V37.0522C42.9445 37.2989 42.7465 37.4922 42.5089 37.4922C42.2713 37.4922 42.0733 37.2922 42.0733 37.0522V34.8789ZM37.1629 41.9856C37.4071 41.9856 37.5985 42.1856 37.5985 42.4256C37.5985 42.6656 37.4071 42.8656 37.1629 42.8656H34.4239C34.1797 42.8656 33.9883 42.6722 33.9883 42.4256C33.9883 42.1789 34.1797 41.9856 34.4239 41.9856H37.1629ZM40.3837 17.8789H42.5551C42.7993 17.8789 42.9907 18.0722 42.9907 18.3189V19.3989C43.5781 19.5456 44.1457 19.7856 44.6605 20.0989L45.4129 19.3389C45.5845 19.1656 45.8617 19.1656 46.0333 19.3389L47.5711 20.8922C47.7427 21.0656 47.7427 21.3456 47.5711 21.5189L46.8187 22.2789C47.1289 22.8056 47.3599 23.3722 47.5117 23.9656H48.5743C48.8185 23.9656 49.0099 24.1656 49.0099 24.4056V26.5989C49.0099 26.8456 48.8119 27.0389 48.5743 27.0389H47.5117C47.3665 27.6322 47.1289 28.2056 46.8187 28.7256L47.5711 29.4856C47.7427 29.6589 47.7427 29.9389 47.5711 30.1122L46.0333 31.6656C45.8617 31.8389 45.5845 31.8389 45.4129 31.6656L44.6605 30.9056C44.1391 31.2189 43.5781 31.4522 42.9907 31.6056V32.6789C42.9907 32.9322 42.7927 33.1322 42.5155 33.1189H40.3837C40.1395 33.1189 39.9481 32.9189 39.9481 32.6789V31.5989C39.3607 31.4522 38.7931 31.2122 38.2783 30.8989L37.5259 31.6589C37.3543 31.8322 37.0771 31.8322 36.9055 31.6589L35.3677 30.1056C35.1961 29.9322 35.1961 29.6522 35.3677 29.4789L36.1201 28.7189C35.8099 28.1989 35.5789 27.6256 35.4271 27.0322H34.3645C34.1137 27.0322 33.9157 26.8322 33.9289 26.5522V24.3989C33.9289 24.1522 34.1203 23.9589 34.3645 23.9589H35.4271C35.5723 23.3656 35.8099 22.7922 36.1201 22.2722L35.3677 21.5122C35.1961 21.3389 35.1961 21.0589 35.3677 20.8856L36.9055 19.3322C37.0771 19.1589 37.3543 19.1589 37.5259 19.3322L38.2783 20.0922C38.7997 19.7789 39.3607 19.5456 39.9481 19.3922V18.3189C39.9481 18.0789 40.1395 17.8856 40.3837 17.8789ZM42.1195 18.7656H40.8193V19.7322C40.8325 19.9522 40.6807 20.1456 40.4629 20.1856C40.0999 20.2522 39.7501 20.3656 39.4201 20.4989C39.0901 20.6389 38.7799 20.8056 38.4829 21.0056C38.3113 21.1389 38.0671 21.1256 37.9087 20.9722L37.2157 20.2722L36.2983 21.1989L36.9913 21.8989C37.1365 22.0456 37.1629 22.2789 37.0441 22.4589C36.8395 22.7656 36.6613 23.0856 36.5227 23.4256C36.3907 23.7522 36.2851 24.0989 36.2191 24.4522C36.1927 24.6722 36.0079 24.8389 35.7835 24.8389H34.8001V26.1522H35.7835C35.9881 26.1522 36.1729 26.2989 36.2125 26.5122C36.2785 26.8789 36.3841 27.2322 36.5227 27.5656C36.6613 27.8989 36.8263 28.2189 37.0309 28.5122C37.1629 28.6856 37.1497 28.9322 36.9913 29.0922L36.2983 29.7989L37.2157 30.7256L37.9087 30.0256C38.0539 29.8789 38.2849 29.8522 38.4631 29.9722C38.7601 30.1789 39.0835 30.3589 39.4201 30.4989C39.7435 30.6322 40.0867 30.7389 40.4365 30.8056C40.6543 30.8322 40.8193 31.0189 40.8193 31.2456V32.2322H42.1195V31.2456C42.1195 31.0389 42.2647 30.8522 42.4759 30.8122C42.8389 30.7456 43.1887 30.6389 43.5187 30.4989C43.8487 30.3589 44.1589 30.1922 44.4559 29.9922C44.6275 29.8589 44.8717 29.8722 45.0367 30.0256L45.7297 30.7256L46.6471 29.7989L45.9541 29.0989C45.8089 28.9522 45.7825 28.7189 45.9013 28.5389C46.1059 28.2322 46.2841 27.9122 46.4227 27.5722C46.5547 27.2456 46.6603 26.9056 46.7263 26.5456C46.7527 26.3256 46.9375 26.1589 47.1619 26.1589H48.1387V24.8456H47.1619C46.9573 24.8456 46.7725 24.6989 46.7329 24.4856C46.6669 24.1189 46.5613 23.7656 46.4227 23.4322C46.2907 23.0989 46.1191 22.7856 45.9211 22.4856C45.7891 22.3122 45.8023 22.0656 45.9541 21.9056L46.6405 21.1989L45.7231 20.2722L45.0301 20.9722C44.8849 21.1189 44.6539 21.1456 44.4757 21.0256C44.1721 20.8189 43.8553 20.6456 43.5187 20.4989C43.1953 20.3656 42.8587 20.2589 42.5023 20.1922C42.2845 20.1656 42.1195 19.9789 42.1195 19.7589V18.7656ZM41.4661 21.3989C43.7101 21.3989 45.5251 23.2322 45.5251 25.4989C45.5251 27.7656 43.7101 29.5989 41.4661 29.5989C39.2287 29.5989 37.4071 27.7656 37.4071 25.4989C37.4137 23.2389 39.2287 21.3989 41.4661 21.3989ZM43.7233 23.2256C42.4759 21.9656 40.4629 21.9656 39.2221 23.2256C37.9813 24.4789 37.9813 26.5189 39.2221 27.7722C40.4695 29.0322 42.4825 29.0322 43.7233 27.7722C44.9641 26.5189 44.9641 24.4789 43.7233 23.2256ZM26.7547 33.5122C27.2695 33.5122 27.7381 33.7322 28.0681 34.0789L29.9359 32.9856C30.1405 32.8656 30.4111 32.9389 30.5299 33.1456C30.6487 33.3589 30.5827 33.6256 30.3715 33.7456L28.4971 34.8389C28.8337 36.0122 27.9625 37.1922 26.7481 37.1922C25.1113 37.1922 24.3061 35.1722 25.4875 34.0256L25.0783 33.3122C24.9595 33.1056 25.0255 32.8322 25.2367 32.7122C25.4413 32.5922 25.7119 32.6589 25.8307 32.8722L26.2399 33.5856C26.4115 33.5389 26.5831 33.5122 26.7547 33.5122ZM27.4279 34.6722C26.8339 34.0722 25.8043 34.4989 25.8043 35.3522C25.8043 36.2056 26.8273 36.6322 27.4279 36.0322C27.7975 35.6589 27.7975 35.0522 27.4279 34.6722ZM26.3191 28.3989C26.3191 28.1522 26.5171 27.9589 26.7547 27.9589C26.9989 27.9589 27.1903 28.1589 27.1903 28.3989V29.3656C27.1903 29.6122 26.9989 29.8056 26.7547 29.8056C26.5105 29.8056 26.3191 29.6122 26.3191 29.3656V28.3989ZM32.9389 38.4522C33.1501 38.5722 33.2227 38.8456 33.0973 39.0522C32.9785 39.2589 32.7079 39.3322 32.5033 39.2122L31.6783 38.7322C31.4671 38.6122 31.3945 38.3389 31.5199 38.1322C31.6387 37.9189 31.9093 37.8456 32.1139 37.9722L32.9389 38.4522ZM33.6451 34.9122C33.8827 34.9122 34.0807 35.1056 34.0807 35.3522C34.0807 35.5922 33.8827 35.7922 33.6451 35.7922H32.6881C32.4505 35.7922 32.2525 35.5989 32.2525 35.3522C32.2525 35.1056 32.4505 34.9122 32.6881 34.9122H33.6451ZM32.5033 31.4922C32.7079 31.3722 32.9785 31.4456 33.0973 31.6522C33.2161 31.8589 33.1501 32.1322 32.9389 32.2522L32.1139 32.7389C31.9093 32.8589 31.6387 32.7856 31.5199 32.5789C31.4011 32.3656 31.4671 32.0989 31.6783 31.9789L32.5033 31.4922ZM22.9333 29.5456C22.8145 29.3322 22.8871 29.0656 23.0917 28.9456C23.2963 28.8256 23.5669 28.8989 23.6857 29.1056L24.1675 29.9389C24.2863 30.1522 24.2137 30.4189 24.0091 30.5389C23.8045 30.6589 23.5339 30.5856 23.4151 30.3789L22.9333 29.5456ZM20.5705 32.2522C20.3659 32.1322 20.2933 31.8589 20.4121 31.6522C20.5309 31.4456 20.8015 31.3722 21.0061 31.4922L21.8311 31.9722C22.0357 32.0922 22.1083 32.3656 21.9895 32.5722C21.8707 32.7789 21.6001 32.8522 21.3955 32.7322L20.5705 32.2522ZM19.8643 35.7922C19.6201 35.7922 19.4287 35.5989 19.4287 35.3522C19.4287 35.1056 19.6201 34.9122 19.8643 34.9122H20.8213C21.0589 34.9122 21.2569 35.1056 21.2569 35.3522C21.2569 35.5922 21.0655 35.7922 20.8213 35.7922H19.8643ZM21.0061 39.2122C20.8015 39.3322 20.5309 39.2589 20.4121 39.0522C20.2933 38.8389 20.3659 38.5722 20.5705 38.4522L21.4021 37.9722C21.6067 37.8522 21.8773 37.9256 21.9961 38.1322C22.1149 38.3389 22.0423 38.6122 21.8377 38.7322L21.0061 39.2122ZM23.6857 41.5989C23.5669 41.8122 23.2963 41.8856 23.0917 41.7589C22.8871 41.6389 22.8145 41.3656 22.9333 41.1589L23.4151 40.3256C23.5339 40.1122 23.8045 40.0389 24.0091 40.1656C24.2137 40.2856 24.2863 40.5589 24.1675 40.7656L23.6857 41.5989ZM27.1903 42.3122C27.1903 42.5522 26.9923 42.7522 26.7547 42.7522C26.5171 42.7522 26.3191 42.5589 26.3191 42.3122V41.3456C26.3191 41.0989 26.5171 40.9056 26.7547 40.9056C26.9923 40.9056 27.1903 41.0989 27.1903 41.3456V42.3122ZM30.5761 41.1589C30.6949 41.3656 30.6223 41.6389 30.4177 41.7589C30.2131 41.8789 29.9425 41.8056 29.8237 41.5989L29.3485 40.7656C29.2297 40.5589 29.3023 40.2856 29.5069 40.1656C29.7115 40.0456 29.9821 40.1189 30.1009 40.3256L30.5761 41.1589ZM29.8237 29.1056C29.9425 28.8989 30.2131 28.8256 30.4177 28.9456C30.6223 29.0656 30.6949 29.3389 30.5761 29.5456L30.0943 30.3789C29.9755 30.5856 29.7049 30.6589 29.5003 30.5389C29.2957 30.4189 29.2231 30.1456 29.3419 29.9389L29.8237 29.1056ZM26.7547 25.9656C31.8895 25.9656 36.0475 30.1656 36.0475 35.3522C36.0475 40.5389 31.8895 44.7389 26.7547 44.7389C21.6199 44.7389 17.4619 40.5389 17.4619 35.3522C17.4619 30.1656 21.6199 25.9656 26.7547 25.9656ZM32.7079 29.3389C29.4211 26.0189 24.0883 26.0189 20.7949 29.3389C17.5081 32.6589 17.5081 38.0456 20.7949 41.3656C24.0817 44.6856 29.4145 44.6856 32.7079 41.3656C36.0013 38.0456 36.0013 32.6589 32.7079 29.3389Z" fill="black"/>
</g>
<defs>
<clipPath id="clip0_1_493">
<rect width="33" height="34" fill="white" transform="translate(17 17)"/>
</clipPath>
</defs>
</svg>
