<svg width="268" height="161" viewBox="0 0 268 161" fill="none" xmlns="http://www.w3.org/2000/svg">
<path d="M233.126 112.008C231.79 110.436 230.95 108.504 230.712 106.455C230.473 104.406 230.848 102.332 231.788 100.496C232.729 98.6602 234.192 97.1442 235.994 96.1399C237.796 95.1355 239.855 94.6879 241.911 94.8536C243.967 95.0194 245.928 95.791 247.545 97.071C249.163 98.351 250.365 100.082 250.999 102.045C251.632 104.008 251.67 106.114 251.107 108.099C250.544 110.083 249.405 111.856 247.834 113.193C245.726 114.986 242.993 115.868 240.235 115.645C237.477 115.423 234.92 114.115 233.126 112.008Z" fill="#F6C648"/>
<mask id="mask0_1_218" style="mask-type:luminance" maskUnits="userSpaceOnUse" x="230" y="94" width="22" height="22">
<path d="M233.125 112.006C231.789 110.434 230.949 108.502 230.711 106.453C230.473 104.404 230.847 102.33 231.787 100.494C232.728 98.6583 234.191 97.1423 235.993 96.1379C237.795 95.1335 239.854 94.6859 241.91 94.8517C243.966 95.0174 245.927 95.7891 247.544 97.069C249.162 98.349 250.364 100.08 250.998 102.043C251.632 104.006 251.669 106.113 251.106 108.097C250.543 110.081 249.404 111.854 247.833 113.191C245.725 114.984 242.992 115.866 240.234 115.643C237.476 115.421 234.919 114.113 233.125 112.006Z" fill="white"/>
</mask>
<g mask="url(#mask0_1_218)">
<path opacity="0.3" d="M234.385 110.936C233.262 109.613 232.556 107.987 232.357 106.262C232.157 104.538 232.474 102.793 233.266 101.249C234.058 99.7047 235.291 98.4298 236.807 97.5858C238.324 96.7417 240.057 96.3662 241.787 96.5069C243.517 96.6476 245.167 97.298 246.527 98.3761C247.887 99.4541 248.898 100.911 249.43 102.563C249.962 104.215 249.993 105.988 249.518 107.658C249.043 109.327 248.083 110.818 246.761 111.943C244.986 113.45 242.685 114.19 240.365 114.001C238.044 113.813 235.893 112.71 234.385 110.936Z" fill="black" fill-opacity="0.7"/>
<path d="M244.728 108.561L245.204 109.128L244.231 109.958L243.75 109.39C242.753 109.937 241.768 109.656 240.895 108.625L240.69 108.382L241.82 107.424L242.087 107.742C242.53 108.277 242.939 108.304 243.318 107.984C243.697 107.663 243.743 107.271 243.28 106.725C242.816 106.179 242.303 105.994 240.933 106.032C239.291 106.078 238.448 105.765 237.718 104.901C236.824 103.864 236.726 102.829 237.422 101.937L236.955 101.384L237.918 100.569L238.391 101.124C239.396 100.566 240.389 100.862 241.268 101.895L241.715 102.413L240.585 103.371L240.081 102.778C239.64 102.238 239.217 102.242 238.832 102.561C238.448 102.88 238.38 103.284 238.844 103.83C239.307 104.377 239.852 104.575 241.19 104.524C242.819 104.462 243.671 104.784 244.405 105.655C245.277 106.645 245.407 107.67 244.728 108.561Z" fill="#F6C648"/>
<path opacity="0.2" d="M249.997 104.632C247.641 104.002 245.49 102.771 243.754 101.058C242.019 99.3449 240.759 97.21 240.098 94.8629C241.519 94.7286 242.952 94.8876 244.309 95.33C245.667 95.7724 246.918 96.4888 247.987 97.4348C249.056 98.3807 249.919 99.5361 250.524 100.829C251.128 102.123 251.46 103.526 251.499 104.953C250.993 104.874 250.491 104.767 249.997 104.632Z" fill="black" fill-opacity="0.7"/>
</g>
<path d="M243.333 90.4363C241.841 96.0038 245.145 101.726 250.712 103.218C256.28 104.71 262.002 101.406 263.494 95.8386C264.986 90.2711 261.682 84.5485 256.115 83.0567C250.547 81.5649 244.824 84.8689 243.333 90.4363Z" fill="#F6C648"/>
<path opacity="0.3" d="M244.936 90.8664C243.681 95.5487 246.46 100.362 251.142 101.616C255.825 102.871 260.638 100.092 261.892 95.4098C263.147 90.7274 260.368 85.9146 255.686 84.6599C251.004 83.4053 246.191 86.184 244.936 90.8664Z" fill="black" fill-opacity="0.7"/>
<path d="M258.299 93.7836L259.01 93.9741L258.679 95.2103L257.967 95.0198C257.45 96.0536 256.483 96.3808 255.176 96.0305L254.891 95.9543L255.275 94.5212L255.675 94.6282C256.364 94.8129 256.7 94.6097 256.829 94.1284C256.958 93.647 256.768 93.3032 256.079 93.1185C255.39 92.9339 254.841 93.0798 253.753 93.8788C252.432 94.8497 251.569 95.0523 250.469 94.7577C249.162 94.4074 248.466 93.6347 248.54 92.4821L247.84 92.2945L248.172 91.0583L248.872 91.2459C249.384 90.2106 250.373 89.8893 251.68 90.2396L252.336 90.4155L251.954 91.8431L251.199 91.6408C250.51 91.4562 250.183 91.6911 250.054 92.1724C249.925 92.6537 250.089 93.026 250.778 93.2107C251.467 93.3954 252.033 93.2538 253.106 92.4449C254.416 91.4711 255.29 91.2715 256.395 91.5675C257.666 91.9021 258.348 92.6595 258.299 93.7836Z" fill="#F6C648"/>
<path d="M229.788 147.444C233.671 151.704 240.272 152.009 244.531 148.126C248.791 144.244 249.097 137.643 245.214 133.383C241.331 129.123 234.73 128.818 230.47 132.7C226.21 136.583 225.905 143.184 229.788 147.444Z" fill="#F6C648"/>
<path opacity="0.3" d="M241.598 148.17C240.064 148.982 238.323 149.321 236.596 149.144C234.869 148.966 233.233 148.281 231.896 147.174C230.558 146.067 229.579 144.589 229.082 142.925C228.585 141.262 228.592 139.488 229.103 137.829C229.614 136.169 230.606 134.699 231.953 133.603C233.3 132.508 234.941 131.836 236.67 131.674C238.398 131.511 240.136 131.865 241.663 132.69C243.191 133.515 244.439 134.775 245.251 136.309C245.791 137.328 246.125 138.443 246.234 139.59C246.343 140.738 246.224 141.896 245.885 142.997C245.545 144.099 244.992 145.123 244.257 146.01C243.521 146.898 242.618 147.632 241.598 148.17Z" fill="black" fill-opacity="0.7"/>
<path d="M241.509 137.562L242.187 137.222L242.787 138.35L242.11 138.69C242.405 139.777 241.939 140.684 240.744 141.314L240.47 141.463L239.776 140.158L240.139 139.962C240.769 139.626 240.875 139.25 240.641 138.812C240.406 138.374 240.036 138.246 239.408 138.576C238.781 138.906 238.473 139.398 238.219 140.719C237.915 142.332 237.431 143.088 236.421 143.62C235.227 144.25 234.189 144.142 233.467 143.268L232.825 143.607L232.226 142.473L232.868 142.135C232.542 141.033 233.043 140.124 234.238 139.494L234.841 139.169L235.533 140.48L234.848 140.848C234.219 141.184 234.137 141.578 234.37 142.021C234.603 142.465 234.978 142.618 235.607 142.283C236.236 141.947 236.555 141.458 236.768 140.137C237.065 138.528 237.562 137.765 238.571 137.238C239.77 136.615 240.783 136.705 241.509 137.562Z" fill="#F6C648"/>
<path d="M212.066 15.5777L204.065 93.6555L199.144 141.687L130.376 134.642L116.995 133.272L108.427 132.394L116.021 58.2691L121.349 6.28516L212.066 15.5777Z" fill="white"/>
<mask id="mask1_1_218" style="mask-type:luminance" maskUnits="userSpaceOnUse" x="108" y="6" width="105" height="136">
<path d="M212.064 15.5738L204.063 93.6516L199.142 141.683L130.374 134.639L116.993 133.268L108.425 132.39L116.019 58.2652L121.347 6.28125L212.064 15.5738Z" fill="white"/>
</mask>
<g mask="url(#mask1_1_218)">
<path d="M185.715 18.514L146.557 14.4991C146.382 14.4813 146.206 14.498 146.038 14.5484C145.869 14.5988 145.713 14.6818 145.576 14.7928C145.44 14.9037 145.327 15.0404 145.244 15.195C145.161 15.3497 145.108 15.5192 145.091 15.6939C145.073 15.8687 145.089 16.0453 145.14 16.2135C145.19 16.3818 145.273 16.5385 145.384 16.6747C145.495 16.8109 145.632 16.9239 145.787 17.0073C145.941 17.0907 146.111 17.1427 146.285 17.1606L185.443 21.1755C185.796 21.2115 186.149 21.1059 186.424 20.8818C186.699 20.6577 186.874 20.3336 186.91 19.9806C186.946 19.6277 186.84 19.2749 186.616 18.9999C186.392 18.7248 186.068 18.55 185.715 18.514Z" fill="#3C448A"/>
<path d="M175.363 22.9569L155.787 20.9466C155.61 20.9292 155.433 20.9825 155.295 21.095C155.157 21.2074 155.069 21.3699 155.051 21.5468C155.042 21.6342 155.051 21.7225 155.076 21.8065C155.102 21.8905 155.144 21.9687 155.2 22.0365C155.255 22.1043 155.324 22.1605 155.401 22.2019C155.479 22.2432 155.564 22.2688 155.651 22.2773L175.227 24.2876C175.404 24.305 175.581 24.2517 175.719 24.1392C175.857 24.0268 175.945 23.8643 175.963 23.6874C175.973 23.5998 175.965 23.5113 175.939 23.427C175.914 23.3427 175.872 23.2642 175.816 23.1962C175.761 23.1282 175.692 23.072 175.614 23.0309C175.536 22.9898 175.451 22.9646 175.363 22.9569Z" fill="#3C448A"/>
<path d="M196.91 80.5847L133.352 74.0726C133.18 74.0531 133.006 74.1013 132.869 74.2069C132.732 74.3126 132.641 74.4675 132.616 74.6389C132.598 74.816 132.651 74.9928 132.764 75.1307C132.876 75.2686 133.039 75.3564 133.216 75.375L196.774 81.9381C196.862 81.9467 196.95 81.938 197.034 81.9125C197.118 81.887 197.196 81.8452 197.264 81.7894C197.332 81.7337 197.388 81.6651 197.429 81.5876C197.471 81.5101 197.496 81.4253 197.505 81.3379C197.517 81.2491 197.512 81.1586 197.489 81.0719C197.465 80.9853 197.425 80.9043 197.369 80.8339C197.313 80.7635 197.244 80.7051 197.165 80.6622C197.086 80.6194 197 80.5931 196.91 80.5847Z" fill="#3C448A"/>
<path d="M196.441 85.3698L122.514 77.7987C122.427 77.7893 122.339 77.7973 122.255 77.8222C122.171 77.8471 122.093 77.8883 122.025 77.9436C121.957 77.9989 121.9 78.0671 121.859 78.1443C121.818 78.2215 121.792 78.3062 121.784 78.3933C121.764 78.5655 121.812 78.7385 121.918 78.8759C122.024 79.0132 122.178 79.1041 122.35 79.1295L196.254 86.7006C196.342 86.7095 196.43 86.7011 196.514 86.6759C196.598 86.6507 196.676 86.6092 196.745 86.5537C196.813 86.4983 196.869 86.4299 196.911 86.3526C196.953 86.2753 196.979 86.1905 196.988 86.1031C196.996 86.0158 196.988 85.9275 196.963 85.8433C196.938 85.7592 196.896 85.6808 196.841 85.6128C196.785 85.5447 196.717 85.4882 196.64 85.4465C196.562 85.4048 196.477 85.3787 196.39 85.3698H196.441Z" fill="#3C448A"/>
<path d="M175.234 88.0351L122.005 82.5819C121.828 82.5631 121.651 82.6152 121.513 82.7267C121.375 82.8382 121.287 83 121.268 83.1765C121.25 83.3529 121.302 83.5296 121.413 83.6677C121.525 83.8057 121.687 83.8939 121.863 83.9126L175.093 89.3658C175.18 89.3744 175.268 89.3657 175.352 89.3402C175.436 89.3147 175.515 89.2729 175.582 89.2171C175.65 89.1614 175.706 89.0928 175.748 89.0153C175.789 88.9378 175.815 88.853 175.823 88.7656C175.833 88.6789 175.825 88.5913 175.8 88.5076C175.776 88.424 175.735 88.346 175.68 88.2781C175.626 88.2103 175.558 88.1539 175.482 88.1122C175.405 88.0705 175.321 88.0443 175.234 88.0351Z" fill="#3C448A"/>
<path d="M121.189 87.7436L119.027 108.846L193.532 116.479L195.694 95.3772L121.189 87.7436Z" fill="#B7BBD1"/>
<path d="M155.355 63.3256C162.392 57.462 163.344 47.0034 157.481 39.9657C151.617 32.9281 141.158 31.9762 134.121 37.8398C127.083 43.7034 126.131 54.162 131.995 61.1997C137.858 68.2373 148.317 69.1892 155.355 63.3256Z" fill="#F6C648"/>
<mask id="mask2_1_218" style="mask-type:luminance" maskUnits="userSpaceOnUse" x="128" y="33" width="34" height="35">
<path d="M155.354 63.3258C162.392 57.4622 163.343 47.0037 157.48 39.966C151.616 32.9283 141.158 31.9765 134.12 37.8401C127.082 43.7037 126.131 54.1622 131.994 61.1999C137.858 68.2376 148.316 69.1894 155.354 63.3258Z" fill="white"/>
</mask>
<g mask="url(#mask2_1_218)">
<path opacity="0.5" d="M155.354 63.3258C162.392 57.4622 163.343 47.0037 157.48 39.966C151.616 32.9283 141.158 31.9765 134.12 37.8401C127.082 43.7037 126.131 54.1622 131.994 61.1999C137.858 68.2376 148.316 69.1894 155.354 63.3258Z" fill="white"/>
</g>
<path d="M145.216 50.5423L159.01 57.4792C160.297 54.8063 160.809 51.826 160.487 48.877C160.164 45.9279 159.021 43.1284 157.187 40.7968L145.216 50.5423Z" fill="white"/>
<path d="M145.306 49.7953L156.858 40.3951C155.133 38.34 152.914 36.7576 150.408 35.797L148.307 41.5164L145.306 49.7953Z" fill="#FADD93"/>
<path d="M146.609 34.8672L145.216 48.5257L149.916 35.609C148.843 35.2434 147.735 34.9947 146.609 34.8672Z" fill="#B2A8A3"/>
<path d="M144.496 50.4162L146.098 34.8097C143.368 34.5804 140.625 35.0625 138.136 36.209C135.648 37.3555 133.499 39.1273 131.899 41.3517C130.299 43.576 129.303 46.177 129.008 48.9009C128.713 51.6249 129.128 54.3788 130.214 56.8943L144.496 50.4162Z" fill="#B7BBD1"/>
<path d="M143.125 66.3534C146.274 66.6738 149.447 66.0441 152.236 64.5455C155.024 63.0468 157.3 60.7477 158.771 57.9442L144.733 50.8828L130.423 57.3836C131.592 59.8437 133.374 61.9614 135.599 63.5324C137.823 65.1035 140.415 66.075 143.125 66.3534Z" fill="#DCD0C8"/>
<path d="M171.353 39.8196L169.466 39.6262C169.27 39.6061 169.095 39.7487 169.074 39.9447L168.881 41.8319C168.861 42.0279 169.004 42.2031 169.2 42.2231L171.087 42.4165C171.283 42.4366 171.458 42.294 171.478 42.0979L171.671 40.2108C171.691 40.0148 171.549 39.8396 171.353 39.8196Z" fill="#FADD93"/>
<path d="M197.647 43.4757L173.263 40.9784C173.206 40.9521 173.158 40.9084 173.127 40.8536C173.096 40.7987 173.083 40.7355 173.09 40.6728C173.097 40.6101 173.123 40.5512 173.165 40.5044C173.208 40.4576 173.264 40.4253 173.325 40.4121L197.709 42.8641C197.782 42.8785 197.848 42.92 197.892 42.9802C197.937 43.0405 197.957 43.1153 197.95 43.1898C197.942 43.2644 197.906 43.3333 197.85 43.383C197.794 43.4328 197.722 43.4598 197.647 43.4587V43.4757Z" fill="#263238"/>
<path d="M195.127 44.5298L173.133 42.2647C173.055 42.2561 172.983 42.2168 172.933 42.1553C172.883 42.0937 172.859 42.015 172.867 41.9362C172.871 41.897 172.882 41.8588 172.901 41.824C172.919 41.7892 172.945 41.7585 172.975 41.7337C173.006 41.7088 173.041 41.6904 173.079 41.6795C173.117 41.6686 173.157 41.6654 173.196 41.6701L195.19 43.9352C195.263 43.9496 195.329 43.9911 195.373 44.0513C195.418 44.1116 195.438 44.1864 195.43 44.2609C195.423 44.3355 195.387 44.4044 195.331 44.4541C195.275 44.5039 195.202 44.5309 195.127 44.5298Z" fill="#263238"/>
<path d="M170.757 45.636L168.87 45.4426C168.674 45.4225 168.499 45.5651 168.479 45.7611L168.285 47.6483C168.265 47.8443 168.408 48.0195 168.604 48.0395L170.491 48.2329C170.687 48.253 170.862 48.1104 170.882 47.9144L171.076 46.0272C171.096 45.8312 170.953 45.656 170.757 45.636Z" fill="#757575"/>
<path d="M197.052 49.2911L172.657 46.7938C172.583 46.7794 172.518 46.738 172.473 46.6777C172.428 46.6174 172.408 46.5426 172.416 46.4681C172.424 46.3935 172.459 46.3246 172.515 46.2749C172.571 46.2251 172.644 46.1981 172.719 46.1993L197.097 48.6965C197.176 48.7051 197.249 48.7442 197.3 48.8056C197.35 48.8669 197.375 48.9456 197.369 49.025C197.36 49.1016 197.322 49.1719 197.263 49.2215C197.204 49.271 197.129 49.2959 197.052 49.2911Z" fill="#263238"/>
<path d="M194.526 50.3491L172.538 48.084C172.458 48.0765 172.385 48.0377 172.334 47.9761C172.283 47.9145 172.259 47.8352 172.266 47.7556C172.274 47.676 172.313 47.6026 172.374 47.5516C172.436 47.5007 172.515 47.4762 172.595 47.4838L194.589 49.7488C194.628 49.7529 194.666 49.7647 194.701 49.7836C194.736 49.8025 194.767 49.828 194.792 49.8588C194.817 49.8895 194.835 49.9249 194.847 49.9629C194.858 50.0009 194.862 50.0407 194.858 50.0801C194.854 50.1195 194.842 50.1578 194.823 50.1926C194.804 50.2274 194.779 50.2582 194.748 50.2832C194.717 50.3082 194.682 50.3269 194.644 50.3382C194.606 50.3495 194.566 50.3532 194.526 50.3491Z" fill="#263238"/>
<path d="M170.162 51.4582L168.275 51.2649C168.079 51.2448 167.903 51.3874 167.883 51.5834L167.69 53.4705C167.67 53.6665 167.812 53.8417 168.008 53.8618L169.896 54.0552C170.092 54.0752 170.267 53.9326 170.287 53.7366L170.48 51.8495C170.5 51.6535 170.358 51.4783 170.162 51.4582Z" fill="#999999"/>
<path d="M196.44 55.1127L172.09 52.6097C172.049 52.6091 172.008 52.5998 171.97 52.5825C171.932 52.5651 171.898 52.54 171.87 52.5089C171.843 52.4777 171.822 52.4411 171.809 52.4014C171.796 52.3617 171.792 52.3198 171.796 52.2784C171.801 52.2369 171.814 52.1968 171.834 52.1607C171.855 52.1245 171.883 52.093 171.916 52.0682C171.95 52.0435 171.988 52.026 172.029 52.0168C172.07 52.0077 172.112 52.0071 172.153 52.0152L196.531 54.5124C196.57 54.5165 196.608 54.5283 196.643 54.5472C196.678 54.566 196.709 54.5916 196.734 54.6223C196.759 54.6531 196.777 54.6885 196.789 54.7265C196.8 54.7644 196.804 54.8043 196.8 54.8437C196.796 54.8831 196.784 54.9213 196.765 54.9562C196.746 54.991 196.721 55.0218 196.69 55.0468C196.659 55.0718 196.624 55.0904 196.586 55.1017C196.548 55.113 196.508 55.1168 196.468 55.1127H196.44Z" fill="#263238"/>
<path d="M193.933 56.1652L171.939 53.9001C171.86 53.8915 171.788 53.8522 171.738 53.7906C171.688 53.7291 171.665 53.6504 171.673 53.5716C171.681 53.4925 171.721 53.4198 171.782 53.369C171.843 53.3183 171.922 53.2934 172.001 53.2998L193.995 55.5649C194.075 55.5732 194.148 55.6127 194.199 55.6748C194.249 55.737 194.273 55.8166 194.264 55.8962C194.256 55.9758 194.217 56.0488 194.154 56.0993C194.092 56.1497 194.013 56.1734 193.933 56.1652Z" fill="#263238"/>
<path d="M169.567 57.2746L167.68 57.0813C167.484 57.0612 167.309 57.2038 167.289 57.3998L167.095 59.287C167.075 59.483 167.218 59.6581 167.414 59.6782L169.301 59.8716C169.497 59.8916 169.672 59.749 169.692 59.553L169.886 57.6659C169.906 57.4699 169.763 57.2947 169.567 57.2746Z" fill="#BFBFBF"/>
<path d="M195.873 60.9266L171.495 58.4294C171.456 58.4258 171.417 58.4145 171.382 58.396C171.347 58.3776 171.316 58.3523 171.291 58.3218C171.266 58.2912 171.247 58.256 171.235 58.2181C171.223 58.1802 171.219 58.1404 171.223 58.1009C171.232 58.0218 171.271 57.9491 171.332 57.8983C171.394 57.8476 171.472 57.8227 171.552 57.8291L195.936 60.332C195.977 60.3327 196.018 60.3419 196.056 60.3593C196.094 60.3767 196.128 60.4017 196.156 60.4329C196.183 60.4641 196.204 60.5007 196.217 60.5404C196.23 60.58 196.234 60.622 196.23 60.6634C196.225 60.7049 196.212 60.7449 196.192 60.7811C196.171 60.8173 196.143 60.8488 196.109 60.8735C196.076 60.8983 196.038 60.9158 195.997 60.9249C195.956 60.9341 195.914 60.9347 195.873 60.9266Z" fill="#263238"/>
<path d="M193.338 61.9788L171.344 59.7138C171.271 59.6993 171.205 59.6579 171.161 59.5976C171.116 59.5373 171.096 59.4625 171.104 59.388C171.111 59.3135 171.147 59.2445 171.203 59.1948C171.259 59.145 171.332 59.1181 171.407 59.1192L193.401 61.3843C193.447 61.3743 193.495 61.3755 193.541 61.3878C193.587 61.4001 193.629 61.4232 193.665 61.455C193.7 61.4869 193.727 61.5267 193.744 61.5711C193.761 61.6155 193.767 61.6633 193.762 61.7106C193.757 61.7578 193.74 61.8031 193.714 61.8428C193.688 61.8825 193.653 61.9154 193.611 61.9388C193.57 61.9623 193.524 61.9756 193.476 61.9776C193.429 61.9796 193.382 61.9704 193.338 61.9505V61.9788Z" fill="#263238"/>
<path d="M168.971 63.0929L167.084 62.8995C166.888 62.8794 166.713 63.0221 166.693 63.2181L166.5 65.1052C166.48 65.3012 166.622 65.4764 166.818 65.4964L168.705 65.6898C168.901 65.7099 169.077 65.5673 169.097 65.3713L169.29 63.4841C169.31 63.2881 169.167 63.113 168.971 63.0929Z" fill="white"/>
<path d="M195.262 66.7432L170.878 64.246C170.821 64.2197 170.773 64.176 170.742 64.1211C170.711 64.0663 170.698 64.003 170.705 63.9403C170.712 63.8777 170.739 63.8188 170.781 63.772C170.823 63.7252 170.879 63.6929 170.941 63.6797L195.307 66.1486C195.354 66.1387 195.402 66.1399 195.448 66.1522C195.494 66.1645 195.536 66.1876 195.571 66.2194C195.607 66.2513 195.634 66.2911 195.651 66.3355C195.668 66.3799 195.674 66.4277 195.669 66.4749C195.663 66.5222 195.647 66.5675 195.621 66.6072C195.595 66.6469 195.56 66.6798 195.518 66.7032C195.477 66.7267 195.431 66.7399 195.383 66.742C195.336 66.744 195.288 66.7347 195.245 66.7149L195.262 66.7432Z" fill="#263238"/>
<path d="M192.742 67.7813L170.748 65.5162C170.706 65.5156 170.665 65.5063 170.627 65.489C170.589 65.4716 170.556 65.4465 170.528 65.4154C170.5 65.3842 170.479 65.3476 170.467 65.3079C170.454 65.2682 170.45 65.2263 170.454 65.1849C170.458 65.1434 170.471 65.1033 170.492 65.0672C170.512 65.031 170.541 64.9995 170.574 64.9747C170.608 64.95 170.646 64.9325 170.687 64.9233C170.727 64.9142 170.769 64.9136 170.81 64.9216L192.799 67.1867C192.841 67.1865 192.882 67.1951 192.92 67.212C192.959 67.2288 192.993 67.2535 193.022 67.2844C193.05 67.3154 193.071 67.3519 193.085 67.3917C193.098 67.4315 193.103 67.4736 193.099 67.5153C193.095 67.5571 193.082 67.5975 193.062 67.634C193.041 67.6706 193.013 67.7024 192.979 67.7275C192.946 67.7525 192.907 67.7703 192.866 67.7795C192.825 67.7888 192.783 67.7894 192.742 67.7813Z" fill="#263238"/>
<path d="M184.413 109.363L185.805 109.506L186.62 101.546L185.229 101.403L184.413 109.363Z" fill="white"/>
<path d="M184.539 108.162L185.931 108.305L186.315 104.559L184.923 104.416L184.539 108.162Z" fill="#DFE1EF"/>
<path d="M187.758 107.672L189.149 107.814L189.964 99.8547L188.573 99.7121L187.758 107.672Z" fill="white"/>
<path d="M188.352 101.816L187.968 105.562L189.359 105.705L189.743 101.959L188.352 101.816Z" fill="#DFE1EF"/>
<path d="M190.732 109.514L192.123 109.656L192.939 101.697L191.547 101.554L190.732 109.514Z" fill="white"/>
<path d="M191.037 106.526L192.428 106.668L192.812 102.922L191.421 102.779L191.037 106.526Z" fill="#DFE1EF"/>
<path d="M181.442 107.471L182.834 107.613L183.649 99.6536L182.258 99.5111L181.442 107.471Z" fill="white"/>
<path d="M181.568 106.262L182.96 106.404L183.344 102.658L181.952 102.516L181.568 106.262Z" fill="#DFE1EF"/>
<path d="M178.07 109.498L179.461 109.641L180.277 101.681L178.886 101.538L178.07 109.498Z" fill="white"/>
<path d="M178.159 108.604L179.55 108.746L179.934 105L178.543 104.857L178.159 108.604Z" fill="#DFE1EF"/>
<path d="M175.144 107.121L176.535 107.264L177.351 99.3039L175.96 99.1613L175.144 107.121Z" fill="white"/>
<path d="M175.175 106.83L176.566 106.973L176.95 103.227L175.559 103.084L175.175 106.83Z" fill="#DFE1EF"/>
<path d="M171.583 110.963L172.975 111.105L173.79 103.146L172.399 103.003L171.583 110.963Z" fill="white"/>
<path d="M171.608 110.67L173 110.812L173.384 107.066L171.992 106.924L171.608 110.67Z" fill="#DFE1EF"/>
<path d="M168.963 105.623L170.354 105.766L171.17 97.8058L169.778 97.6633L168.963 105.623Z" fill="white"/>
<path d="M169.089 104.426L170.48 104.568L170.864 100.822L169.473 100.68L169.089 104.426Z" fill="#F6C648"/>
<path d="M165.872 104.848L167.263 104.99L168.079 97.0305L166.687 96.8879L165.872 104.848Z" fill="white"/>
<path d="M166.184 101.838L167.575 101.98L167.959 98.2344L166.568 98.0918L166.184 101.838Z" fill="#DFE1EF"/>
<path d="M162.235 109.52L163.626 109.662L164.442 101.702L163.051 101.56L162.235 109.52Z" fill="white"/>
<path d="M162.573 106.217L163.965 106.359L164.349 102.613L162.957 102.471L162.573 106.217Z" fill="#DFE1EF"/>
<path d="M159.458 105.695L160.85 105.838L161.665 97.8781L160.274 97.7356L159.458 105.695Z" fill="white"/>
<path d="M159.61 104.195L161.002 104.338L161.386 100.592L159.994 100.449L159.61 104.195Z" fill="#DFE1EF"/>
<path d="M156.103 107.459L157.494 107.602L158.31 99.6418L156.918 99.4992L156.103 107.459Z" fill="white"/>
<path d="M156.236 106.25L157.627 106.393L158.011 102.646L156.62 102.504L156.236 106.25Z" fill="#DFE1EF"/>
<path d="M152.605 110.709L153.997 110.852L154.812 102.892L153.421 102.749L152.605 110.709Z" fill="white"/>
<path d="M152.615 110.703L154.007 110.846L154.39 107.1L152.999 106.957L152.615 110.703Z" fill="#DFE1EF"/>
<path d="M149.997 105.344L151.388 105.486L152.204 97.5263L150.812 97.3837L149.997 105.344Z" fill="white"/>
<path d="M150.085 104.438L151.476 104.58L151.86 100.834L150.468 100.691L150.085 104.438Z" fill="#DFE1EF"/>
<path d="M147.212 101.529L148.603 101.672L149.419 93.712L148.027 93.5694L147.212 101.529Z" fill="white"/>
<path d="M147.314 100.625L148.705 100.768L149.089 97.0215L147.698 96.8789L147.314 100.625Z" fill="#DFE1EF"/>
<path d="M143.649 105.418L145.041 105.561L145.856 97.6008L144.465 97.4582L143.649 105.418Z" fill="white"/>
<path d="M143.956 102.426L145.348 102.568L145.732 98.8223L144.34 98.6797L143.956 102.426Z" fill="#DFE1EF"/>
<path d="M140.06 109.594L141.451 109.736L142.267 101.777L140.875 101.634L140.06 109.594Z" fill="white"/>
<path d="M140.425 105.992L141.816 106.135L142.2 102.389L140.809 102.246L140.425 105.992Z" fill="#DFE1EF"/>
<path d="M137.386 104.772L138.777 104.914L139.593 96.9543L138.201 96.8117L137.386 104.772Z" fill="white"/>
<path d="M137.506 103.58L138.897 103.723L139.281 99.9765L137.89 99.834L137.506 103.58Z" fill="#DFE1EF"/>
<path d="M134.387 103.133L135.779 103.275L136.594 95.3156L135.203 95.1731L134.387 103.133Z" fill="white"/>
<path d="M134.726 99.8301L136.118 99.9727L136.501 96.2265L135.11 96.084L134.726 99.8301Z" fill="#DFE1EF"/>
<path d="M130.995 105.297L132.386 105.439L133.202 97.4797L131.81 97.3371L130.995 105.297Z" fill="white"/>
<path d="M131.001 105.289L132.392 105.432L132.776 101.685L131.384 101.543L131.001 105.289Z" fill="#DFE1EF"/>
<path d="M128.118 102.482L129.509 102.625L130.325 94.6652L128.933 94.5227L128.118 102.482Z" fill="white"/>
<path d="M128.18 101.888L129.571 102.031L129.955 98.2849L128.564 98.1423L128.18 101.888Z" fill="#DFE1EF"/>
<path d="M124.877 103.238L126.269 103.381L127.084 95.4211L125.693 95.2785L124.877 103.238Z" fill="white"/>
<path d="M124.906 102.938L126.298 103.08L126.682 99.334L125.29 99.1914L124.906 102.938Z" fill="#DFE1EF"/>
<path d="M121.847 101.893L123.239 102.035L124.054 94.0754L122.663 93.9328L121.847 101.893Z" fill="white"/>
<path d="M122.249 98L123.64 98.1426L124.024 94.3965L122.633 94.2539L122.249 98Z" fill="#F6C648"/>
<path d="M192.958 119.13L129.405 112.613C129.228 112.595 129.051 112.649 128.913 112.761C128.776 112.873 128.688 113.036 128.669 113.213C128.66 113.3 128.668 113.388 128.693 113.472C128.717 113.556 128.759 113.634 128.814 113.702C128.869 113.77 128.937 113.826 129.015 113.868C129.092 113.909 129.177 113.935 129.264 113.943L192.822 120.444C192.999 120.462 193.176 120.408 193.314 120.296C193.452 120.183 193.54 120.021 193.558 119.844C193.571 119.67 193.515 119.498 193.403 119.365C193.291 119.232 193.131 119.148 192.958 119.13Z" fill="#3C448A"/>
<path d="M192.477 123.914L118.567 116.337C118.39 116.32 118.213 116.373 118.075 116.486C117.937 116.598 117.849 116.76 117.831 116.937C117.822 117.025 117.83 117.113 117.855 117.198C117.88 117.282 117.922 117.361 117.978 117.429C118.034 117.497 118.103 117.553 118.18 117.594C118.258 117.635 118.343 117.66 118.431 117.668L192.336 125.245C192.512 125.261 192.687 125.206 192.824 125.094C192.96 124.982 193.047 124.82 193.066 124.644C193.075 124.558 193.068 124.47 193.043 124.386C193.019 124.303 192.978 124.225 192.923 124.157C192.868 124.089 192.801 124.033 192.724 123.991C192.648 123.949 192.564 123.923 192.477 123.914Z" fill="#3C448A"/>
<path d="M160.935 125.54L118.073 121.146C117.896 121.128 117.719 121.182 117.582 121.294C117.444 121.407 117.356 121.569 117.337 121.746C117.329 121.833 117.337 121.922 117.363 122.006C117.388 122.09 117.43 122.168 117.486 122.236C117.542 122.304 117.61 122.36 117.688 122.401C117.765 122.442 117.85 122.468 117.937 122.477L160.799 126.871C160.886 126.88 160.974 126.871 161.059 126.846C161.143 126.821 161.221 126.779 161.289 126.724C161.357 126.669 161.414 126.6 161.455 126.523C161.497 126.446 161.523 126.361 161.532 126.273C161.541 126.186 161.533 126.098 161.507 126.014C161.482 125.929 161.441 125.851 161.385 125.783C161.33 125.715 161.261 125.658 161.184 125.617C161.107 125.575 161.022 125.549 160.935 125.54Z" fill="#3C448A"/>
</g>
<path opacity="0.4" d="M195.774 83.93C195.712 83.9696 195.559 84.0942 195.338 84.2811C195.47 84.0265 195.617 83.7806 195.78 83.5449L195.774 83.93Z" fill="#F6C648"/>
<path d="M190.973 75.2735L192.128 74.1353L192.649 73.9824L192.615 74.5487L191.556 75.9021L190.973 75.2735Z" fill="#757575"/>
<path d="M191.913 75.9082L190.033 80.1665L139.522 147.519L133.899 143.929L141.515 134.348L186.885 77.4371L190.888 74.8945C191.134 74.9578 191.358 75.085 191.538 75.263C191.718 75.4411 191.847 75.6637 191.913 75.9082Z" fill="#F6C648"/>
<mask id="mask3_1_218" style="mask-type:luminance" maskUnits="userSpaceOnUse" x="133" y="74" width="59" height="74">
<path d="M191.914 75.9061L190.034 80.1645L139.523 147.517L133.899 143.927L141.516 134.346L186.886 77.435L190.889 74.8925C191.134 74.9558 191.358 75.0829 191.538 75.261C191.719 75.439 191.848 75.6616 191.914 75.9061Z" fill="white"/>
</mask>
<g mask="url(#mask3_1_218)">
<path opacity="0.3" d="M191.914 75.9077L190.034 80.166L139.523 147.519L133.899 143.928L141.516 134.347C145.027 133.985 145.616 136.046 145.616 136.046L189.134 79.2487C188.703 77.7197 186.869 77.4253 186.869 77.4253L190.872 74.8827C191.122 74.9443 191.35 75.072 191.534 75.2523C191.717 75.4327 191.848 75.659 191.914 75.9077Z" fill="black" fill-opacity="0.7"/>
</g>
<path d="M155.994 127.576C155.994 127.576 150.331 138.765 144.929 146.682L141.055 147.684C141.055 147.684 132.165 156.518 126.74 160.929C125.755 160.317 124.863 159.568 124.09 158.704C124.09 158.704 131.791 143.913 140.314 134.552C141.312 134.906 142.253 135.406 143.105 136.036C144.211 136.82 145.196 137.763 146.027 138.833L155.524 126.885L155.994 127.576Z" fill="#F6C648"/>
<mask id="mask4_1_218" style="mask-type:luminance" maskUnits="userSpaceOnUse" x="124" y="126" width="32" height="35">
<path d="M155.993 127.576C155.993 127.576 150.331 138.765 144.928 146.682L141.055 147.684C141.055 147.684 132.165 156.518 126.74 160.929C125.755 160.317 124.862 159.568 124.09 158.704C124.09 158.704 131.791 143.913 140.313 134.552C141.312 134.906 142.253 135.406 143.105 136.036C144.211 136.82 145.195 137.763 146.027 138.833L155.523 126.885L155.993 127.576Z" fill="white"/>
</mask>
<g mask="url(#mask4_1_218)">
<path opacity="0.3" d="M155.992 127.577C155.992 127.577 150.329 138.766 144.927 146.683L141.054 147.685C141.054 147.685 132.163 156.519 126.738 160.93L126.886 158.529C132.769 149.542 140.244 139.74 143.104 136.037C144.209 136.821 145.194 137.764 146.026 138.834L140.748 145.879L143.772 145.312L155.522 126.863L155.992 127.577Z" fill="black" fill-opacity="0.7"/>
</g>
<path d="M133.227 116.845L57.0294 148.913L49.1752 152.22L34.3728 117.049L0 35.3751L84.052 0L133.227 116.845Z" fill="white"/>
<path d="M62.334 15.2038L26.0529 30.4932C25.7255 30.6306 25.4661 30.8924 25.3317 31.2211C25.1974 31.5498 25.1991 31.9184 25.3366 32.2458C25.474 32.5732 25.7358 32.8326 26.0645 32.9669C26.3932 33.1013 26.7618 33.0996 27.0892 32.9621L63.3647 17.6671C63.5295 17.6012 63.6795 17.5031 63.806 17.3786C63.9324 17.254 64.0328 17.1056 64.1013 16.9418C64.1698 16.778 64.2049 16.6023 64.2048 16.4248C64.2046 16.2473 64.169 16.0716 64.1002 15.908C64.0314 15.7444 63.9306 15.5962 63.8039 15.4719C63.6771 15.3477 63.5269 15.2499 63.362 15.1843C63.197 15.1188 63.0207 15.0867 62.8432 15.0901C62.6658 15.0934 62.4907 15.1321 62.3284 15.2038H62.334Z" fill="#3C448A"/>
<path d="M55.3981 24.0904L37.2774 31.7238C37.1137 31.7929 36.9841 31.9242 36.9172 32.0888C36.8503 32.2534 36.8515 32.4378 36.9206 32.6015C36.9897 32.7652 37.121 32.8948 37.2856 32.9617C37.4502 33.0286 37.6347 33.0274 37.7984 32.9583L55.9191 25.3193C56.0042 25.2882 56.0821 25.2401 56.148 25.178C56.214 25.1158 56.2666 25.0409 56.3027 24.9578C56.3388 24.8747 56.3576 24.7852 56.358 24.6946C56.3584 24.604 56.3404 24.5142 56.305 24.4308C56.2696 24.3474 56.2177 24.2721 56.1523 24.2093C56.0869 24.1466 56.0094 24.0979 55.9246 24.0661C55.8398 24.0342 55.7494 24.02 55.6589 24.0242C55.5684 24.0283 55.4797 24.0509 55.3981 24.0904Z" fill="#3C448A"/>
<path d="M85.2469 70.6152C85.2469 70.6152 86.0113 76.6234 83.7745 77.5634C81.7303 78.4241 79.0405 75.202 76.6905 76.1874C74.3404 77.1727 76.1921 85.7008 73.927 86.6521C71.6619 87.6034 68.9325 84.1039 66.9732 84.9533C65.0139 85.8027 66.2031 90.163 64.1871 91.0124C62.5223 91.7089 60.1439 88.2263 58.2413 87.4619C58.0661 87.3765 57.8754 87.3275 57.6808 87.3177C57.4861 87.308 57.2915 87.3378 57.1087 87.4052C55.1154 88.2433 56.1064 97.4 54.3849 98.1191C53.9034 98.3266 53.3788 98.414 52.856 98.374C52.2155 98.2532 51.5654 98.1906 50.9137 98.1871C50.664 98.2125 50.4197 98.2755 50.1889 98.374C48.7222 98.9912 48.9204 103.81 47.5783 104.376C46.2363 104.943 44.9112 104.241 43.4785 104.841C42.0458 105.441 42.0685 107.95 39.928 108.85L40.834 110.996L92.9935 89.0474" fill="#B7BBD1"/>
<path d="M89.443 80.5705C89.443 80.5705 89.1825 80.2534 88.7975 79.874C88.1236 79.2228 87.0533 78.396 86.2379 78.7415C85.4225 79.0869 85.3715 80.395 85.3885 81.8107C85.3885 83.5095 85.5584 85.3782 84.692 85.7406C83.9558 86.0521 83.2989 85.5877 82.6194 85.0781C81.8436 84.5118 81.0508 83.8662 80.0938 84.2683C78.4856 84.9478 78.9613 87.043 78.395 88.8381C78.2412 89.3546 77.9692 89.8282 77.6006 90.2213C77.232 90.6145 76.777 90.9164 76.2715 91.1032C74.8841 91.6695 73.4741 91.1032 72.1434 90.2085C69.8783 88.6796 67.885 86.1993 66.5825 86.7486C64.5043 87.6263 66.7921 93.2437 64.561 94.1837C63.3152 94.7104 60.7329 90.7861 58.2244 87.3885C56.2424 84.71 54.3057 82.3769 53.1279 82.8583C50.4381 83.9908 54.872 97.4285 52.9184 98.2496L52.8561 98.2779C52.5417 98.4076 52.2003 98.4584 51.8617 98.4259C51.5231 98.3933 51.1977 98.2783 50.9138 98.091C50.2116 97.6947 49.634 97.1227 48.8582 97.4512C47.4142 98.0627 48.2579 103.329 46.6724 103.997C45.0868 104.665 44.1298 103.697 42.3404 104.45C40.8284 105.09 39.9281 108.754 39.9281 108.754L40.8341 110.9L92.9936 88.9514" fill="#DCD0C8"/>
<path d="M78.3981 98.4785L60.2774 106.112C60.1137 106.181 59.9841 106.312 59.9172 106.477C59.8503 106.641 59.8515 106.826 59.9206 106.99C59.9897 107.153 60.121 107.283 60.2856 107.35C60.4502 107.417 60.6347 107.415 60.7984 107.346L78.9191 99.713C79.0828 99.6439 79.2124 99.5126 79.2793 99.348C79.3462 99.1834 79.345 98.9989 79.2759 98.8352C79.2068 98.6715 79.0755 98.542 78.9109 98.4751C78.7463 98.4082 78.5618 98.4094 78.3981 98.4785Z" fill="#3C448A"/>
<path d="M92.7673 68.4286L91.0188 69.1644C90.8372 69.2408 90.7519 69.45 90.8283 69.6316L91.564 71.3801C91.6405 71.5617 91.8496 71.647 92.0312 71.5706L93.7798 70.8348C93.9614 70.7584 94.0466 70.5493 93.9702 70.3676L93.2345 68.6191C93.1581 68.4375 92.9489 68.3522 92.7673 68.4286Z" fill="#BFBFBF"/>
<path d="M102.252 65.4607L95.0041 68.5129C94.9296 68.5416 94.8469 68.5405 94.7731 68.5099C94.6994 68.4794 94.6401 68.4216 94.6077 68.3487C94.5775 68.2758 94.5771 68.1939 94.6068 68.1208C94.6365 68.0477 94.6938 67.9892 94.7663 67.958L102.02 64.9057C102.093 64.8755 102.175 64.8752 102.248 64.9048C102.321 64.9345 102.38 64.9918 102.411 65.0643C102.427 65.1007 102.435 65.1399 102.436 65.1796C102.436 65.2193 102.429 65.2587 102.414 65.2956C102.4 65.3325 102.378 65.366 102.35 65.3944C102.322 65.4227 102.289 65.4453 102.252 65.4607Z" fill="#263238"/>
<path d="M100.548 67.5955L95.5082 69.7133C95.4353 69.7436 95.3535 69.7439 95.2803 69.7142C95.2072 69.6845 95.1487 69.6273 95.1175 69.5548C95.1016 69.5184 95.0932 69.4792 95.0926 69.4395C95.092 69.3997 95.0992 69.3603 95.114 69.3235C95.1287 69.2866 95.1507 69.253 95.1785 69.2247C95.2063 69.1963 95.2395 69.1738 95.2761 69.1584L100.316 67.0405C100.389 67.0103 100.471 67.0099 100.544 67.0396C100.617 67.0693 100.675 67.1266 100.707 67.1991C100.737 67.2728 100.738 67.3555 100.708 67.4295C100.678 67.5036 100.621 67.5631 100.548 67.5955Z" fill="#263238"/>
<path d="M95.0356 73.8194L93.2871 74.5551C93.1055 74.6315 93.0202 74.8407 93.0966 75.0223L93.8323 76.7708C93.9088 76.9524 94.1179 77.0377 94.2995 76.9613L96.0481 76.2256C96.2297 76.1492 96.3149 75.94 96.2385 75.7584L95.5028 74.0099C95.4264 73.8282 95.2172 73.743 95.0356 73.8194Z" fill="#757575"/>
<path d="M104.518 70.8507L97.2693 73.8972C97.2321 73.9125 97.1923 73.9202 97.1521 73.9201C97.1119 73.9199 97.0721 73.9119 97.0351 73.8964C96.998 73.8809 96.9643 73.8582 96.936 73.8297C96.9077 73.8012 96.8853 73.7674 96.87 73.7302C96.8548 73.693 96.847 73.6532 96.8472 73.613C96.8473 73.5728 96.8554 73.533 96.8709 73.496C96.8864 73.4589 96.9091 73.4252 96.9376 73.3969C96.9661 73.3686 96.9999 73.3462 97.0371 73.3309L104.285 70.2787C104.323 70.2635 104.362 70.2557 104.403 70.2559C104.443 70.256 104.483 70.2641 104.52 70.2796C104.557 70.2951 104.59 70.3178 104.619 70.3463C104.647 70.3748 104.669 70.4086 104.685 70.4458C104.7 70.483 104.708 70.5228 104.707 70.563C104.707 70.6032 104.699 70.6429 104.684 70.68C104.668 70.7171 104.646 70.7507 104.617 70.779C104.589 70.8073 104.555 70.8298 104.518 70.845V70.8507Z" fill="#263238"/>
<path d="M102.813 72.98L97.7786 75.1035C97.7035 75.135 97.6189 75.1355 97.5435 75.1047C97.4681 75.0739 97.408 75.0144 97.3765 74.9393C97.345 74.8642 97.3445 74.7796 97.3753 74.7042C97.4061 74.6288 97.4656 74.5688 97.5407 74.5372L102.581 72.4194C102.618 72.4041 102.658 72.3963 102.698 72.3965C102.738 72.3966 102.778 72.4047 102.815 72.4202C102.852 72.4357 102.885 72.4584 102.914 72.4869C102.942 72.5154 102.965 72.5492 102.98 72.5864C102.995 72.6236 103.003 72.6634 103.003 72.7036C103.003 72.7438 102.994 72.7835 102.979 72.8206C102.963 72.8577 102.941 72.8913 102.912 72.9197C102.884 72.948 102.85 72.9704 102.813 72.9856V72.98Z" fill="#263238"/>
<path d="M114.053 93.0729L55.1602 117.853C54.9965 117.922 54.8669 118.053 54.8 118.218C54.7331 118.383 54.7344 118.567 54.8034 118.731C54.8725 118.894 55.0038 119.024 55.1684 119.091C55.333 119.158 55.5175 119.157 55.6812 119.087L114.574 94.3017C114.659 94.2706 114.737 94.2225 114.803 94.1604C114.868 94.0983 114.921 94.0234 114.957 93.9403C114.993 93.8572 115.012 93.7676 115.013 93.677C115.013 93.5864 114.995 93.4967 114.96 93.4132C114.924 93.3298 114.872 93.2545 114.807 93.1918C114.741 93.1291 114.664 93.0803 114.579 93.0485C114.494 93.0166 114.404 93.0024 114.313 93.0066C114.223 93.0108 114.134 93.0333 114.053 93.0729Z" fill="#3C448A"/>
<path d="M115.921 97.5073L47.442 126.325C47.3569 126.356 47.279 126.404 47.2131 126.466C47.1471 126.528 47.0945 126.603 47.0584 126.686C47.0223 126.769 47.0035 126.859 47.0031 126.95C47.0027 127.04 47.0208 127.13 47.0561 127.213C47.0915 127.297 47.1435 127.372 47.2088 127.435C47.2742 127.498 47.3517 127.546 47.4365 127.578C47.5213 127.61 47.6118 127.624 47.7023 127.62C47.7928 127.616 47.8815 127.593 47.963 127.554L116.437 98.7361C116.524 98.7071 116.605 98.6604 116.673 98.5988C116.741 98.5373 116.796 98.4622 116.835 98.3784C116.873 98.2946 116.893 98.2038 116.894 98.1118C116.896 98.0197 116.878 97.9284 116.842 97.8435C116.807 97.7586 116.754 97.682 116.688 97.6185C116.621 97.5549 116.542 97.5058 116.455 97.4742C116.369 97.4427 116.277 97.4293 116.185 97.435C116.093 97.4407 116.003 97.4653 115.921 97.5073Z" fill="#3C448A"/>
<path d="M117.785 101.94L49.311 130.758C49.2259 130.789 49.148 130.837 49.082 130.899C49.0161 130.961 48.9635 131.036 48.9274 131.119C48.8913 131.202 48.8725 131.292 48.8721 131.382C48.8717 131.473 48.8897 131.563 48.9251 131.646C48.9604 131.73 49.0124 131.805 49.0778 131.868C49.1432 131.93 49.2206 131.979 49.3055 132.011C49.3903 132.043 49.4807 132.057 49.5712 132.053C49.6617 132.049 49.7504 132.026 49.8319 131.987L118.294 103.169C118.38 103.138 118.457 103.09 118.523 103.028C118.589 102.965 118.642 102.891 118.678 102.807C118.714 102.724 118.733 102.635 118.733 102.544C118.734 102.454 118.716 102.364 118.68 102.28C118.645 102.197 118.593 102.122 118.528 102.059C118.462 101.996 118.385 101.947 118.3 101.916C118.215 101.884 118.125 101.87 118.034 101.874C117.944 101.878 117.855 101.901 117.773 101.94H117.785Z" fill="#3C448A"/>
<path d="M119.652 106.372L51.1784 135.167C51.091 135.196 51.0106 135.242 50.9421 135.304C50.8737 135.365 50.8187 135.44 50.7806 135.524C50.7425 135.608 50.7221 135.699 50.7208 135.791C50.7194 135.883 50.7371 135.974 50.7727 136.059C50.8083 136.144 50.8611 136.221 50.9277 136.284C50.9943 136.348 51.0733 136.397 51.1598 136.428C51.2462 136.46 51.3383 136.473 51.4302 136.468C51.5221 136.462 51.6118 136.437 51.6937 136.395L120.168 107.578C120.255 107.549 120.335 107.502 120.404 107.44C120.472 107.379 120.527 107.304 120.565 107.22C120.603 107.136 120.624 107.046 120.625 106.953C120.626 106.861 120.609 106.77 120.573 106.685C120.538 106.6 120.485 106.524 120.418 106.46C120.352 106.397 120.273 106.347 120.186 106.316C120.1 106.284 120.008 106.271 119.916 106.277C119.824 106.282 119.734 106.307 119.652 106.349V106.372Z" fill="#3C448A"/>
<path d="M92.7535 122.908L53.0407 139.625C52.9556 139.656 52.8777 139.704 52.8118 139.766C52.7458 139.828 52.6932 139.903 52.6571 139.986C52.621 140.069 52.6022 140.159 52.6018 140.249C52.6014 140.34 52.6195 140.43 52.6548 140.513C52.6902 140.596 52.7421 140.672 52.8075 140.735C52.8729 140.797 52.9504 140.846 53.0352 140.878C53.12 140.91 53.2104 140.924 53.3009 140.92C53.3914 140.915 53.4802 140.893 53.5617 140.853L93.2744 124.143C93.3555 124.108 93.429 124.059 93.4908 123.996C93.5526 123.933 93.6015 123.859 93.6346 123.778C93.6677 123.696 93.6845 123.609 93.6839 123.521C93.6833 123.433 93.6654 123.346 93.6312 123.265C93.597 123.184 93.5471 123.11 93.4845 123.049C93.4219 122.987 93.3477 122.938 93.2662 122.905C93.1847 122.872 93.0975 122.855 93.0095 122.855C92.9215 122.856 92.8345 122.874 92.7535 122.908Z" fill="#3C448A"/>
<path d="M70.8853 36.4668C70.8853 36.4668 71.6497 42.4806 69.413 43.4206C67.3687 44.2814 64.6733 41.0593 62.3289 42.0446C59.9845 43.0299 61.8306 51.5523 59.5655 52.5093C57.3004 53.4663 54.5653 49.9611 52.6116 50.7822C50.658 51.6033 51.8415 55.9919 49.8256 56.8357C48.1607 57.5378 45.7824 54.0553 43.8797 53.2908C43.7045 53.2054 43.5138 53.1564 43.3192 53.1466C43.1246 53.1369 42.93 53.1667 42.7471 53.2342C40.7539 54.0722 41.7448 63.2232 40.0234 63.9481C39.5423 64.1567 39.0169 64.2423 38.4944 64.1972C37.8533 64.0816 37.2035 64.0209 36.5521 64.016C36.3023 64.0408 36.0579 64.1038 35.8273 64.2029C34.3606 64.8201 34.5588 69.6391 33.2168 70.1997C31.8747 70.7603 30.5496 70.0695 29.1169 70.6697C27.6843 71.27 27.7069 73.7786 25.5664 74.6789L26.4724 76.8251L78.6546 54.8764" fill="#B7BBD1"/>
<path d="M74.2552 44.4802C74.2552 44.4802 74.7309 47.3909 73.5813 47.8779C72.6243 48.2799 72.0354 47.7193 71.0274 47.6853C70.5352 47.6704 70.0458 47.7652 69.5948 47.9628C68.6717 48.3479 68.4622 49.5937 68.2867 50.9301C68.0828 52.5779 67.9809 54.3674 66.7747 54.894C65.931 55.2507 65.0193 55.0412 64.0793 54.7128C62.5786 54.1918 61.0044 53.3651 59.4811 54.0049C58.745 54.3164 58.2297 55.1375 57.8276 56.1058C56.8819 58.4445 56.5875 61.8308 55.5625 62.2612C54.1072 62.8784 51.44 60.3755 50.1489 60.9191C48.8578 61.4628 49.3845 63.7052 48.3369 64.1469C47.2893 64.5886 46.689 63.2862 44.8429 64.062C42.9969 64.8377 43.8973 67.5672 41.2924 68.6658C38.6876 69.7643 37.5437 67.7427 35.0294 68.8017C32.5152 69.8606 32.9682 71.7746 31.1901 72.5221C29.412 73.2696 28.6645 71.9558 27.3961 72.5221C26.1276 73.0884 25.8218 75.0647 25.8048 75.1892L26.5013 76.8428L78.6551 54.877" fill="#FADD93"/>
<path d="M63.8755 63.9668L45.7547 71.6002C45.591 71.6685 45.4612 71.799 45.3937 71.9631C45.3263 72.1272 45.3268 72.3113 45.3951 72.475C45.4635 72.6387 45.594 72.7686 45.7581 72.836C45.9222 72.9035 46.1063 72.903 46.27 72.8346L64.3908 65.2013C64.4718 65.167 64.5454 65.1172 64.6071 65.0546C64.6689 64.992 64.7178 64.9178 64.7509 64.8363C64.7841 64.7548 64.8008 64.6675 64.8002 64.5796C64.7996 64.4916 64.7817 64.4046 64.7475 64.3235C64.7133 64.2425 64.6635 64.1689 64.6009 64.1072C64.5382 64.0454 64.464 63.9965 64.3825 63.9634C64.301 63.9302 64.2138 63.9135 64.1258 63.9141C64.0379 63.9147 63.9509 63.9326 63.8698 63.9668H63.8755Z" fill="#3C448A"/>
<path d="M77.4858 32.1259L75.7373 32.8616C75.5557 32.9381 75.4704 33.1472 75.5468 33.3288L76.2825 35.0774C76.359 35.259 76.5681 35.3442 76.7497 35.2678L78.4983 34.5321C78.6799 34.4557 78.7651 34.2465 78.6887 34.0649L77.953 32.3164C77.8766 32.1348 77.6674 32.0495 77.4858 32.1259Z" fill="#BFBFBF"/>
<path d="M86.9732 29.1552L79.7249 32.2074C79.6504 32.236 79.5677 32.235 79.4939 32.2044C79.4201 32.1739 79.3609 32.1161 79.3285 32.0432C79.2986 31.9696 79.2991 31.8871 79.3298 31.8139C79.3606 31.7406 79.4192 31.6826 79.4927 31.6524L86.741 28.6002C86.8146 28.5703 86.8971 28.5708 86.9703 28.6016C87.0436 28.6324 87.1016 28.6909 87.1317 28.7644C87.1475 28.8004 87.1559 28.8392 87.1564 28.8785C87.157 28.9178 87.1496 28.9568 87.1348 28.9932C87.1201 29.0296 87.0981 29.0627 87.0704 29.0905C87.0426 29.1184 87.0096 29.1403 86.9732 29.1552Z" fill="#263238"/>
<path d="M85.2681 31.2921L80.2282 33.41C80.1532 33.4408 80.0689 33.4405 79.994 33.4091C79.9192 33.3778 79.8598 33.318 79.829 33.2429C79.7982 33.1678 79.7985 33.0836 79.8299 33.0087C79.8612 32.9339 79.921 32.8745 79.9961 32.8437L85.0359 30.7202C85.1088 30.6899 85.1907 30.6896 85.2638 30.7193C85.3369 30.749 85.3954 30.8063 85.4266 30.8787C85.4444 30.9161 85.4544 30.9568 85.456 30.9981C85.4576 31.0395 85.4507 31.0807 85.4359 31.1194C85.4211 31.1581 85.3986 31.1933 85.3697 31.223C85.3409 31.2527 85.3063 31.2762 85.2681 31.2921Z" fill="#263238"/>
<path d="M79.7622 37.5165L78.0136 38.2523C77.832 38.3287 77.7468 38.5378 77.8232 38.7195L78.5589 40.468C78.6353 40.6496 78.8445 40.7349 79.0261 40.6585L80.7746 39.9227C80.9562 39.8463 81.0415 39.6371 80.9651 39.4555L80.2294 37.707C80.153 37.5254 79.9438 37.4401 79.7622 37.5165Z" fill="#FADD93"/>
<path d="M89.2397 34.5466L81.9914 37.5988C81.9178 37.6287 81.8353 37.6282 81.7621 37.5974C81.6888 37.5667 81.6308 37.5081 81.6006 37.4346C81.5849 37.3986 81.5765 37.3598 81.576 37.3205C81.5754 37.2812 81.5828 37.2422 81.5975 37.2058C81.6123 37.1694 81.6342 37.1363 81.662 37.1085C81.6898 37.0806 81.7228 37.0587 81.7592 37.0438L89.0075 33.9916C89.0447 33.9764 89.0845 33.9686 89.1247 33.9688C89.1649 33.9689 89.2046 33.977 89.2417 33.9925C89.2788 34.008 89.3124 34.0306 89.3407 34.0592C89.369 34.0877 89.3915 34.1215 89.4067 34.1587C89.422 34.1959 89.4297 34.2357 89.4296 34.2759C89.4294 34.316 89.4214 34.3558 89.4059 34.3929C89.3904 34.4299 89.3677 34.4636 89.3392 34.4919C89.3107 34.5202 89.2768 34.5427 89.2397 34.5579V34.5466Z" fill="#263238"/>
<path d="M87.5334 36.6829L82.4993 38.8008C82.4242 38.8323 82.3396 38.8327 82.2642 38.8019C82.1888 38.7711 82.1287 38.7116 82.0972 38.6365C82.0657 38.5614 82.0652 38.4769 82.096 38.4015C82.1268 38.3261 82.1863 38.266 82.2614 38.2345L87.3013 36.1166C87.3384 36.1014 87.3783 36.0936 87.4184 36.0938C87.4586 36.0939 87.4984 36.102 87.5355 36.1175C87.5725 36.133 87.6062 36.1556 87.6345 36.1842C87.6628 36.2127 87.6852 36.2465 87.7005 36.2837C87.7157 36.3209 87.7235 36.3607 87.7234 36.4009C87.7232 36.441 87.7151 36.4808 87.6996 36.5179C87.6841 36.5549 87.6615 36.5886 87.6329 36.6169C87.6044 36.6452 87.5706 36.6677 87.5334 36.6829Z" fill="#263238"/>
</svg>
