<svg width="68" height="68" viewBox="0 0 68 68" fill="none" xmlns="http://www.w3.org/2000/svg">
<circle cx="33.685" cy="33.685" r="33.685" fill="#27307D" fill-opacity="0.12"/>
<g clip-path="url(#clip0_1_557)">
<path d="M26.7365 42.3778H41.2672C41.6154 42.3778 41.8972 42.096 41.8972 41.7478C41.8972 38.256 39.6162 35.2908 36.4675 34.2521C40.4487 31.764 38.67 25.6215 34.0021 25.6215C29.3342 25.6215 27.5463 31.7581 31.5367 34.2521C28.3879 35.2908 26.1069 38.2555 26.1069 41.7478C26.1069 42.096 26.3883 42.3778 26.7365 42.3778ZM34.0017 26.8815C35.8824 26.8815 37.4125 28.4116 37.4125 30.2923C37.4125 32.1731 35.8824 33.7032 34.0017 33.7032C32.1209 33.7032 30.5908 32.1731 30.5908 30.2923C30.5908 28.4116 32.1209 26.8815 34.0017 26.8815ZM40.6074 41.1178H27.3963C27.7143 37.7532 30.5556 35.1127 34.0021 35.1127C37.4486 35.1127 40.2891 37.7536 40.6074 41.1178ZM16.5952 31.8409C17.5771 23.8487 23.8465 17.5815 31.8408 16.5999C32.6631 16.4941 32.8257 17.7482 31.9941 17.8507C24.5752 18.7612 18.7573 24.5774 17.8459 31.995C17.7443 32.8224 16.4935 32.6683 16.5952 31.8409ZM36.1592 16.5999C44.1539 17.5815 50.4228 23.8491 51.4048 31.8413C51.5064 32.6687 50.2557 32.8228 50.154 31.995C49.243 24.5778 43.4248 18.7617 36.0055 17.8507C35.1781 17.749 35.3322 16.4966 36.1592 16.5999ZM51.4048 36.1585C50.4228 44.1507 44.1535 50.4179 36.1592 51.3999C35.3326 51.504 35.1789 50.2512 36.0059 50.1491C43.4252 49.2381 49.2435 43.4215 50.1544 36.0048C50.2561 35.1732 51.506 35.3332 51.4048 36.1585ZM31.9945 50.1491C32.816 50.2499 32.6749 51.5049 31.8412 51.3999C23.8465 50.4183 17.5776 44.1511 16.5956 36.1585C16.4944 35.334 17.7439 35.1719 17.8464 36.0048C18.7578 43.422 24.5756 49.2381 31.9949 50.1491H31.9945ZM15.73 34.6297H19.5726C19.8947 42.091 25.9062 48.1008 33.37 48.4229V52.2642C33.37 53.0979 34.63 53.0979 34.63 52.2642V48.4229C42.0934 48.1008 48.1048 42.091 48.4274 34.6297H52.27C53.1037 34.6297 53.1037 33.3697 52.27 33.3697H48.4274C48.1053 25.9084 42.0938 19.8986 34.63 19.5765V15.7351C34.63 14.9014 33.37 14.9014 33.37 15.7351V19.5765C25.9066 19.8986 19.8951 25.9084 19.5726 33.3697H15.73C14.8963 33.3697 14.8963 34.6297 15.73 34.6297ZM34 20.8205C41.2693 20.8205 47.1834 26.7328 47.1834 33.9997C47.1834 41.2665 41.2693 47.1789 34 47.1789C26.7306 47.1789 20.8166 41.2665 20.8166 33.9997C20.8166 26.7328 26.7306 20.8205 34 20.8205Z" fill="black"/>
</g>
<defs>
<clipPath id="clip0_1_557">
<rect width="42" height="42" fill="white" transform="translate(13 13)"/>
</clipPath>
</defs>
</svg>
