<svg width="29" height="29" viewBox="0 0 29 29" fill="none" xmlns="http://www.w3.org/2000/svg">
<path fill-rule="evenodd" clip-rule="evenodd" d="M22.8932 19.0446V12.3461V9.00608C22.8932 7.26192 21.4382 5.84399 19.6491 5.84399H9.35286C7.5638 5.84399 6.10938 7.26192 6.10938 9.00608V12.3461V19.0446C6.10938 20.7893 7.5638 22.2072 9.35286 22.2072H19.6497C21.4382 22.2072 22.8932 20.7893 22.8932 19.0446ZM17.4569 14.0248C17.4569 15.6131 16.1296 16.9047 14.5017 16.9047C12.8731 16.9047 11.547 15.6125 11.5488 14.0242C11.5494 13.3972 11.758 12.8184 12.1075 12.3455C12.6454 11.6201 13.5174 11.1449 14.5034 11.1449C15.4889 11.1449 16.3615 11.6206 16.8982 12.3461C17.2465 12.8189 17.4569 13.3978 17.4569 14.0248ZM20.9507 10.5017V8.08766V7.72839L20.5804 7.72955L18.1055 7.73709L18.115 10.5109L20.9507 10.5017ZM14.5015 18.4999C17.033 18.4999 19.0919 16.4915 19.0919 14.0247C19.0919 13.4314 18.9688 12.8641 18.7507 12.3461H21.2572V19.0446C21.2572 19.9103 20.535 20.6114 19.6488 20.6114H9.35251C8.46511 20.6114 7.74414 19.9103 7.74414 19.0446V12.3461H10.2494C10.0331 12.8641 9.91181 13.4314 9.91181 14.0247C9.91181 16.4915 11.9701 18.4999 14.5015 18.4999Z" fill="#27307D"/>
<mask id="mask0_1_1179" style="mask-type:luminance" maskUnits="userSpaceOnUse" x="6" y="5" width="17" height="18">
<path fill-rule="evenodd" clip-rule="evenodd" d="M22.8932 19.0446V12.3461V9.00608C22.8932 7.26192 21.4382 5.84399 19.6491 5.84399H9.35286C7.5638 5.84399 6.10938 7.26192 6.10938 9.00608V12.3461V19.0446C6.10938 20.7893 7.5638 22.2072 9.35286 22.2072H19.6497C21.4382 22.2072 22.8932 20.7893 22.8932 19.0446ZM17.4569 14.0248C17.4569 15.6131 16.1296 16.9047 14.5017 16.9047C12.8731 16.9047 11.547 15.6125 11.5488 14.0242C11.5494 13.3972 11.758 12.8184 12.1075 12.3455C12.6454 11.6201 13.5174 11.1449 14.5034 11.1449C15.4889 11.1449 16.3615 11.6206 16.8982 12.3461C17.2465 12.8189 17.4569 13.3978 17.4569 14.0248ZM20.9507 10.5017V8.08766V7.72839L20.5804 7.72955L18.1055 7.73709L18.115 10.5109L20.9507 10.5017ZM14.5015 18.4999C17.033 18.4999 19.0919 16.4915 19.0919 14.0247C19.0919 13.4314 18.9688 12.8641 18.7507 12.3461H21.2572V19.0446C21.2572 19.9103 20.535 20.6114 19.6488 20.6114H9.35251C8.46511 20.6114 7.74414 19.9103 7.74414 19.0446V12.3461H10.2494C10.0331 12.8641 9.91181 13.4314 9.91181 14.0247C9.91181 16.4915 11.9701 18.4999 14.5015 18.4999Z" fill="white"/>
</mask>
<g mask="url(#mask0_1_1179)">
<rect x="0.115234" width="28.7733" height="28.0512" fill="#27307D"/>
</g>
</svg>
