<svg width="68" height="68" viewBox="0 0 68 68" fill="none" xmlns="http://www.w3.org/2000/svg">
<g clip-path="url(#clip0_1_525)">
<path d="M33.5 12.8166C32.4649 12.8166 31.6052 13.6051 31.4848 14.6143L20.0646 21.3725C19.711 21.1148 19.2913 20.9857 18.8721 20.9857C18.3515 20.9857 17.831 21.1853 17.4361 21.5823C16.6463 22.3762 16.6463 23.6762 17.4361 24.4701C17.7282 24.7637 18.0887 24.9487 18.4675 25.0252V38.174C18.0889 38.2501 17.728 38.434 17.4361 38.7275C16.6463 39.5214 16.6463 40.8214 17.4361 41.6153C18.1488 42.3317 19.2711 42.4008 20.0638 41.8242L31.4848 48.5857C31.6053 49.5948 32.4649 50.3833 33.5 50.3833C34.5351 50.3833 35.3948 49.5948 35.5152 48.5857L46.9362 41.8242C47.7289 42.4008 48.8512 42.3317 49.5639 41.6153C50.3537 40.8214 50.3537 39.5214 49.5639 38.7275C49.272 38.434 48.9111 38.2501 48.5325 38.174V25.0252C48.9112 24.9486 49.272 24.7636 49.5639 24.4701C50.3537 23.6762 50.3537 22.3762 49.5639 21.5823C49.169 21.1853 48.6477 20.9857 48.1271 20.9857C47.7079 20.9857 47.289 21.1149 46.9354 21.3725L35.5152 14.6159C35.3955 13.606 34.5357 12.8166 33.5 12.8166ZM33.5 13.6333C34.1779 13.6333 34.7171 14.1761 34.7171 14.8575C34.7171 15.5389 34.1779 16.0841 33.5 16.0841C32.8221 16.0841 32.2821 15.5389 32.2821 14.8575C32.2821 14.1761 32.8222 13.6333 33.5 13.6333ZM31.576 15.5075C31.8474 16.3148 32.6088 16.9008 33.5 16.9008C34.3912 16.9008 35.1526 16.3148 35.424 15.5075L46.3784 21.9882C45.9207 22.7705 46.0248 23.8004 46.691 24.4701C46.9821 24.7627 47.3418 24.9475 47.7193 25.0244V38.1748C47.3418 38.2512 46.9821 38.4348 46.691 38.7275C46.0248 39.3971 45.9207 40.4262 46.3784 41.2086L35.424 47.6925C35.1524 46.8855 34.3909 46.2992 33.5 46.2992C32.6091 46.2992 31.8476 46.8855 31.576 47.6925L20.6216 41.2086C21.0791 40.4263 20.9751 39.3971 20.309 38.7275C20.0177 38.4347 19.6576 38.2512 19.2799 38.1748V25.0244C19.6577 24.9475 20.0176 24.7629 20.309 24.4701C20.9751 23.8005 21.0791 22.7705 20.6216 21.9882L31.576 15.5075ZM33.5 17.7182C33.2769 17.7191 33.0962 17.9007 33.0954 18.125V21.7992C33.0945 22.0247 33.2757 22.2082 33.5 22.2091C33.7243 22.2082 33.9055 22.0247 33.9046 21.7992V18.125C33.9038 17.9007 33.7231 17.7191 33.5 17.7182ZM18.8737 21.7968C19.1849 21.7968 19.4965 21.9172 19.7361 22.1581C20.2154 22.6398 20.2154 23.4093 19.7361 23.8911C19.2568 24.3729 18.4914 24.3729 18.0121 23.8911C17.5328 23.4093 17.5328 22.6398 18.0121 22.1581C18.2517 21.9171 18.5625 21.7968 18.8737 21.7968ZM48.1255 21.7968C48.4367 21.7968 48.7483 21.9172 48.9879 22.1581C49.4672 22.6398 49.4672 23.4093 48.9879 23.8911C48.5086 24.3729 47.7432 24.3729 47.2639 23.8911C46.7846 23.4093 46.7846 22.6398 47.2639 22.1581C47.5035 21.9171 47.8143 21.7968 48.1255 21.7968ZM31.7902 23.0258C31.5656 23.0249 31.3829 23.2075 31.3824 23.4333V25.1121L30.4319 25.5069L29.2506 24.3217C29.0921 24.1634 28.8362 24.1634 28.6777 24.3217L26.2579 26.7518C26.0988 26.9114 26.0988 27.1705 26.2579 27.33L27.4392 28.5184L27.0465 29.4738H25.3764C25.1521 29.4729 24.9695 29.655 24.9686 29.8805V33.3194C24.9691 33.5452 25.1518 33.7278 25.3764 33.727H27.0465L27.4392 34.6824L26.2579 35.8699C26.0982 36.0296 26.0982 36.2893 26.2579 36.449L28.6777 38.8782C28.8362 39.0366 29.0921 39.0366 29.2506 38.8782L30.4319 37.6931L31.3824 38.0887V39.7674C31.3833 39.9929 31.5659 40.1751 31.7902 40.1742H35.209C35.4333 40.1751 35.6159 39.9929 35.6168 39.7674V38.0887L36.5673 37.6931L37.7486 38.8782C37.9071 39.0366 38.163 39.0366 38.3215 38.8782L40.7413 36.449C40.901 36.2893 40.901 36.0296 40.7413 35.8699L39.56 34.6824L39.9527 33.727H41.6236C41.8482 33.7278 42.0309 33.5452 42.0314 33.3194V29.8805C42.0305 29.655 41.8479 29.4729 41.6236 29.4738H39.9527L39.56 28.5184L40.7413 27.33C40.9004 27.1705 40.9004 26.9114 40.7413 26.7518L38.3215 24.3217C38.163 24.1634 37.9071 24.1634 37.7486 24.3217L36.5673 25.5069L35.6168 25.1121V23.4333C35.6163 23.2075 35.4336 23.0249 35.209 23.0258H31.7902ZM32.1957 23.8432H34.8043V25.3864C34.8048 25.5515 34.904 25.7 35.0559 25.7629L36.5078 26.3658C36.6587 26.4282 36.8322 26.3936 36.9481 26.2781L38.0335 25.184L39.8813 27.0414L38.7927 28.1324C38.6765 28.2496 38.6421 28.4256 38.7055 28.5782L39.3085 30.0377C39.371 30.1903 39.5188 30.29 39.683 30.2905H41.2182V32.9096H39.683C39.5186 32.9102 39.3708 33.0104 39.3085 33.1632L38.7055 34.6219C38.6417 34.7748 38.6762 34.9512 38.7927 35.0685L39.8813 36.1595L38.0335 38.013L36.9481 36.922C36.8322 36.8065 36.6588 36.772 36.5078 36.8343L35.0559 37.4372C34.9037 37.5002 34.8045 37.6491 34.8043 37.8145V39.3577H32.1957V37.8145C32.1954 37.6489 32.0957 37.4999 31.9434 37.4372L30.4922 36.8343C30.3404 36.7706 30.1652 36.8051 30.0487 36.922L28.9626 38.013L27.1187 36.1595L28.2041 35.0685C28.3218 34.952 28.3575 34.7754 28.2945 34.6219L27.6915 33.1632C27.6292 33.01 27.4809 32.9099 27.3163 32.9096H25.781V30.2905H27.3163C27.4807 30.2904 27.6289 30.1905 27.6915 30.0377L28.2945 28.5782C28.3572 28.425 28.3214 28.2488 28.2041 28.1324L27.1187 27.0414L28.9626 25.1872L30.0487 26.2781C30.1653 26.395 30.3404 26.4297 30.4922 26.3658L31.9434 25.7629C32.0955 25.7002 32.1951 25.5517 32.1957 25.3864V23.8432ZM44.9067 24.5092L41.7402 26.3475C41.5457 26.4598 41.4785 26.7094 41.5902 26.905C41.7028 27.0997 41.9509 27.166 42.1448 27.0533L45.3112 25.2173C45.5058 25.105 45.5729 24.8555 45.4613 24.6599C45.34 24.4488 45.085 24.4058 44.9067 24.5092ZM21.5379 24.6599C21.4262 24.8555 21.4934 25.1051 21.688 25.2174L24.8544 27.0533C25.0483 27.1668 25.2969 27.1007 25.4098 26.9058C25.522 26.7099 25.4543 26.4596 25.259 26.3475L22.0925 24.5092C21.8713 24.3808 21.6362 24.4888 21.5379 24.6599ZM33.5 27.5175C31.2613 27.5175 29.437 29.3481 29.437 31.5984C29.437 33.8487 31.2613 35.6834 33.5 35.6834C35.7387 35.6834 37.563 33.8487 37.563 31.5984C37.563 29.3481 35.7387 27.5175 33.5 27.5175ZM33.5 28.3342C35.2996 28.3342 36.7505 29.7895 36.7505 31.5984C36.7505 33.4074 35.2996 34.8659 33.5 34.8659C31.7004 34.8659 30.2494 33.4074 30.2494 31.5984C30.2494 29.7895 31.7004 28.3342 33.5 28.3342ZM34.936 30.0129L32.6392 32.3218L32.0632 31.7435C31.9044 31.5836 31.6467 31.5836 31.4879 31.7435C31.3288 31.9031 31.3288 32.1622 31.4879 32.3218L32.3512 33.187C32.5096 33.3454 32.7655 33.3454 32.924 33.187L35.512 30.5887C35.6696 30.4295 35.6696 30.1722 35.512 30.0129C35.3404 29.8295 35.0892 29.8445 34.936 30.0129ZM41.5903 36.295C41.4785 36.4906 41.5457 36.7402 41.7403 36.8525L44.9067 38.6908C45.1013 38.8032 45.3496 38.7357 45.4613 38.5401C45.5731 38.3445 45.506 38.0949 45.3113 37.9826L42.1449 36.1467C41.91 36.0163 41.679 36.1405 41.5903 36.295ZM24.8551 36.1475C23.7993 36.7585 22.7435 37.3709 21.6879 37.9826C21.4929 38.095 21.4257 38.3452 21.5379 38.5409C21.6497 38.737 21.8985 38.8045 22.0933 38.6917L25.2597 36.8526C25.4543 36.7402 25.5214 36.4906 25.4097 36.2951C25.2596 36.0561 25.008 36.0588 24.8551 36.1475ZM18.8737 38.9444C19.1849 38.9444 19.4965 39.0656 19.7361 39.3065C20.2154 39.7883 20.2154 40.5577 19.7361 41.0395C19.2568 41.5214 18.4914 41.5214 18.0121 41.0395C17.5328 40.5577 17.5328 39.7883 18.0121 39.3065C18.2517 39.0656 18.5625 38.9445 18.8737 38.9444ZM48.1255 38.9444C48.4367 38.9444 48.7483 39.0656 48.9879 39.3065C49.4672 39.7883 49.4672 40.5577 48.9879 41.0395C48.5086 41.5214 47.7432 41.5214 47.2639 41.0395C46.7846 40.5577 46.7846 39.7883 47.2639 39.3065C47.5035 39.0656 47.8143 38.9444 48.1255 38.9444ZM33.5 40.9909C33.2756 40.9918 33.0945 41.1753 33.0954 41.4008V45.0758C33.0962 45.3001 33.2769 45.4817 33.5 45.4826C33.7231 45.4817 33.9038 45.3001 33.9046 45.0758V41.4008C33.9055 41.1753 33.7244 40.9918 33.5 40.9909ZM33.5 47.1159C34.1779 47.1159 34.7171 47.6619 34.7171 48.3433C34.7171 49.0247 34.1779 49.5667 33.5 49.5667C32.8221 49.5667 32.2821 49.0247 32.2821 48.3433C32.2821 47.6619 32.8222 47.1159 33.5 47.1159Z" fill="black"/>
</g>
<circle cx="33.6864" cy="33.6864" r="33.6864" fill="#27307D" fill-opacity="0.12"/>
<defs>
<clipPath id="clip0_1_525">
<rect width="39" height="43" fill="white" transform="translate(14 12)"/>
</clipPath>
</defs>
</svg>
