<svg width="23" height="23" viewBox="0 0 23 23" fill="none" xmlns="http://www.w3.org/2000/svg">
<path fill-rule="evenodd" clip-rule="evenodd" d="M19.1657 2.875H3.8324C2.24928 2.875 0.96698 4.16621 0.96698 5.75L0.957397 17.2492C0.957397 18.8334 2.24896 20.125 3.8324 20.125H19.1657C20.7492 20.125 22.0407 18.8334 22.0407 17.25V5.75C22.0407 4.16656 20.7492 2.875 19.1657 2.875ZM5.25408 8.62554C4.80073 8.35239 4.65466 7.76345 4.92781 7.31011C5.20096 6.85676 5.7899 6.71069 6.24324 6.98384L11.4702 10.1332L16.9255 6.84622C17.3796 6.57263 17.9695 6.71894 18.243 7.17301C18.516 7.62605 18.3711 8.21454 17.9189 8.48896L11.5083 12.3797L11.5021 12.3901L5.25408 8.62554Z" fill="#27307D"/>
<mask id="mask0_1_397" style="mask-type:luminance" maskUnits="userSpaceOnUse" x="0" y="2" width="23" height="19">
<path fill-rule="evenodd" clip-rule="evenodd" d="M19.1657 2.875H3.8324C2.24928 2.875 0.96698 4.16621 0.96698 5.75L0.957397 17.2492C0.957397 18.8334 2.24896 20.125 3.8324 20.125H19.1657C20.7492 20.125 22.0407 18.8334 22.0407 17.25V5.75C22.0407 4.16656 20.7492 2.875 19.1657 2.875ZM5.25408 8.62554C4.80073 8.35239 4.65466 7.76345 4.92781 7.31011C5.20096 6.85676 5.7899 6.71069 6.24324 6.98384L11.4702 10.1332L16.9255 6.84622C17.3796 6.57263 17.9695 6.71894 18.243 7.17301C18.516 7.62605 18.3711 8.21454 17.9189 8.48896L11.5083 12.3797L11.5021 12.3901L5.25408 8.62554Z" fill="white"/>
</mask>
<g mask="url(#mask0_1_397)">
<rect width="23" height="23" fill="#27307D"/>
</g>
</svg>
