<svg width="16" height="18" viewBox="0 0 16 18" fill="none" xmlns="http://www.w3.org/2000/svg">
<path fill-rule="evenodd" clip-rule="evenodd" d="M13.3327 2.25H2.66602C1.56472 2.25 0.672682 3.26051 0.672682 4.5L0.666016 13.4994C0.666016 14.7392 1.56449 15.75 2.66602 15.75H13.3327C14.4342 15.75 15.3327 14.7392 15.3327 13.5V4.5C15.3327 3.26079 14.4342 2.25 13.3327 2.25ZM3.62458 6.72949C3.31735 6.52123 3.21709 6.11453 3.39233 5.78734C3.59537 5.40823 4.08195 5.28828 4.43793 5.52958L7.97978 7.93039L11.6794 5.42266C12.0359 5.18099 12.5232 5.30113 12.7266 5.68081C12.9016 6.00768 12.8022 6.41394 12.496 6.62302L8.00526 9.68924L8.00524 9.6892L8.00143 9.6963L3.62458 6.72949Z" fill="#27307D"/>
<mask id="mask0_1_1211" style="mask-type:luminance" maskUnits="userSpaceOnUse" x="0" y="2" width="16" height="14">
<path fill-rule="evenodd" clip-rule="evenodd" d="M13.3327 2.25H2.66602C1.56472 2.25 0.672682 3.26051 0.672682 4.5L0.666016 13.4994C0.666016 14.7392 1.56449 15.75 2.66602 15.75H13.3327C14.4342 15.75 15.3327 14.7392 15.3327 13.5V4.5C15.3327 3.26079 14.4342 2.25 13.3327 2.25ZM3.62458 6.72949C3.31735 6.52123 3.21709 6.11453 3.39233 5.78734C3.59537 5.40823 4.08195 5.28828 4.43793 5.52958L7.97978 7.93039L11.6794 5.42266C12.0359 5.18099 12.5232 5.30113 12.7266 5.68081C12.9016 6.00768 12.8022 6.41394 12.496 6.62302L8.00526 9.68924L8.00524 9.6892L8.00143 9.6963L3.62458 6.72949Z" fill="white"/>
</mask>
<g mask="url(#mask0_1_1211)">
<rect width="16" height="18" fill="#27307D"/>
</g>
</svg>
