<svg width="30" height="29" viewBox="0 0 30 29" fill="none" xmlns="http://www.w3.org/2000/svg">
<mask id="path-1-inside-1_1_460" fill="white">
<path d="M29.7304 15.6761C29.7304 17.3917 29.3925 19.0904 28.736 20.6754C28.0795 22.2604 27.1172 23.7005 25.9041 24.9136L16.6666 15.6761H29.7304Z"/>
</mask>
<path d="M29.7304 15.6761C29.7304 17.3917 29.3925 19.0904 28.736 20.6754C28.0795 22.2604 27.1172 23.7005 25.9041 24.9136L16.6666 15.6761H29.7304Z" stroke="#696969" stroke-width="2" mask="url(#path-1-inside-1_1_460)"/>
<mask id="path-2-inside-2_1_460" fill="white">
<path d="M29.2077 13.0638C29.2077 11.3482 28.8697 9.64948 28.2132 8.06451C27.5567 6.47953 26.5944 5.03939 25.3814 3.8263C24.1683 2.61321 22.7281 1.65094 21.1431 0.994423C19.5582 0.337905 17.8594 -7.49897e-08 16.1438 0L16.1438 13.0638H29.2077Z"/>
</mask>
<path d="M29.2077 13.0638C29.2077 11.3482 28.8697 9.64948 28.2132 8.06451C27.5567 6.47953 26.5944 5.03939 25.3814 3.8263C24.1683 2.61321 22.7281 1.65094 21.1431 0.994423C19.5582 0.337905 17.8594 -7.49897e-08 16.1438 0L16.1438 13.0638H29.2077Z" stroke="#696969" stroke-width="2" mask="url(#path-2-inside-2_1_460)"/>
<mask id="path-3-inside-3_1_460" fill="white">
<path d="M13.5311 2.61347C11.3827 2.61347 9.26754 3.1433 7.37286 4.15602C5.47818 5.16875 3.8625 6.63312 2.66893 8.41941C1.47537 10.2057 0.740766 12.2588 0.53019 14.3968C0.319615 16.5348 0.639568 18.6918 1.46171 20.6766C2.28385 22.6614 3.5828 24.4128 5.2435 25.7757C6.9042 27.1386 8.8754 28.0709 10.9825 28.4901C13.0895 28.9092 15.2675 28.8022 17.3233 28.1786C19.3792 27.5549 21.2495 26.4339 22.7686 24.9148L13.5311 15.6773L13.5311 2.61347Z"/>
</mask>
<path d="M13.5311 2.61347C11.3827 2.61347 9.26754 3.1433 7.37286 4.15602C5.47818 5.16875 3.8625 6.63312 2.66893 8.41941C1.47537 10.2057 0.740766 12.2588 0.53019 14.3968C0.319615 16.5348 0.639568 18.6918 1.46171 20.6766C2.28385 22.6614 3.5828 24.4128 5.2435 25.7757C6.9042 27.1386 8.8754 28.0709 10.9825 28.4901C13.0895 28.9092 15.2675 28.8022 17.3233 28.1786C19.3792 27.5549 21.2495 26.4339 22.7686 24.9148L13.5311 15.6773L13.5311 2.61347Z" stroke="#696969" stroke-width="2" mask="url(#path-3-inside-3_1_460)"/>
</svg>
