<svg width="124" height="112" viewBox="0 0 124 112" fill="none" xmlns="http://www.w3.org/2000/svg">
<rect width="124" height="112" fill="#1E1E1E"/>
<g clip-path="url(#clip0_0_1)">
<rect width="1920" height="5948" transform="translate(-751 -2077)" fill="white"/>
<g filter="url(#filter0_d_0_1)">
<path fill-rule="evenodd" clip-rule="evenodd" d="M-272 -430H-492V-253.031H-272V-430ZM1168 -253.031H-752V289.149H1168V-253.031Z" fill="white"/>
<path d="M-492 -430V-430.5H-492.5V-430H-492ZM-272 -430H-271.5V-430.5H-272V-430ZM-492 -253.031H-492.5V-252.531H-492V-253.031ZM-272 -253.031V-252.531H-271.5V-253.031H-272ZM-752 -253.031V-253.531H-752.5V-253.031H-752ZM1168 -253.031H1168.5V-253.531H1168V-253.031ZM-752 289.149H-752.5V289.649H-752V289.149ZM1168 289.149V289.649H1168.5V289.149H1168ZM-492 -429.5H-272V-430.5H-492V-429.5ZM-491.5 -253.031V-430H-492.5V-253.031H-491.5ZM-272 -253.531H-492V-252.531H-272V-253.531ZM-272.5 -430V-253.031H-271.5V-430H-272.5ZM-752 -252.531H1168V-253.531H-752V-252.531ZM-751.5 289.149V-253.031H-752.5V289.149H-751.5ZM1168 288.649H-752V289.649H1168V288.649ZM1167.5 -253.031V289.149H1168.5V-253.031H1167.5Z" fill="#DFDFDF"/>
</g>
<rect opacity="0.28" x="-97" y="-13" width="317" height="172" rx="16" fill="#E9EAF2"/>
<path opacity="0.25" d="M117.379 43.2095C115.085 27.8867 99.1847 11.3448 82.6289 18.0818C66.0731 24.8187 68.9793 42.2567 55.7837 46.2694C42.5881 50.2821 27.8033 26.4553 10.6624 40.3537C-3.72727 54.0823 0.783226 103.925 61.492 105.55C91.0721 106.341 123.303 82.7891 117.379 43.2095Z" fill="#F6C648"/>
<path d="M46.3447 38.8485H40.4398C39.0888 38.8485 38 39.9356 38 41.267V62.2541C38 63.5855 39.0967 64.6726 40.4398 64.6726H46.3447C47.6958 64.6726 48.7846 63.5855 48.7846 62.2541V41.267C48.7925 39.9356 47.6958 38.8485 46.3447 38.8485ZM46.3368 62.2383H40.4637V41.2749H46.3447V62.2383H46.3368ZM85.5808 84.3913L81.4959 77.3799C81.0826 76.6709 80.415 76.1588 79.6124 75.9461C79.2229 75.8437 78.8335 75.8201 78.452 75.8594L77.0692 73.4882C79.2547 71.9204 80.8283 69.6752 81.5356 67.0518C82.3542 64.0345 81.933 60.8833 80.3594 58.1733C80.2561 57.9921 80.1448 57.8188 80.0336 57.6454V25.7867C80.0336 24.4474 78.9368 23.3681 77.5937 23.3681H71.6888C70.3378 23.3681 69.249 24.4553 69.249 25.7867V52.3672C67.5721 52.4932 65.927 52.9816 64.417 53.8167V33.5229C64.417 32.1836 63.3203 31.1044 61.9772 31.1044H56.0723C54.7212 31.1044 53.6325 32.1915 53.6325 33.5229V62.2541C53.6325 63.5855 54.7292 64.6726 56.0723 64.6726H58.3691C58.4724 66.4846 58.9969 68.2571 59.9347 69.8643C61.5083 72.5664 64.0514 74.5044 67.0953 75.3159C68.1125 75.5837 69.1377 75.7176 70.163 75.7176C71.8001 75.7176 73.4293 75.371 74.9473 74.7014L76.3301 77.0727C75.6148 78.0259 75.4956 79.3494 76.1314 80.4445L80.2164 87.4638C80.7965 88.4485 81.8376 89 82.9105 89C83.435 89 83.9675 88.8661 84.4523 88.5903C85.1676 88.1807 85.6841 87.5189 85.8987 86.7232C86.1053 85.9276 85.9941 85.0925 85.5808 84.3913ZM77.5778 25.7946V54.9354C76.3063 53.9113 74.828 53.155 73.1988 52.7217C72.7061 52.5877 72.2054 52.4932 71.7047 52.4302V25.7946H77.5778ZM56.0802 33.5387H61.9533V55.605C60.4195 57.0625 59.3148 58.9138 58.7505 61.0015C58.6393 61.4111 58.5519 61.8287 58.4883 62.2462H56.0802V33.5387ZM67.7311 72.9682C65.323 72.3301 63.3044 70.7939 62.0566 68.651C60.8089 66.5082 60.4751 64.0188 61.1189 61.6238C61.5957 59.8513 62.5732 58.2914 63.9322 57.1019C63.964 57.0782 64.0038 57.0467 64.0355 57.0152C64.4806 56.6371 64.9574 56.2983 65.474 56.0068C66.9443 55.1639 68.5417 54.77 70.1312 54.77C73.3578 54.77 76.5049 56.4322 78.2375 59.3944C79.4852 61.5372 79.819 64.0345 79.1673 66.4216C78.5236 68.8086 76.9738 70.8018 74.8122 72.0386C72.6505 73.2755 70.1391 73.6063 67.7311 72.9682ZM83.5225 86.093C83.4986 86.1875 83.4271 86.3687 83.2205 86.479C82.9105 86.6523 82.5211 86.5499 82.3383 86.2427L78.2534 79.2312C78.0785 78.9319 78.1898 78.5301 78.4838 78.3568C78.5951 78.2938 78.7064 78.2701 78.8017 78.2701C78.8733 78.2701 78.9289 78.278 78.9766 78.2938C79.0719 78.3174 79.2547 78.3883 79.366 78.5931L83.4589 85.6124C83.5701 85.8015 83.5463 85.9985 83.5225 86.093ZM68.6688 61.8759C68.6688 62.3171 69.2967 62.8055 70.1391 62.8055C72.3087 62.8055 74.0651 64.3181 74.0651 66.1773C74.0651 67.6663 72.9286 68.9347 71.363 69.3758V70.1636C71.363 70.8333 70.8146 71.3847 70.1312 71.3847C69.4477 71.3847 68.8993 70.8411 68.8993 70.1636V69.3758C67.3337 68.9347 66.1972 67.6663 66.1972 66.1773C66.1972 65.5077 66.7456 64.9563 67.4291 64.9563C68.1046 64.9563 68.6609 65.4998 68.6609 66.1773C68.6609 66.6185 69.2887 67.107 70.1312 67.107C70.9736 67.107 71.6014 66.6106 71.6014 66.1773C71.6014 65.7362 70.9736 65.2399 70.1312 65.2399C67.9615 65.2399 66.2052 63.7273 66.2052 61.8681C66.2052 60.3791 67.3416 59.1108 68.9073 58.6696V57.8818C68.9073 57.2121 69.4556 56.6607 70.1391 56.6607C70.8226 56.6607 71.3709 57.2043 71.3709 57.8818V58.6696C72.9366 59.1108 74.0731 60.3791 74.0731 61.8681C74.0731 62.5377 73.5247 63.0892 72.8412 63.0892C72.1657 63.0892 71.6094 62.5456 71.6094 61.8681C71.6094 61.4269 70.9815 60.9385 70.1391 60.9385C69.3046 60.9385 68.6688 61.4348 68.6688 61.8759ZM38.1351 33.8459C37.8331 33.2472 38.0795 32.5145 38.6835 32.2152L75.5989 13.9066L74.0095 13.3788C73.3657 13.1661 73.016 12.4728 73.2306 11.8347C73.4452 11.1966 74.1446 10.8499 74.7883 11.0626L79.1911 12.5201C79.8349 12.7328 80.1846 13.4261 79.97 14.0642L78.4997 18.4286C78.3249 18.9407 77.848 19.2637 77.3315 19.2637C77.2043 19.2637 77.0692 19.24 76.942 19.2007C76.2983 18.9879 75.9486 18.2947 76.1632 17.6566L76.6957 16.081L39.7802 34.3895C39.6054 34.4762 39.4146 34.5155 39.2318 34.5155C38.7788 34.5234 38.3497 34.2713 38.1351 33.8459Z" fill="#27307D"/>
</g>
<defs>
<filter id="filter0_d_0_1" x="-802.5" y="-515.5" width="2021" height="820.149" filterUnits="userSpaceOnUse" color-interpolation-filters="sRGB">
<feFlood flood-opacity="0" result="BackgroundImageFix"/>
<feColorMatrix in="SourceAlpha" type="matrix" values="0 0 0 0 0 0 0 0 0 0 0 0 0 0 0 0 0 0 127 0" result="hardAlpha"/>
<feOffset dy="-35"/>
<feGaussianBlur stdDeviation="25"/>
<feComposite in2="hardAlpha" operator="out"/>
<feColorMatrix type="matrix" values="0 0 0 0 0 0 0 0 0 0 0 0 0 0 0 0 0 0 0.08 0"/>
<feBlend mode="normal" in2="BackgroundImageFix" result="effect1_dropShadow_0_1"/>
<feBlend mode="normal" in="SourceGraphic" in2="effect1_dropShadow_0_1" result="shape"/>
</filter>
<clipPath id="clip0_0_1">
<rect width="1920" height="5948" fill="white" transform="translate(-751 -2077)"/>
</clipPath>
</defs>
</svg>
