<svg width="124" height="112" viewBox="0 0 124 112" fill="none" xmlns="http://www.w3.org/2000/svg">
<rect width="124" height="112" fill="#1E1E1E"/>
<g clip-path="url(#clip0_0_1)">
<rect width="1920" height="5948" transform="translate(-356 -2070)" fill="white"/>
<g filter="url(#filter0_d_0_1)">
<path fill-rule="evenodd" clip-rule="evenodd" d="M123 -423H-96.9999V-246.031H123V-423ZM1563 -246.031H-357V296.149H1563V-246.031Z" fill="white"/>
<path d="M-96.9999 -423V-423.5H-97.4999V-423H-96.9999ZM123 -423H123.5V-423.5H123V-423ZM-96.9999 -246.031H-97.4999V-245.531H-96.9999V-246.031ZM123 -246.031V-245.531H123.5V-246.031H123ZM-357 -246.031V-246.531H-357.5V-246.031H-357ZM1563 -246.031H1563.5V-246.531H1563V-246.031ZM-357 296.149H-357.5V296.649H-357V296.149ZM1563 296.149V296.649H1563.5V296.149H1563ZM-96.9999 -422.5H123V-423.5H-96.9999V-422.5ZM-96.4999 -246.031V-423H-97.4999V-246.031H-96.4999ZM123 -246.531H-96.9999V-245.531H123V-246.531ZM122.5 -423V-246.031H123.5V-423H122.5ZM-357 -245.531H1563V-246.531H-357V-245.531ZM-356.5 296.149V-246.031H-357.5V296.149H-356.5ZM1563 295.649H-357V296.649H1563V295.649ZM1562.5 -246.031V296.149H1563.5V-246.031H1562.5Z" fill="#DFDFDF"/>
</g>
<rect opacity="0.28" x="-97" y="-6" width="317" height="172" rx="16" fill="#E9EAF2"/>
<path opacity="0.25" d="M117.379 43.2095C115.085 27.8867 99.1847 11.3448 82.6289 18.0818C66.0731 24.8187 68.9793 42.2567 55.7837 46.2694C42.5881 50.2821 27.8033 26.4553 10.6624 40.3537C-3.72727 54.0823 0.783226 103.925 61.492 105.55C91.0721 106.341 123.303 82.7891 117.379 43.2095Z" fill="#F6C648"/>
<path d="M52.6667 59.0222H48.7333V51.3784C48.7333 48.5661 47.3173 46.0684 45.1802 44.6131C47.3173 43.2102 48.7333 40.7912 48.7333 38.0444C48.7333 33.7047 45.2064 30.1778 40.8667 30.1778C36.5269 30.1778 33 33.7047 33 38.0444C33 40.7781 34.4029 43.1906 36.5269 44.6C36.1598 44.8426 35.8123 45.1113 35.4846 45.4129C33.9047 46.8944 33 48.9922 33 51.1556V68.2C33 68.9211 33.59 69.5111 34.3111 69.5111H46.1111V78.6889C46.1111 79.41 46.7011 80 47.4222 80H55.2889C56.01 80 56.6 79.41 56.6 78.6889V62.9556C56.6 60.7857 54.8366 59.0222 52.6667 59.0222ZM40.8667 32.8C43.7577 32.8 46.1111 35.1534 46.1111 38.0444C46.1111 40.9354 43.7577 43.2889 40.8667 43.2889C37.9757 43.2889 35.6222 40.9354 35.6222 38.0444C35.6222 35.1534 37.9757 32.8 40.8667 32.8ZM53.9778 77.3778H48.7333V68.2C48.7333 67.4789 48.1433 66.8889 47.4222 66.8889H35.6222V51.1556C35.6222 49.6871 36.2122 48.3301 37.2808 47.3271C38.3493 46.3241 39.7588 45.8324 41.2207 45.9242C43.9674 46.1012 46.1111 48.5006 46.1111 51.385V60.3333C46.1111 61.0544 46.7011 61.6444 47.4222 61.6444H52.6667C53.3878 61.6444 53.9778 62.2344 53.9778 62.9556V77.3778ZM88.4731 44.6C90.5971 43.1906 92 40.7781 92 38.0444C92 33.7047 88.4731 30.1778 84.1333 30.1778C79.7936 30.1778 76.2667 33.7047 76.2667 38.0444C76.2667 40.7912 77.6827 43.2102 79.8198 44.6197C77.6827 46.0684 76.2667 48.5661 76.2667 51.3784V59.0222H72.3333C70.1634 59.0222 68.4 60.7857 68.4 62.9556V78.6889C68.4 79.41 68.99 80 69.7111 80H77.5778C78.2989 80 78.8889 79.41 78.8889 78.6889V69.5111H90.6889C91.41 69.5111 92 68.9211 92 68.2V51.1556C92 48.9922 91.0953 46.8944 89.5154 45.4129C89.1877 45.1113 88.8337 44.8426 88.4731 44.6ZM84.1333 32.8C87.0243 32.8 89.3778 35.1534 89.3778 38.0444C89.3778 40.9354 87.0243 43.2889 84.1333 43.2889C81.2423 43.2889 78.8889 40.9354 78.8889 38.0444C78.8889 35.1534 81.2423 32.8 84.1333 32.8ZM89.3778 66.8889H77.5778C76.8567 66.8889 76.2667 67.4789 76.2667 68.2V77.3778H71.0222V62.9556C71.0222 62.2344 71.6122 61.6444 72.3333 61.6444H77.5778C78.2989 61.6444 78.8889 61.0544 78.8889 60.3333V51.3784C78.8889 48.494 81.0391 46.1012 83.7793 45.9177C85.2478 45.8259 86.6507 46.3241 87.7192 47.3271C88.7878 48.3301 89.3778 49.6871 89.3778 51.1556V66.8889ZM72.9889 32.8V24.9333C72.9889 22.7634 71.2254 21 69.0556 21H55.9444C53.7746 21 52.0111 22.7634 52.0111 24.9333V32.8C52.0111 34.9699 53.7746 36.7333 55.9444 36.7333H58.4946L61.3856 41.3616C61.6281 41.7418 62.0477 41.9778 62.5 41.9778C62.9523 41.9778 63.3719 41.7418 63.6144 41.3616L66.5054 36.7333H69.0556C71.2254 36.7333 72.9889 34.9699 72.9889 32.8ZM65.7778 34.1111C65.3254 34.1111 64.9059 34.3471 64.6633 34.7273L62.5 38.1952L60.3367 34.7273C60.0941 34.3471 59.6746 34.1111 59.2222 34.1111H55.9444C55.2233 34.1111 54.6333 33.5211 54.6333 32.8V24.9333C54.6333 24.2122 55.2233 23.6222 55.9444 23.6222H69.0556C69.7767 23.6222 70.3667 24.2122 70.3667 24.9333V32.8C70.3667 33.5211 69.7767 34.1111 69.0556 34.1111H65.7778Z" fill="#27307D"/>
</g>
<defs>
<filter id="filter0_d_0_1" x="-407.5" y="-508.5" width="2021" height="820.149" filterUnits="userSpaceOnUse" color-interpolation-filters="sRGB">
<feFlood flood-opacity="0" result="BackgroundImageFix"/>
<feColorMatrix in="SourceAlpha" type="matrix" values="0 0 0 0 0 0 0 0 0 0 0 0 0 0 0 0 0 0 127 0" result="hardAlpha"/>
<feOffset dy="-35"/>
<feGaussianBlur stdDeviation="25"/>
<feComposite in2="hardAlpha" operator="out"/>
<feColorMatrix type="matrix" values="0 0 0 0 0 0 0 0 0 0 0 0 0 0 0 0 0 0 0.08 0"/>
<feBlend mode="normal" in2="BackgroundImageFix" result="effect1_dropShadow_0_1"/>
<feBlend mode="normal" in="SourceGraphic" in2="effect1_dropShadow_0_1" result="shape"/>
</filter>
<clipPath id="clip0_0_1">
<rect width="1920" height="5948" fill="white" transform="translate(-356 -2070)"/>
</clipPath>
</defs>
</svg>
