<svg width="124" height="112" viewBox="0 0 124 112" fill="none" xmlns="http://www.w3.org/2000/svg">
<rect width="124" height="112" fill="#1E1E1E"/>
<g clip-path="url(#clip0_0_1)">
<rect width="1920" height="5948" transform="translate(-1165 -2076)" fill="white"/>
<g filter="url(#filter0_d_0_1)">
<path fill-rule="evenodd" clip-rule="evenodd" d="M-686 -429H-906V-252.031H-686V-429ZM754 -252.031H-1166V290.149H754V-252.031Z" fill="white"/>
<path d="M-906 -429V-429.5H-906.5V-429H-906ZM-686 -429H-685.5V-429.5H-686V-429ZM-906 -252.031H-906.5V-251.531H-906V-252.031ZM-686 -252.031V-251.531H-685.5V-252.031H-686ZM-1166 -252.031V-252.531H-1166.5V-252.031H-1166ZM754 -252.031H754.5V-252.531H754V-252.031ZM-1166 290.149H-1166.5V290.649H-1166V290.149ZM754 290.149V290.649H754.5V290.149H754ZM-906 -428.5H-686V-429.5H-906V-428.5ZM-905.5 -252.031V-429H-906.5V-252.031H-905.5ZM-686 -252.531H-906V-251.531H-686V-252.531ZM-686.5 -429V-252.031H-685.5V-429H-686.5ZM-1166 -251.531H754V-252.531H-1166V-251.531ZM-1165.5 290.149V-252.031H-1166.5V290.149H-1165.5ZM754 289.649H-1166V290.649H754V289.649ZM753.5 -252.031V290.149H754.5V-252.031H753.5Z" fill="#DFDFDF"/>
</g>
<rect opacity="0.28" x="-97" y="-12" width="317" height="172" rx="16" fill="#E9EAF2"/>
<path opacity="0.25" d="M117.379 43.2095C115.085 27.8867 99.1847 11.3448 82.6289 18.0818C66.0731 24.8187 68.9793 42.2567 55.7837 46.2694C42.5881 50.2821 27.8033 26.4553 10.6624 40.3537C-3.72727 54.0823 0.783226 103.925 61.492 105.55C91.0721 106.341 123.303 82.7891 117.379 43.2095Z" fill="#F6C648"/>
<path d="M89.4077 61.3213C88.8181 60.2949 87.8617 59.5602 86.7152 59.2514C85.5686 58.9426 84.3747 59.0995 83.3525 59.6922L73.189 65.5845C73.2123 65.0791 73.16 64.5616 73.0229 64.0477C72.304 61.3546 69.5379 59.7504 66.856 60.4723L62.6861 61.5945C61.09 62.024 59.6183 61.8295 58.1868 60.9997L52.6279 57.7771C50.4111 56.4916 48.1837 57.3313 45.6057 58.3031C44.1347 58.8575 42.4919 59.4764 40.5515 59.8455L40.4356 59.4125C40.191 58.4962 39.2495 57.9503 38.3369 58.1959L35.2704 59.0207C34.8293 59.1393 34.4596 59.4246 34.2306 59.8228C34.0016 60.221 33.9408 60.6853 34.0588 61.1282L39.5548 81.7244C39.7598 82.4925 40.454 83 41.2104 83C41.3567 83 41.5058 82.9808 41.6536 82.9411L44.72 82.1163C45.6326 81.8707 46.1762 80.9252 45.9316 80.0088L45.9217 79.9719C50.4507 78.9576 53.2811 79.7675 57.106 80.8627C57.7952 81.0601 58.5078 81.2645 59.2691 81.4689C59.9243 81.6449 60.5711 81.733 61.2073 81.733C62.4416 81.733 63.6362 81.4015 64.7764 80.7406L87.7854 67.4002C88.8075 66.8082 89.5392 65.8478 89.8459 64.6965C90.1534 63.5466 89.9972 62.3477 89.4077 61.3213ZM41.344 81.0451L35.9462 60.818L38.6451 60.0918L44.0428 80.319L41.344 81.0451ZM88.0073 64.2032C87.832 64.8612 87.415 65.4084 86.8339 65.7456L63.8249 79.086C62.532 79.8349 61.2038 80.0109 59.7625 79.6234C59.016 79.4225 58.3105 79.2202 57.6284 79.025C53.6578 77.8878 50.474 76.9771 45.429 78.1249L41.0456 61.6968C43.0758 61.2978 44.7624 60.6633 46.2745 60.0933C48.8786 59.1116 50.3016 58.6367 51.6757 59.4331L57.2347 62.6557C59.0994 63.7368 61.0992 64.0009 63.1788 63.4415L67.3487 62.3193C69.0163 61.8707 70.7368 62.868 71.1843 64.5432C71.4218 65.4326 71.2528 66.3362 70.7927 67.0559C70.7665 67.0893 70.7432 67.1248 70.722 67.161C70.3148 67.7459 69.7083 68.1959 68.9696 68.3947L62.872 70.0351C61.8301 70.3154 60.8122 70.3254 59.8466 70.0635C59.339 69.9257 58.8167 70.2274 58.6795 70.7371C58.5424 71.2467 58.8428 71.7713 59.3504 71.909C59.9802 72.0794 60.6242 72.1652 61.2766 72.1652C61.9637 72.1652 62.6614 72.0708 63.364 71.8813L69.4616 70.2409C70.6039 69.9336 71.5476 69.2528 72.2015 68.3648L84.304 61.3482C84.8858 61.0111 85.5665 60.9223 86.2218 61.0984C86.877 61.2744 87.4221 61.6932 87.7578 62.2774C88.0943 62.8609 88.1827 63.5451 88.0073 64.2032ZM43.5678 20.3112C43.8308 19.8541 44.4125 19.6972 44.8685 19.9612L48.2417 21.9168C48.6969 22.1809 48.8532 22.7658 48.5902 23.2229C48.4142 23.5295 48.094 23.7013 47.7653 23.7013C47.6041 23.7013 47.4401 23.6601 47.2902 23.5728L43.9156 21.6166C43.4604 21.3525 43.3048 20.7683 43.5678 20.3112ZM40.4568 31.9672C40.4568 31.4391 40.8831 31.0111 41.409 31.0111H45.3039C45.8298 31.0111 46.2561 31.4391 46.2561 31.9672C46.2561 32.4953 45.8298 32.9233 45.3039 32.9233H41.409C40.8831 32.9233 40.4568 32.4953 40.4568 31.9672ZM48.5895 40.7122C48.8525 41.1694 48.6962 41.7543 48.241 42.0183L44.8678 43.9739C44.7179 44.0605 44.5539 44.1024 44.3927 44.1024C44.064 44.1024 43.7438 43.9313 43.5678 43.6239C43.3048 43.1668 43.4611 42.5819 43.9163 42.3179L47.2895 40.3623C47.7441 40.0982 48.3265 40.2544 48.5895 40.7122ZM78.7564 23.2222C78.4934 22.765 78.6496 22.1802 79.1049 21.9161L82.4781 19.9605C82.9333 19.6965 83.5158 19.8534 83.7788 20.3105C84.0417 20.7676 83.8855 21.3525 83.4303 21.6166L80.057 23.5721C79.9072 23.6587 79.7432 23.7006 79.582 23.7006C79.2526 23.7006 78.9331 23.5288 78.7564 23.2222ZM82.042 31.0111H85.9369C86.4628 31.0111 86.8891 31.4391 86.8891 31.9672C86.8891 32.4953 86.4628 32.9233 85.9369 32.9233H82.042C81.516 32.9233 81.0898 32.4953 81.0898 31.9672C81.0898 31.4391 81.516 31.0111 82.042 31.0111ZM78.7564 40.7122C79.0193 40.2551 79.6011 40.0982 80.057 40.3623L83.4303 42.3179C83.8855 42.5819 84.0417 43.1668 83.7788 43.6239C83.6028 43.9306 83.2825 44.1024 82.9538 44.1024C82.7927 44.1024 82.6287 44.0612 82.4788 43.9739L79.1056 42.0183C78.6496 41.7535 78.4934 41.1694 78.7564 40.7122ZM55.6053 45.0514C54.9055 45.5745 54.4517 46.4107 54.4517 47.3519C54.4517 48.0852 54.7281 48.7552 55.1805 49.2628C54.7273 49.7703 54.4517 50.4404 54.4517 51.1736C54.4517 52.7509 55.7269 54.0349 57.2969 54.0399C57.5895 55.2913 58.2618 56.4313 59.2415 57.3129C60.4432 58.3947 62.0033 58.9902 63.6348 58.9902C66.7175 58.9902 69.3089 56.9125 69.9734 54.0406C71.5412 54.0328 72.8143 52.7501 72.8143 51.1743C72.8143 50.4411 72.5379 49.771 72.0855 49.2635C72.5387 48.756 72.8143 48.0859 72.8143 47.3526C72.8143 46.4398 72.3867 45.6263 71.7229 45.1011C72.0205 44.2897 72.4065 43.57 72.8016 43.1072C75.9303 39.4424 77.5844 35.3815 77.5844 31.3646C77.5844 27.814 76.1339 24.4715 73.4993 21.9516C70.8831 19.4488 67.3975 18.0454 63.6857 18C63.6779 18 63.6701 18 63.6623 18C59.9491 18.0447 56.4634 19.448 53.8473 21.9502C51.2127 24.47 49.7622 27.8133 49.7622 31.3631C49.7622 35.3807 51.4163 39.4409 54.545 43.1058C54.9323 43.56 55.3105 44.2599 55.6053 45.0514ZM62.9265 44.4849L60.2523 33.0909L62.9993 35.8563C63.1781 36.0359 63.4206 36.1374 63.6729 36.1374C63.926 36.1374 64.1685 36.0366 64.3466 35.8563L67.0716 33.1129L64.3452 44.4842L62.9265 44.4849ZM69.9585 46.3965C70.483 46.3965 70.9093 46.8252 70.9093 47.3512C70.9093 47.8779 70.4823 48.3059 69.9585 48.3059H57.3068C56.7823 48.3059 56.356 47.8772 56.356 47.3512C56.356 46.8245 56.783 46.3965 57.3068 46.3965H69.9585ZM63.6348 57.0779C61.6477 57.0779 59.9081 55.8116 59.2825 54.0498L67.98 54.0839C67.3537 55.8471 65.6409 57.0779 63.6348 57.0779ZM69.9585 52.1283H57.3068C56.7823 52.1283 56.356 51.6996 56.356 51.1736C56.356 50.6469 56.783 50.2189 57.3068 50.2189H69.9585C70.483 50.2189 70.9093 50.6476 70.9093 51.1736C70.91 51.6996 70.483 52.1283 69.9585 52.1283ZM63.6729 19.9101C70.2943 19.9982 75.6793 25.1337 75.6793 31.3631C75.6793 34.9179 74.1843 38.548 71.3553 41.8614C70.8054 42.506 70.2978 43.438 69.9197 44.4842H66.304L69.7161 30.253C69.8157 29.8363 69.6277 29.404 69.2552 29.1953C68.8827 28.9859 68.4175 29.0512 68.1164 29.3543L63.6729 33.8277L59.2295 29.3543C58.9291 29.052 58.4646 28.9859 58.0928 29.1939C57.721 29.4019 57.5315 29.8328 57.6291 30.2487L60.9705 44.4849H57.4269C57.0487 43.4387 56.5412 42.5067 55.9905 41.8622C53.1616 38.5487 51.6665 34.9187 51.6665 31.3639C51.6665 25.1337 57.0516 19.9982 63.6729 19.9101Z" fill="#27307D"/>
</g>
<defs>
<filter id="filter0_d_0_1" x="-1216.5" y="-514.5" width="2021" height="820.149" filterUnits="userSpaceOnUse" color-interpolation-filters="sRGB">
<feFlood flood-opacity="0" result="BackgroundImageFix"/>
<feColorMatrix in="SourceAlpha" type="matrix" values="0 0 0 0 0 0 0 0 0 0 0 0 0 0 0 0 0 0 127 0" result="hardAlpha"/>
<feOffset dy="-35"/>
<feGaussianBlur stdDeviation="25"/>
<feComposite in2="hardAlpha" operator="out"/>
<feColorMatrix type="matrix" values="0 0 0 0 0 0 0 0 0 0 0 0 0 0 0 0 0 0 0.08 0"/>
<feBlend mode="normal" in2="BackgroundImageFix" result="effect1_dropShadow_0_1"/>
<feBlend mode="normal" in="SourceGraphic" in2="effect1_dropShadow_0_1" result="shape"/>
</filter>
<clipPath id="clip0_0_1">
<rect width="1920" height="5948" fill="white" transform="translate(-1165 -2076)"/>
</clipPath>
</defs>
</svg>
