<svg width="100" height="100" viewBox="0 0 100 100" fill="none" xmlns="http://www.w3.org/2000/svg">
<path d="M34.3447 38.8485H28.4398C27.0888 38.8485 26 39.9356 26 41.267V62.2541C26 63.5855 27.0967 64.6726 28.4398 64.6726H34.3447C35.6958 64.6726 36.7846 63.5855 36.7846 62.2541V41.267C36.7925 39.9356 35.6958 38.8485 34.3447 38.8485ZM34.3368 62.2383H28.4637V41.2749H34.3447V62.2383H34.3368ZM73.5808 84.3913L69.4959 77.3799C69.0826 76.6709 68.415 76.1588 67.6124 75.9461C67.2229 75.8437 66.8335 75.8201 66.452 75.8594L65.0692 73.4882C67.2547 71.9204 68.8283 69.6752 69.5356 67.0518C70.3542 64.0345 69.933 60.8833 68.3594 58.1733C68.2561 57.9921 68.1448 57.8188 68.0336 57.6454V25.7867C68.0336 24.4474 66.9368 23.3681 65.5937 23.3681H59.6888C58.3378 23.3681 57.249 24.4553 57.249 25.7867V52.3672C55.5721 52.4932 53.927 52.9816 52.417 53.8167V33.5229C52.417 32.1836 51.3203 31.1044 49.9772 31.1044H44.0723C42.7212 31.1044 41.6325 32.1915 41.6325 33.5229V62.2541C41.6325 63.5855 42.7292 64.6726 44.0723 64.6726H46.3691C46.4724 66.4846 46.9969 68.2571 47.9347 69.8643C49.5083 72.5664 52.0514 74.5044 55.0953 75.3159C56.1125 75.5837 57.1377 75.7176 58.163 75.7176C59.8001 75.7176 61.4293 75.371 62.9473 74.7014L64.3301 77.0727C63.6148 78.0259 63.4956 79.3494 64.1314 80.4445L68.2164 87.4638C68.7965 88.4485 69.8376 89 70.9105 89C71.435 89 71.9675 88.8661 72.4523 88.5903C73.1676 88.1807 73.6841 87.5189 73.8987 86.7232C74.1053 85.9276 73.9941 85.0925 73.5808 84.3913ZM65.5778 25.7946V54.9354C64.3063 53.9113 62.828 53.155 61.1988 52.7217C60.7061 52.5877 60.2054 52.4932 59.7047 52.4302V25.7946H65.5778ZM44.0802 33.5387H49.9533V55.605C48.4195 57.0625 47.3148 58.9138 46.7505 61.0015C46.6393 61.4111 46.5519 61.8287 46.4883 62.2462H44.0802V33.5387ZM55.7311 72.9682C53.323 72.3301 51.3044 70.7939 50.0566 68.651C48.8089 66.5082 48.4751 64.0188 49.1189 61.6238C49.5957 59.8513 50.5732 58.2914 51.9322 57.1019C51.964 57.0782 52.0038 57.0467 52.0355 57.0152C52.4806 56.6371 52.9574 56.2983 53.474 56.0068C54.9443 55.1639 56.5417 54.77 58.1312 54.77C61.3578 54.77 64.5049 56.4322 66.2375 59.3944C67.4852 61.5372 67.819 64.0345 67.1673 66.4216C66.5236 68.8086 64.9738 70.8018 62.8122 72.0386C60.6505 73.2755 58.1391 73.6063 55.7311 72.9682ZM71.5225 86.093C71.4986 86.1875 71.4271 86.3687 71.2205 86.479C70.9105 86.6523 70.5211 86.5499 70.3383 86.2427L66.2534 79.2312C66.0785 78.9319 66.1898 78.5301 66.4838 78.3568C66.5951 78.2938 66.7064 78.2701 66.8017 78.2701C66.8733 78.2701 66.9289 78.278 66.9766 78.2938C67.0719 78.3174 67.2547 78.3883 67.366 78.5931L71.4589 85.6124C71.5701 85.8015 71.5463 85.9985 71.5225 86.093ZM56.6688 61.8759C56.6688 62.3171 57.2967 62.8055 58.1391 62.8055C60.3087 62.8055 62.0651 64.3181 62.0651 66.1773C62.0651 67.6663 60.9286 68.9347 59.363 69.3758V70.1636C59.363 70.8333 58.8146 71.3847 58.1312 71.3847C57.4477 71.3847 56.8993 70.8411 56.8993 70.1636V69.3758C55.3337 68.9347 54.1972 67.6663 54.1972 66.1773C54.1972 65.5077 54.7456 64.9563 55.4291 64.9563C56.1046 64.9563 56.6609 65.4998 56.6609 66.1773C56.6609 66.6185 57.2887 67.107 58.1312 67.107C58.9736 67.107 59.6014 66.6106 59.6014 66.1773C59.6014 65.7362 58.9736 65.2399 58.1312 65.2399C55.9615 65.2399 54.2052 63.7273 54.2052 61.8681C54.2052 60.3791 55.3416 59.1108 56.9073 58.6696V57.8818C56.9073 57.2121 57.4556 56.6607 58.1391 56.6607C58.8226 56.6607 59.3709 57.2043 59.3709 57.8818V58.6696C60.9366 59.1108 62.0731 60.3791 62.0731 61.8681C62.0731 62.5377 61.5247 63.0892 60.8412 63.0892C60.1657 63.0892 59.6094 62.5456 59.6094 61.8681C59.6094 61.4269 58.9815 60.9385 58.1391 60.9385C57.3046 60.9385 56.6688 61.4348 56.6688 61.8759ZM26.1351 33.8459C25.8331 33.2472 26.0795 32.5145 26.6835 32.2152L63.5989 13.9066L62.0095 13.3788C61.3657 13.1661 61.016 12.4728 61.2306 11.8347C61.4452 11.1966 62.1446 10.8499 62.7883 11.0626L67.1911 12.5201C67.8349 12.7328 68.1846 13.4261 67.97 14.0642L66.4997 18.4286C66.3249 18.9407 65.848 19.2637 65.3315 19.2637C65.2043 19.2637 65.0692 19.24 64.942 19.2007C64.2983 18.9879 63.9486 18.2947 64.1632 17.6566L64.6957 16.081L27.7802 34.3895C27.6054 34.4762 27.4146 34.5155 27.2318 34.5155C26.7788 34.5234 26.3497 34.2713 26.1351 33.8459Z" fill="#27307D"/>
</svg>
