<svg width="100" height="100" viewBox="0 0 100 100" fill="none" xmlns="http://www.w3.org/2000/svg">
<path d="M77.4077 61.3213C76.8181 60.2949 75.8617 59.5602 74.7152 59.2514C73.5686 58.9426 72.3747 59.0995 71.3525 59.6922L61.189 65.5845C61.2123 65.0791 61.16 64.5616 61.0229 64.0477C60.304 61.3546 57.5379 59.7504 54.856 60.4723L50.6861 61.5945C49.09 62.024 47.6183 61.8295 46.1868 60.9997L40.6279 57.7771C38.4111 56.4916 36.1837 57.3313 33.6057 58.3031C32.1347 58.8575 30.4919 59.4764 28.5515 59.8455L28.4356 59.4125C28.191 58.4962 27.2495 57.9503 26.3369 58.1959L23.2704 59.0207C22.8293 59.1393 22.4596 59.4246 22.2306 59.8228C22.0016 60.221 21.9408 60.6853 22.0588 61.1282L27.5548 81.7244C27.7598 82.4925 28.454 83 29.2104 83C29.3567 83 29.5058 82.9808 29.6536 82.9411L32.72 82.1163C33.6326 81.8707 34.1762 80.9252 33.9316 80.0088L33.9217 79.9719C38.4507 78.9576 41.2811 79.7675 45.106 80.8627C45.7952 81.0601 46.5078 81.2645 47.2691 81.4689C47.9243 81.6449 48.5711 81.733 49.2073 81.733C50.4416 81.733 51.6362 81.4015 52.7764 80.7406L75.7854 67.4002C76.8075 66.8082 77.5392 65.8478 77.8459 64.6965C78.1534 63.5466 77.9972 62.3477 77.4077 61.3213ZM29.344 81.0451L23.9462 60.818L26.6451 60.0918L32.0428 80.319L29.344 81.0451ZM76.0073 64.2032C75.832 64.8612 75.415 65.4084 74.8339 65.7456L51.8249 79.086C50.532 79.8349 49.2038 80.0109 47.7625 79.6234C47.016 79.4225 46.3105 79.2202 45.6284 79.025C41.6578 77.8878 38.474 76.9771 33.429 78.1249L29.0456 61.6968C31.0758 61.2978 32.7624 60.6633 34.2745 60.0933C36.8786 59.1116 38.3016 58.6367 39.6757 59.4331L45.2347 62.6557C47.0994 63.7368 49.0992 64.0009 51.1788 63.4415L55.3487 62.3193C57.0163 61.8707 58.7368 62.868 59.1843 64.5432C59.4218 65.4326 59.2528 66.3362 58.7927 67.0559C58.7665 67.0893 58.7432 67.1248 58.722 67.161C58.3148 67.7459 57.7083 68.1959 56.9696 68.3947L50.872 70.0351C49.8301 70.3154 48.8122 70.3254 47.8466 70.0635C47.339 69.9257 46.8167 70.2274 46.6795 70.7371C46.5424 71.2467 46.8428 71.7713 47.3504 71.909C47.9802 72.0794 48.6242 72.1652 49.2766 72.1652C49.9637 72.1652 50.6614 72.0708 51.364 71.8813L57.4616 70.2409C58.6039 69.9336 59.5476 69.2528 60.2015 68.3648L72.304 61.3482C72.8858 61.0111 73.5665 60.9223 74.2218 61.0984C74.877 61.2744 75.4221 61.6932 75.7578 62.2774C76.0943 62.8609 76.1827 63.5451 76.0073 64.2032ZM31.5678 20.3112C31.8308 19.8541 32.4125 19.6972 32.8685 19.9612L36.2417 21.9168C36.6969 22.1809 36.8532 22.7658 36.5902 23.2229C36.4142 23.5295 36.094 23.7013 35.7653 23.7013C35.6041 23.7013 35.4401 23.6601 35.2902 23.5728L31.9156 21.6166C31.4604 21.3525 31.3048 20.7683 31.5678 20.3112ZM28.4568 31.9672C28.4568 31.4391 28.8831 31.0111 29.409 31.0111H33.3039C33.8298 31.0111 34.2561 31.4391 34.2561 31.9672C34.2561 32.4953 33.8298 32.9233 33.3039 32.9233H29.409C28.8831 32.9233 28.4568 32.4953 28.4568 31.9672ZM36.5895 40.7122C36.8525 41.1694 36.6962 41.7543 36.241 42.0183L32.8678 43.9739C32.7179 44.0605 32.5539 44.1024 32.3927 44.1024C32.064 44.1024 31.7438 43.9313 31.5678 43.6239C31.3048 43.1668 31.4611 42.5819 31.9163 42.3179L35.2895 40.3623C35.7441 40.0982 36.3265 40.2544 36.5895 40.7122ZM66.7564 23.2222C66.4934 22.765 66.6496 22.1802 67.1049 21.9161L70.4781 19.9605C70.9333 19.6965 71.5158 19.8534 71.7788 20.3105C72.0417 20.7676 71.8855 21.3525 71.4303 21.6166L68.057 23.5721C67.9072 23.6587 67.7432 23.7006 67.582 23.7006C67.2526 23.7006 66.9331 23.5288 66.7564 23.2222ZM70.042 31.0111H73.9369C74.4628 31.0111 74.8891 31.4391 74.8891 31.9672C74.8891 32.4953 74.4628 32.9233 73.9369 32.9233H70.042C69.516 32.9233 69.0898 32.4953 69.0898 31.9672C69.0898 31.4391 69.516 31.0111 70.042 31.0111ZM66.7564 40.7122C67.0193 40.2551 67.6011 40.0982 68.057 40.3623L71.4303 42.3179C71.8855 42.5819 72.0417 43.1668 71.7788 43.6239C71.6028 43.9306 71.2825 44.1024 70.9538 44.1024C70.7927 44.1024 70.6287 44.0612 70.4788 43.9739L67.1056 42.0183C66.6496 41.7535 66.4934 41.1694 66.7564 40.7122ZM43.6053 45.0514C42.9055 45.5745 42.4517 46.4107 42.4517 47.3519C42.4517 48.0852 42.7281 48.7552 43.1805 49.2628C42.7273 49.7703 42.4517 50.4404 42.4517 51.1736C42.4517 52.7509 43.7269 54.0349 45.2969 54.0399C45.5895 55.2913 46.2618 56.4313 47.2415 57.3129C48.4432 58.3947 50.0033 58.9902 51.6348 58.9902C54.7175 58.9902 57.3089 56.9125 57.9734 54.0406C59.5412 54.0328 60.8143 52.7501 60.8143 51.1743C60.8143 50.4411 60.5379 49.771 60.0855 49.2635C60.5387 48.756 60.8143 48.0859 60.8143 47.3526C60.8143 46.4398 60.3867 45.6263 59.7229 45.1011C60.0205 44.2897 60.4065 43.57 60.8016 43.1072C63.9303 39.4424 65.5844 35.3815 65.5844 31.3646C65.5844 27.814 64.1339 24.4715 61.4993 21.9516C58.8831 19.4488 55.3975 18.0454 51.6857 18C51.6779 18 51.6701 18 51.6623 18C47.9491 18.0447 44.4634 19.448 41.8473 21.9502C39.2127 24.47 37.7622 27.8133 37.7622 31.3631C37.7622 35.3807 39.4163 39.4409 42.545 43.1058C42.9323 43.56 43.3105 44.2599 43.6053 45.0514ZM50.9265 44.4849L48.2523 33.0909L50.9993 35.8563C51.1781 36.0359 51.4206 36.1374 51.6729 36.1374C51.926 36.1374 52.1685 36.0366 52.3466 35.8563L55.0716 33.1129L52.3452 44.4842L50.9265 44.4849ZM57.9585 46.3965C58.483 46.3965 58.9093 46.8252 58.9093 47.3512C58.9093 47.8779 58.4823 48.3059 57.9585 48.3059H45.3068C44.7823 48.3059 44.356 47.8772 44.356 47.3512C44.356 46.8245 44.783 46.3965 45.3068 46.3965H57.9585ZM51.6348 57.0779C49.6477 57.0779 47.9081 55.8116 47.2825 54.0498L55.98 54.0839C55.3537 55.8471 53.6409 57.0779 51.6348 57.0779ZM57.9585 52.1283H45.3068C44.7823 52.1283 44.356 51.6996 44.356 51.1736C44.356 50.6469 44.783 50.2189 45.3068 50.2189H57.9585C58.483 50.2189 58.9093 50.6476 58.9093 51.1736C58.91 51.6996 58.483 52.1283 57.9585 52.1283ZM51.6729 19.9101C58.2943 19.9982 63.6793 25.1337 63.6793 31.3631C63.6793 34.9179 62.1843 38.548 59.3553 41.8614C58.8054 42.506 58.2978 43.438 57.9197 44.4842H54.304L57.7161 30.253C57.8157 29.8363 57.6277 29.404 57.2552 29.1953C56.8827 28.9859 56.4175 29.0512 56.1164 29.3543L51.6729 33.8277L47.2295 29.3543C46.9291 29.052 46.4646 28.9859 46.0928 29.1939C45.721 29.4019 45.5315 29.8328 45.6291 30.2487L48.9705 44.4849H45.4269C45.0487 43.4387 44.5412 42.5067 43.9905 41.8622C41.1616 38.5487 39.6665 34.9187 39.6665 31.3639C39.6665 25.1337 45.0516 19.9982 51.6729 19.9101Z" fill="#27307D"/>
</svg>
