<svg width="100" height="100" viewBox="0 0 100 100" fill="none" xmlns="http://www.w3.org/2000/svg">
<path d="M40.6667 59.0222H36.7333V51.3784C36.7333 48.5661 35.3173 46.0684 33.1802 44.6131C35.3173 43.2102 36.7333 40.7912 36.7333 38.0444C36.7333 33.7047 33.2064 30.1778 28.8667 30.1778C24.5269 30.1778 21 33.7047 21 38.0444C21 40.7781 22.4029 43.1906 24.5269 44.6C24.1598 44.8426 23.8123 45.1113 23.4846 45.4129C21.9047 46.8944 21 48.9922 21 51.1556V68.2C21 68.9211 21.59 69.5111 22.3111 69.5111H34.1111V78.6889C34.1111 79.41 34.7011 80 35.4222 80H43.2889C44.01 80 44.6 79.41 44.6 78.6889V62.9556C44.6 60.7857 42.8366 59.0222 40.6667 59.0222ZM28.8667 32.8C31.7577 32.8 34.1111 35.1534 34.1111 38.0444C34.1111 40.9354 31.7577 43.2889 28.8667 43.2889C25.9757 43.2889 23.6222 40.9354 23.6222 38.0444C23.6222 35.1534 25.9757 32.8 28.8667 32.8ZM41.9778 77.3778H36.7333V68.2C36.7333 67.4789 36.1433 66.8889 35.4222 66.8889H23.6222V51.1556C23.6222 49.6871 24.2122 48.3301 25.2808 47.3271C26.3493 46.3241 27.7588 45.8324 29.2207 45.9242C31.9674 46.1012 34.1111 48.5006 34.1111 51.385V60.3333C34.1111 61.0544 34.7011 61.6444 35.4222 61.6444H40.6667C41.3878 61.6444 41.9778 62.2344 41.9778 62.9556V77.3778ZM76.4731 44.6C78.5971 43.1906 80 40.7781 80 38.0444C80 33.7047 76.4731 30.1778 72.1333 30.1778C67.7936 30.1778 64.2667 33.7047 64.2667 38.0444C64.2667 40.7912 65.6827 43.2102 67.8198 44.6197C65.6827 46.0684 64.2667 48.5661 64.2667 51.3784V59.0222H60.3333C58.1634 59.0222 56.4 60.7857 56.4 62.9556V78.6889C56.4 79.41 56.99 80 57.7111 80H65.5778C66.2989 80 66.8889 79.41 66.8889 78.6889V69.5111H78.6889C79.41 69.5111 80 68.9211 80 68.2V51.1556C80 48.9922 79.0953 46.8944 77.5154 45.4129C77.1877 45.1113 76.8337 44.8426 76.4731 44.6ZM72.1333 32.8C75.0243 32.8 77.3778 35.1534 77.3778 38.0444C77.3778 40.9354 75.0243 43.2889 72.1333 43.2889C69.2423 43.2889 66.8889 40.9354 66.8889 38.0444C66.8889 35.1534 69.2423 32.8 72.1333 32.8ZM77.3778 66.8889H65.5778C64.8567 66.8889 64.2667 67.4789 64.2667 68.2V77.3778H59.0222V62.9556C59.0222 62.2344 59.6122 61.6444 60.3333 61.6444H65.5778C66.2989 61.6444 66.8889 61.0544 66.8889 60.3333V51.3784C66.8889 48.494 69.0391 46.1012 71.7793 45.9177C73.2478 45.8259 74.6507 46.3241 75.7192 47.3271C76.7878 48.3301 77.3778 49.6871 77.3778 51.1556V66.8889ZM60.9889 32.8V24.9333C60.9889 22.7634 59.2254 21 57.0556 21H43.9444C41.7746 21 40.0111 22.7634 40.0111 24.9333V32.8C40.0111 34.9699 41.7746 36.7333 43.9444 36.7333H46.4946L49.3856 41.3616C49.6281 41.7418 50.0477 41.9778 50.5 41.9778C50.9523 41.9778 51.3719 41.7418 51.6144 41.3616L54.5054 36.7333H57.0556C59.2254 36.7333 60.9889 34.9699 60.9889 32.8ZM53.7778 34.1111C53.3254 34.1111 52.9059 34.3471 52.6633 34.7273L50.5 38.1952L48.3367 34.7273C48.0941 34.3471 47.6746 34.1111 47.2222 34.1111H43.9444C43.2233 34.1111 42.6333 33.5211 42.6333 32.8V24.9333C42.6333 24.2122 43.2233 23.6222 43.9444 23.6222H57.0556C57.7767 23.6222 58.3667 24.2122 58.3667 24.9333V32.8C58.3667 33.5211 57.7767 34.1111 57.0556 34.1111H53.7778Z" fill="#27307D"/>
</svg>
