<svg width="31" height="34" viewBox="0 0 31 34" fill="none" xmlns="http://www.w3.org/2000/svg">
<rect x="4.42969" y="29.7627" width="19.9021" height="3.18042" stroke="#696969"/>
<path d="M5.69616 29.8072L4.47311 15.1306H24.2884L23.0654 29.8072H5.69616Z" stroke="#696969"/>
<rect x="13.3132" y="7.29199" width="4.74808" height="7.88339" stroke="#696969"/>
<path d="M23.2309 15.1767L18.3715 15.1767L24.1825 4.86308L27.8112 6.92392L23.2309 15.1767Z" stroke="#696969"/>
<path d="M25.5221 2.65502C25.6629 2.42466 25.961 2.34759 26.1957 2.4809L28.948 4.04396C29.1941 4.18377 29.2752 4.49989 29.1268 4.74094L27.7983 6.89787L24.2171 4.79129L25.5221 2.65502Z" stroke="#696969"/>
<path d="M26.6607 14.6319L29.5641 9.59936C30.1224 8.63163 29.7797 7.39417 28.803 6.8516L28.2284 6.53235" stroke="#696969"/>
<path d="M5.53173 14.9156L3.03625 10.378L5.10114 9.18585L7.14689 8.00473L10.9247 14.9156L8.502 14.9156L5.53173 14.9156Z" stroke="#696969"/>
<path d="M15.687 6.79199V15.1528" stroke="#696969"/>
<path d="M15.6874 2.61276L17.6316 5.79428C18.0388 6.46064 17.5593 7.31573 16.7783 7.31573H14.5964C13.8154 7.31573 13.3359 6.46064 13.7431 5.79428L15.6874 2.61276ZM15.6874 2.61276V0" stroke="#696969"/>
<path d="M3.01865 5.26181L3.01903 5.26252M3.01865 5.26181L2.93981 8.01649L2.91198 8.98885C2.88963 9.76946 3.73066 10.2733 4.40839 9.88531L6.30201 8.80126C6.97974 8.41328 6.9711 7.43292 6.28664 7.05694L5.43405 6.5886L3.01865 5.26181Z" stroke="#696969"/>
</svg>
