<svg width="360" height="379" viewBox="0 0 360 379" fill="none" xmlns="http://www.w3.org/2000/svg">
<path opacity="0.55" d="M206.653 155.994C120.975 166.637 -5.70082 14.5395 -28.5604 4.76953C-51.4199 -5.00045 -75.9599 0.0776947 -92.5529 24.4277C-110.118 50.2049 -128.051 140.285 -121.431 203.044C-112.878 284.129 -107.17 222.072 -93.9671 396.522C-80.7642 570.972 -46.1508 453.555 26.5089 536.42C99.1686 619.284 75.9036 568.177 188.806 640.764C301.708 713.352 249.961 680.083 332.374 765.931C414.786 851.779 521.517 900.681 560.529 912.617C599.541 924.553 636.335 911.284 724.002 1017.72C801.681 1112.03 793.934 1046.25 865.042 1075.53C936.151 1104.82 927.596 956.36 934.305 896.589C941.014 836.818 875.67 789.878 890.872 766.788C906.073 743.697 877.904 702.582 904.978 641.115C932.052 579.649 857.473 525.122 801.566 472.749C745.658 420.376 677.079 458.441 554.768 379.805C432.457 301.168 482.741 313.778 394.648 211.133C306.556 108.487 292.33 145.35 206.653 155.994Z" fill="#27307D"/>
</svg>
